<svg id="svg" version="1.1" width="400" height="73.85952208544532" viewBox="0 0 400 73.85952208544532" xmlns="http://www.w3.org/2000/svg" xmlns:xlink="http://www.w3.org/1999/xlink" ><g id="svgg"><path id="path0" d="M36.000 0.667 C 36.000 0.758,35.831 0.835,35.625 0.837 C 35.419 0.839,34.542 1.022,33.677 1.244 C 32.812 1.466,32.032 1.603,31.943 1.548 C 31.854 1.493,31.827 1.522,31.883 1.612 C 31.938 1.701,31.648 1.938,31.237 2.137 C 30.334 2.576,30.227 2.587,30.513 2.208 C 30.704 1.957,30.701 1.946,30.492 2.133 C 30.359 2.252,30.248 2.440,30.246 2.550 C 30.244 2.660,30.113 2.740,29.956 2.727 C 29.799 2.715,29.705 2.761,29.748 2.830 C 29.791 2.900,29.378 3.309,28.830 3.739 C 28.282 4.170,27.833 4.600,27.833 4.696 C 27.833 4.791,27.723 4.827,27.589 4.775 C 27.325 4.674,27.095 4.930,27.088 5.333 C 27.085 5.471,26.984 5.563,26.863 5.538 C 26.741 5.512,26.681 5.555,26.729 5.633 C 26.826 5.789,25.702 7.450,25.561 7.361 C 25.512 7.331,25.422 7.361,25.361 7.429 C 25.300 7.498,25.344 7.499,25.458 7.434 C 25.896 7.182,25.061 9.239,24.603 9.539 C 24.474 9.624,24.484 9.662,24.635 9.664 C 24.755 9.666,24.806 9.743,24.748 9.836 C 24.691 9.929,24.555 9.956,24.447 9.895 C 24.300 9.812,24.298 9.836,24.438 9.988 C 24.559 10.120,24.580 10.410,24.497 10.804 C 24.426 11.141,24.320 11.694,24.262 12.032 L 24.155 12.648 16.703 12.699 L 9.250 12.750 7.911 13.290 C 6.544 13.841,4.968 14.882,4.099 15.806 C 3.833 16.090,3.541 16.275,3.449 16.218 C 3.351 16.158,3.334 16.200,3.408 16.320 C 3.481 16.438,3.397 16.678,3.208 16.887 C 3.029 17.087,2.631 17.677,2.325 18.198 C 2.018 18.719,1.696 19.101,1.608 19.047 C 1.520 18.993,1.498 19.028,1.558 19.126 C 1.618 19.223,1.405 20.088,1.084 21.048 C 0.763 22.007,0.500 23.095,0.500 23.466 C 0.500 24.418,0.306 24.897,0.149 24.333 C 0.085 24.104,0.035 32.542,0.036 43.083 C 0.038 53.625,0.093 62.025,0.159 61.750 L 0.278 61.250 0.408 61.876 C 0.479 62.220,0.505 62.726,0.464 63.000 C 0.424 63.274,0.427 63.461,0.472 63.417 C 0.516 63.373,0.794 64.084,1.090 64.996 C 1.386 65.909,1.824 66.990,2.064 67.399 C 2.549 68.227,2.599 68.410,2.292 68.233 C 2.171 68.163,2.142 68.177,2.222 68.265 C 2.299 68.348,2.449 68.418,2.556 68.421 C 2.662 68.423,2.740 68.551,2.728 68.706 C 2.716 68.860,2.763 68.971,2.833 68.952 C 2.903 68.932,3.418 69.414,3.977 70.022 C 4.537 70.631,5.370 71.370,5.830 71.664 C 6.292 71.961,6.617 72.279,6.557 72.376 C 6.497 72.473,6.525 72.504,6.619 72.446 C 6.712 72.389,7.417 72.563,8.186 72.834 C 8.955 73.105,9.771 73.334,10.000 73.342 C 10.383 73.356,10.389 73.368,10.083 73.500 C 9.896 73.580,25.786 73.643,46.333 73.643 C 66.881 73.643,82.771 73.580,82.583 73.500 C 82.240 73.352,82.376 73.315,83.458 73.264 C 83.619 73.256,83.787 73.205,83.833 73.150 C 83.879 73.095,84.367 72.883,84.917 72.680 C 87.913 71.574,90.623 68.397,91.680 64.750 C 91.892 64.017,92.122 63.393,92.190 63.364 C 92.259 63.335,92.273 63.203,92.222 63.071 C 92.171 62.938,92.188 62.474,92.260 62.040 C 92.384 61.284,92.395 61.272,92.508 61.750 C 92.574 62.025,92.629 53.625,92.630 43.083 C 92.632 32.542,92.577 24.104,92.509 24.333 C 92.402 24.688,92.367 24.626,92.271 23.917 C 92.090 22.571,91.331 19.992,90.812 18.961 C 90.548 18.436,90.351 17.914,90.374 17.802 C 90.397 17.690,90.338 17.595,90.242 17.591 C 90.146 17.587,89.655 17.096,89.151 16.500 C 88.371 15.578,87.281 14.639,85.901 13.700 C 85.632 13.517,85.628 13.497,85.875 13.570 C 86.276 13.688,86.241 13.552,85.813 13.323 C 85.565 13.190,85.493 13.188,85.573 13.317 C 85.739 13.584,85.361 13.542,84.417 13.186 C 83.958 13.013,83.197 12.819,82.724 12.756 L 81.865 12.640 81.804 10.362 C 81.724 7.386,81.102 6.373,79.322 6.322 C 78.947 6.311,78.941 6.299,79.250 6.167 C 79.444 6.083,76.966 6.023,73.333 6.023 C 69.701 6.023,67.223 6.083,67.417 6.167 C 67.704 6.290,67.681 6.312,67.250 6.324 C 65.459 6.376,64.763 7.472,64.696 10.345 L 64.641 12.667 63.840 12.667 L 63.039 12.667 62.921 11.565 C 62.789 10.334,62.425 9.166,61.772 7.877 C 61.284 6.915,61.244 6.758,61.526 6.933 C 61.646 7.007,61.673 6.978,61.598 6.856 C 61.531 6.749,61.415 6.699,61.340 6.746 C 61.184 6.842,60.584 6.023,60.582 5.710 C 60.581 5.596,60.517 5.510,60.441 5.518 C 60.252 5.538,59.333 4.644,59.333 4.440 C 59.333 4.349,59.540 4.456,59.792 4.677 C 60.044 4.898,59.954 4.761,59.591 4.373 C 58.953 3.689,58.704 3.490,58.917 3.833 C 59.071 4.083,58.736 4.034,58.522 3.776 C 58.420 3.653,58.392 3.491,58.460 3.416 C 58.528 3.341,58.488 3.335,58.372 3.402 C 58.164 3.521,57.083 2.756,57.083 2.490 C 57.083 2.419,57.015 2.299,56.932 2.222 C 56.843 2.142,56.830 2.171,56.900 2.292 C 56.970 2.414,56.929 2.498,56.802 2.495 C 56.514 2.488,55.311 1.745,55.416 1.639 C 55.462 1.594,55.368 1.563,55.208 1.570 C 54.833 1.587,51.673 0.843,51.294 0.648 C 50.881 0.437,36.000 0.455,36.000 0.667 M51.993 4.847 C 52.456 4.947,52.805 5.078,52.768 5.139 C 52.730 5.200,52.946 5.255,53.247 5.262 C 54.023 5.278,56.455 6.835,56.242 7.179 C 56.198 7.251,56.249 7.365,56.356 7.431 C 56.478 7.506,56.507 7.479,56.433 7.359 C 56.238 7.045,56.425 7.140,56.766 7.529 C 56.968 7.760,56.993 7.840,56.833 7.752 C 56.685 7.669,56.640 7.675,56.722 7.765 C 56.799 7.848,56.884 7.879,56.913 7.833 C 56.988 7.713,57.667 8.355,57.667 8.546 C 57.667 8.635,57.535 8.605,57.375 8.479 C 57.111 8.272,57.105 8.278,57.311 8.540 C 57.436 8.699,57.597 8.793,57.669 8.749 C 57.815 8.658,58.421 9.744,58.763 10.708 C 58.889 11.062,58.916 11.333,58.826 11.333 C 58.738 11.333,58.668 11.465,58.669 11.625 C 58.671 11.856,58.702 11.869,58.818 11.687 C 58.982 11.426,59.097 12.018,59.251 13.917 C 59.302 14.558,59.384 15.400,59.432 15.786 L 59.519 16.489 71.134 16.536 C 82.115 16.581,83.687 16.647,83.139 17.039 C 82.975 17.157,82.995 17.173,83.217 17.101 C 84.590 16.657,88.474 21.358,87.922 22.795 C 87.875 22.917,87.904 22.976,87.985 22.926 C 88.848 22.392,88.741 63.014,87.877 63.655 C 87.807 63.707,87.726 63.969,87.698 64.236 C 87.614 65.014,87.002 66.100,86.806 65.817 C 86.688 65.646,86.672 65.681,86.746 65.945 C 86.906 66.515,85.123 68.321,83.795 68.934 L 82.750 69.417 46.333 69.417 L 9.917 69.417 8.918 68.950 C 7.843 68.447,7.122 67.874,7.268 67.638 C 7.317 67.558,7.265 67.512,7.151 67.538 C 6.696 67.638,5.365 65.551,4.842 63.916 C 4.360 62.411,4.127 60.422,4.500 61.000 C 4.605 61.162,4.662 54.843,4.662 43.000 C 4.662 31.157,4.605 24.838,4.500 25.000 C 4.106 25.609,4.359 23.549,4.855 22.104 C 5.731 19.553,6.947 18.065,8.917 17.135 L 10.083 16.583 18.945 16.535 L 27.806 16.486 27.904 15.202 C 28.170 11.727,28.966 8.750,29.629 8.750 C 29.726 8.750,29.868 8.682,29.944 8.598 C 30.025 8.510,29.996 8.497,29.875 8.566 C 29.760 8.632,29.667 8.616,29.667 8.529 C 29.667 8.296,31.649 6.333,31.882 6.336 C 32.010 6.338,31.992 6.403,31.833 6.515 C 31.611 6.672,31.611 6.684,31.833 6.624 C 31.971 6.586,32.083 6.453,32.083 6.328 C 32.083 6.012,33.833 5.128,34.286 5.214 C 34.490 5.253,34.620 5.226,34.575 5.153 C 34.294 4.698,50.009 4.422,51.993 4.847 M53.333 5.583 C 53.563 5.714,53.825 5.822,53.917 5.822 C 54.008 5.822,53.896 5.714,53.667 5.583 C 53.438 5.452,53.175 5.345,53.083 5.345 C 52.992 5.345,53.104 5.452,53.333 5.583 M82.036 10.292 C 82.003 12.298,82.027 12.500,82.292 12.497 C 82.493 12.496,82.521 12.455,82.380 12.366 C 82.244 12.279,82.160 11.559,82.125 10.160 L 82.072 8.083 82.036 10.292 M102.833 9.927 C 102.833 10.071,103.058 10.378,103.333 10.609 L 103.833 11.030 103.833 20.667 L 103.833 30.304 103.333 30.724 C 102.211 31.669,102.195 31.667,109.458 31.666 C 113.238 31.666,116.728 31.587,117.583 31.483 C 119.598 31.237,122.667 30.217,122.667 29.793 C 122.667 29.713,122.731 29.687,122.809 29.735 C 122.888 29.784,123.193 29.524,123.487 29.158 C 123.783 28.790,124.102 28.543,124.203 28.606 C 124.309 28.671,124.337 28.641,124.271 28.534 C 124.209 28.433,124.309 28.269,124.495 28.169 C 124.681 28.070,124.833 27.878,124.833 27.744 C 124.833 27.610,124.908 27.500,125.000 27.500 C 125.092 27.500,125.167 27.420,125.167 27.321 C 125.167 27.223,125.280 27.030,125.418 26.891 C 125.557 26.753,125.632 26.579,125.586 26.504 C 125.540 26.429,125.614 26.325,125.751 26.273 C 125.888 26.220,126.000 26.041,126.000 25.874 C 126.000 25.708,126.158 25.124,126.352 24.578 C 127.097 22.469,127.087 18.827,126.329 16.717 C 126.138 16.185,125.973 15.638,125.963 15.502 C 125.953 15.366,125.844 15.153,125.721 15.030 C 125.598 14.907,125.540 14.738,125.592 14.653 C 125.644 14.569,125.619 14.500,125.537 14.500 C 125.454 14.500,125.309 14.329,125.214 14.121 C 124.961 13.564,124.194 12.679,123.153 11.738 C 123.007 11.607,122.801 11.500,122.694 11.500 C 122.587 11.500,122.500 11.425,122.500 11.333 C 122.500 11.242,122.398 11.167,122.272 11.167 C 122.147 11.167,121.866 11.028,121.647 10.858 C 121.209 10.517,120.148 10.130,119.500 10.075 C 119.271 10.056,118.448 9.956,117.671 9.853 C 115.286 9.538,102.833 9.600,102.833 9.927 M172.000 9.846 C 172.000 9.945,172.226 10.251,172.501 10.527 C 172.777 10.802,172.965 11.088,172.920 11.162 C 172.874 11.235,173.014 12.100,173.231 13.084 C 173.448 14.067,173.588 15.013,173.543 15.186 C 173.496 15.367,173.547 15.500,173.665 15.500 C 173.783 15.500,173.826 15.612,173.767 15.765 C 173.711 15.911,173.720 16.117,173.785 16.223 C 174.125 16.771,173.977 18.351,173.569 18.537 C 172.636 18.962,173.101 19.167,175.000 19.167 C 176.952 19.167,177.167 19.061,176.417 18.470 C 175.911 18.072,175.900 17.734,176.333 15.779 C 176.511 14.969,176.651 14.257,176.643 14.195 C 176.634 14.134,176.644 14.046,176.665 14.000 C 176.686 13.954,176.723 13.692,176.747 13.417 C 176.868 12.036,177.366 10.364,177.680 10.282 C 177.856 10.236,178.000 10.078,178.000 9.932 C 178.000 9.699,177.634 9.667,175.000 9.667 C 172.968 9.667,172.000 9.725,172.000 9.846 M13.625 12.458 C 15.481 12.485,18.519 12.485,20.375 12.458 C 22.231 12.431,20.712 12.409,17.000 12.409 C 13.287 12.409,11.769 12.431,13.625 12.458 M63.458 12.451 C 63.665 12.491,64.002 12.491,64.208 12.451 C 64.415 12.411,64.246 12.379,63.833 12.379 C 63.421 12.379,63.252 12.411,63.458 12.451 M147.234 12.641 C 147.282 12.719,147.171 12.944,146.988 13.141 C 146.654 13.499,146.636 13.500,138.244 13.500 C 129.620 13.500,129.571 13.504,129.961 14.106 C 130.028 14.210,130.233 14.323,130.417 14.358 C 130.744 14.420,130.751 14.572,130.796 22.468 C 130.845 30.985,130.844 31.000,130.095 31.000 C 129.944 31.000,129.833 31.142,129.833 31.336 C 129.833 31.669,129.917 31.672,138.408 31.664 C 147.546 31.654,147.667 31.665,147.667 32.454 C 147.667 32.571,147.779 32.667,147.917 32.667 C 148.128 32.667,148.167 32.259,148.167 30.000 C 148.167 27.741,148.128 27.333,147.917 27.333 C 147.779 27.333,147.667 27.414,147.667 27.512 C 147.667 28.218,147.385 28.250,141.179 28.250 L 135.250 28.250 135.250 26.083 L 135.250 23.917 138.636 23.872 C 142.226 23.824,143.000 23.984,143.000 24.775 C 143.000 24.914,143.094 24.997,143.208 24.959 C 143.549 24.845,143.594 19.833,143.254 19.833 C 143.114 19.833,143.000 19.918,143.000 20.022 C 143.000 20.736,142.419 20.842,138.762 20.795 L 135.250 20.750 135.250 18.833 L 135.250 16.917 140.500 16.867 C 146.019 16.815,146.893 16.899,147.084 17.504 C 147.142 17.685,147.334 17.833,147.511 17.833 C 147.816 17.833,147.833 17.691,147.833 15.167 C 147.833 12.586,147.822 12.500,147.490 12.500 C 147.301 12.500,147.186 12.564,147.234 12.641 M168.314 12.625 C 168.303 12.694,168.303 12.806,168.314 12.875 C 168.324 12.944,168.258 13.000,168.167 13.000 C 168.075 13.000,168.019 13.094,168.042 13.208 C 168.065 13.323,167.990 13.398,167.875 13.375 C 167.760 13.352,167.667 13.390,167.667 13.458 C 167.667 13.527,163.874 13.563,159.238 13.539 L 150.809 13.494 150.863 13.872 C 150.896 14.106,151.024 14.242,151.199 14.228 C 151.936 14.172,152.000 14.845,152.000 22.583 C 152.000 30.708,151.942 31.175,150.958 31.020 C 150.890 31.009,150.833 31.151,150.833 31.336 C 150.833 31.669,150.915 31.672,159.542 31.657 L 168.250 31.641 168.583 32.147 C 169.237 33.141,169.333 32.866,169.333 30.000 C 169.333 27.071,169.282 26.945,168.444 27.833 L 167.972 28.333 162.153 28.333 L 156.333 28.333 156.333 26.083 L 156.333 23.833 159.740 23.833 C 161.832 23.833,163.187 23.898,163.250 24.000 C 163.307 24.092,163.490 24.167,163.657 24.167 C 163.824 24.167,164.000 24.317,164.048 24.500 C 164.096 24.683,164.255 24.833,164.401 24.833 C 164.632 24.833,164.667 24.510,164.667 22.333 C 164.667 19.944,164.652 19.833,164.333 19.833 C 164.150 19.833,163.991 19.908,163.979 20.000 C 163.968 20.092,163.949 20.244,163.938 20.339 C 163.888 20.748,163.222 20.828,159.875 20.831 L 156.333 20.833 156.333 18.833 L 156.333 16.833 161.739 16.833 C 167.282 16.833,167.892 16.897,168.080 17.490 C 168.141 17.681,168.333 17.833,168.511 17.833 C 168.816 17.833,168.833 17.691,168.833 15.167 C 168.833 12.907,168.795 12.500,168.583 12.500 C 168.446 12.500,168.324 12.556,168.314 12.625 M38.375 13.292 C 41.194 13.317,45.806 13.317,48.625 13.292 C 51.444 13.266,49.137 13.245,43.500 13.245 C 37.862 13.245,35.556 13.266,38.375 13.292 M117.202 13.563 C 117.725 13.686,118.342 13.910,118.571 14.060 C 118.801 14.210,119.069 14.333,119.167 14.333 C 119.353 14.333,120.692 15.663,120.516 15.672 C 120.461 15.675,120.553 15.781,120.719 15.907 C 120.886 16.033,121.025 16.199,121.029 16.276 C 121.033 16.354,121.185 16.710,121.368 17.069 C 121.551 17.428,121.708 17.971,121.717 18.277 C 121.726 18.583,121.774 18.833,121.825 18.833 C 121.935 18.833,121.901 22.251,121.789 22.447 C 121.746 22.522,121.706 22.826,121.700 23.124 C 121.689 23.687,120.892 25.333,120.630 25.333 C 120.548 25.333,120.522 25.401,120.573 25.484 C 120.866 25.958,118.130 27.731,117.148 27.703 C 116.843 27.694,116.516 27.739,116.422 27.802 C 116.327 27.865,114.506 27.895,112.375 27.869 L 108.500 27.821 108.500 20.577 L 108.500 13.333 112.375 13.336 C 115.028 13.338,116.550 13.409,117.202 13.563 M185.917 13.573 C 185.550 13.686,185.010 13.902,184.717 14.055 C 184.423 14.208,184.029 14.333,183.842 14.333 C 183.654 14.333,183.499 14.390,183.499 14.458 C 183.498 14.527,183.230 14.766,182.903 14.989 C 180.860 16.380,180.353 20.130,181.919 22.259 C 182.193 22.631,182.454 22.937,182.500 22.939 C 182.546 22.941,182.909 23.149,183.307 23.400 C 183.704 23.651,184.173 23.867,184.348 23.880 C 184.523 23.893,184.667 23.954,184.667 24.015 C 184.667 24.075,184.835 24.126,185.042 24.127 C 185.248 24.127,185.979 24.209,186.667 24.308 C 187.354 24.408,188.772 24.570,189.817 24.668 C 190.862 24.767,192.087 24.927,192.539 25.024 C 192.991 25.121,193.486 25.218,193.639 25.240 C 193.885 25.274,194.668 26.222,194.666 26.483 C 194.655 28.289,190.325 29.237,186.583 28.253 C 185.667 28.012,184.775 27.783,184.601 27.746 C 184.031 27.621,183.223 26.956,183.035 26.457 C 182.933 26.187,182.760 25.997,182.650 26.033 C 182.387 26.121,181.518 27.758,181.410 28.369 C 181.364 28.632,181.178 29.125,180.996 29.463 C 180.473 30.439,180.602 30.750,181.339 30.292 C 181.617 30.119,181.762 30.134,182.185 30.376 C 182.466 30.537,182.765 30.626,182.848 30.574 C 182.932 30.523,183.000 30.563,183.000 30.664 C 183.000 30.765,183.094 30.829,183.208 30.806 C 183.323 30.784,184.039 30.975,184.799 31.232 C 185.560 31.489,186.460 31.713,186.800 31.731 C 187.139 31.748,187.492 31.802,187.584 31.851 C 187.738 31.933,192.148 31.915,192.333 31.831 C 192.379 31.811,192.484 31.806,192.567 31.822 C 192.649 31.837,192.836 31.798,192.983 31.735 C 193.130 31.672,193.362 31.606,193.500 31.589 C 194.564 31.457,196.618 30.390,197.467 29.528 C 197.890 29.099,198.701 27.524,198.591 27.345 C 198.538 27.260,198.571 27.143,198.664 27.085 C 198.853 26.968,198.899 25.288,198.718 25.107 C 198.654 25.043,198.581 24.848,198.554 24.672 C 198.484 24.215,197.827 23.000,197.650 23.000 C 197.567 23.000,197.500 22.900,197.500 22.778 C 197.500 22.406,195.398 21.184,194.958 21.300 C 194.890 21.318,194.833 21.270,194.833 21.192 C 194.833 21.114,194.617 21.045,194.353 21.037 C 194.089 21.030,193.582 20.946,193.228 20.852 C 192.457 20.648,187.474 20.137,187.360 20.251 C 187.317 20.295,187.180 20.247,187.058 20.146 C 186.935 20.044,186.685 20.000,186.501 20.048 C 186.317 20.096,186.167 20.064,186.167 19.977 C 186.167 19.890,186.073 19.830,185.958 19.844 C 185.084 19.951,184.566 19.069,184.963 18.153 C 185.615 16.646,189.489 16.035,192.458 16.970 C 193.031 17.151,193.500 17.254,193.500 17.201 C 193.500 17.147,193.601 17.241,193.725 17.410 C 193.848 17.579,194.030 17.668,194.128 17.607 C 194.226 17.547,194.406 17.596,194.528 17.718 C 194.650 17.839,194.956 18.074,195.208 18.239 C 195.460 18.403,195.667 18.672,195.667 18.835 C 195.667 19.446,196.497 19.338,196.623 18.710 C 196.645 18.600,196.907 18.115,197.206 17.630 C 198.525 15.492,198.640 14.850,197.638 15.229 C 197.148 15.414,195.503 14.800,195.497 14.430 C 195.496 14.331,195.422 14.362,195.333 14.500 C 195.244 14.637,195.171 14.669,195.169 14.569 C 195.168 14.470,195.073 14.385,194.958 14.380 C 194.844 14.375,194.232 14.171,193.600 13.927 C 192.967 13.683,192.348 13.523,192.225 13.570 C 192.101 13.617,192.000 13.589,192.000 13.508 C 192.000 13.279,186.692 13.336,185.917 13.573 M32.754 13.829 C 32.590 14.011,32.396 14.122,32.323 14.077 C 32.249 14.032,32.135 14.082,32.069 14.190 C 31.994 14.312,32.021 14.340,32.141 14.266 C 32.277 14.182,32.333 14.413,32.333 15.062 C 32.333 16.621,31.395 16.500,43.500 16.500 C 54.978 16.500,54.473 16.538,54.755 15.651 C 54.917 15.139,54.694 14.194,54.324 13.824 C 53.813 13.313,33.217 13.318,32.754 13.829 M31.872 15.000 C 31.872 15.321,31.906 15.452,31.948 15.292 C 31.990 15.131,31.990 14.869,31.948 14.708 C 31.906 14.548,31.872 14.679,31.872 15.000 M14.970 16.958 C 17.383 16.984,21.283 16.984,23.637 16.958 C 25.991 16.932,24.017 16.911,19.250 16.911 C 14.483 16.911,12.557 16.932,14.970 16.958 M38.208 16.958 C 41.119 16.984,45.881 16.984,48.792 16.958 C 51.702 16.933,49.321 16.912,43.500 16.912 C 37.679 16.912,35.298 16.933,38.208 16.958 M65.137 16.958 C 68.283 16.984,73.383 16.984,76.471 16.958 C 79.558 16.933,76.983 16.912,70.750 16.912 C 64.517 16.912,61.991 16.933,65.137 16.958 M41.656 23.522 C 40.963 23.601,39.463 23.937,38.323 24.267 C 37.183 24.597,36.124 24.875,35.971 24.886 C 35.817 24.896,35.721 24.953,35.758 25.012 C 35.794 25.072,35.508 25.258,35.120 25.427 C 34.733 25.596,34.089 25.953,33.689 26.221 C 33.098 26.618,32.932 26.666,32.802 26.479 C 32.670 26.291,32.653 26.294,32.709 26.498 C 32.749 26.644,32.482 26.971,32.065 27.290 C 31.325 27.855,31.062 27.970,31.266 27.641 C 31.342 27.518,31.311 27.494,31.181 27.574 C 31.069 27.643,31.022 27.744,31.076 27.798 C 31.191 27.913,29.836 29.333,29.612 29.333 C 29.528 29.333,29.559 29.202,29.682 29.042 C 29.804 28.881,29.663 28.970,29.369 29.240 C 28.832 29.731,28.614 30.056,29.083 29.667 C 29.495 29.325,29.366 29.745,28.935 30.150 C 28.635 30.431,28.512 30.470,28.439 30.304 C 28.370 30.144,28.351 30.152,28.373 30.333 C 28.428 30.788,27.988 31.412,27.800 31.148 C 27.674 30.971,27.658 30.988,27.734 31.220 C 27.793 31.404,27.675 31.734,27.436 32.054 C 26.899 32.773,25.772 34.904,25.410 35.884 C 25.240 36.345,25.065 36.604,24.997 36.495 C 24.933 36.391,24.874 36.518,24.866 36.778 C 24.836 37.804,24.632 38.523,24.397 38.432 C 24.270 38.384,24.167 38.410,24.167 38.491 C 24.167 38.572,24.245 38.665,24.340 38.697 C 24.457 38.736,24.430 39.272,24.258 40.336 C 23.933 42.335,23.933 43.831,24.258 45.831 C 24.430 46.894,24.457 47.431,24.340 47.470 C 24.245 47.502,24.167 47.594,24.167 47.675 C 24.167 47.756,24.279 47.780,24.417 47.727 C 24.651 47.637,24.745 48.030,24.712 48.957 C 24.708 49.070,24.783 49.115,24.878 49.055 C 24.988 48.988,25.018 49.081,24.958 49.308 C 24.907 49.505,24.923 49.631,24.994 49.587 C 25.066 49.543,25.246 49.826,25.395 50.217 C 25.717 51.060,25.733 51.227,25.474 51.067 C 25.351 50.991,25.327 51.022,25.408 51.152 C 25.477 51.264,25.575 51.314,25.626 51.263 C 25.676 51.213,26.082 51.822,26.528 52.617 C 26.974 53.412,27.450 54.186,27.586 54.336 C 27.887 54.669,27.910 54.897,27.625 54.733 C 27.504 54.663,27.475 54.677,27.556 54.765 C 27.632 54.848,27.744 54.917,27.806 54.917 C 27.959 54.917,29.333 56.422,29.333 56.589 C 29.333 56.664,29.146 56.549,28.917 56.333 C 28.688 56.118,28.500 55.976,28.500 56.018 C 28.500 56.060,28.968 56.541,29.540 57.089 C 30.112 57.636,30.322 57.802,30.007 57.458 C 29.692 57.115,29.494 56.833,29.567 56.833 C 29.764 56.833,31.922 58.853,31.882 59.000 C 31.862 59.070,31.975 59.118,32.132 59.105 C 32.288 59.093,32.396 59.183,32.371 59.304 C 32.345 59.430,32.405 59.475,32.512 59.409 C 32.614 59.346,32.903 59.446,33.154 59.631 C 36.329 61.979,42.930 63.282,47.152 62.396 C 47.756 62.269,48.360 62.207,48.495 62.258 C 48.630 62.309,48.685 62.296,48.618 62.229 C 48.551 62.163,49.151 61.896,49.951 61.637 C 51.627 61.095,51.556 61.108,51.401 61.359 C 51.326 61.479,51.355 61.506,51.477 61.431 C 51.584 61.365,51.637 61.253,51.593 61.183 C 51.478 60.997,52.654 60.474,52.886 60.607 C 52.995 60.669,53.027 60.658,52.959 60.583 C 52.793 60.399,53.803 59.795,54.036 59.939 C 54.142 60.005,54.171 59.975,54.104 59.867 C 53.964 59.640,54.603 59.274,54.863 59.435 C 54.968 59.500,55.006 59.478,54.948 59.384 C 54.891 59.292,55.310 58.835,55.880 58.370 C 56.450 57.905,57.323 57.110,57.820 56.603 C 58.317 56.097,58.797 55.728,58.887 55.783 C 58.978 55.839,59.007 55.813,58.953 55.726 C 58.822 55.514,59.100 55.083,59.369 55.083 C 59.487 55.083,59.583 54.971,59.583 54.833 C 59.583 54.482,60.334 53.314,60.495 53.414 C 60.569 53.459,60.731 53.366,60.856 53.206 C 61.062 52.944,61.056 52.938,60.792 53.145 C 60.380 53.468,60.422 53.306,61.079 52.036 C 61.397 51.420,61.789 50.567,61.950 50.139 C 62.111 49.711,62.300 49.396,62.369 49.439 C 62.439 49.482,62.447 49.389,62.386 49.231 C 62.326 49.073,62.345 48.988,62.430 49.040 C 62.514 49.092,62.589 48.936,62.595 48.692 C 62.602 48.449,62.742 47.538,62.907 46.667 C 63.308 44.542,63.312 41.704,62.916 39.583 C 62.745 38.667,62.600 37.718,62.594 37.474 C 62.588 37.231,62.514 37.074,62.430 37.127 C 62.345 37.179,62.326 37.094,62.386 36.935 C 62.447 36.778,62.437 36.686,62.366 36.730 C 62.171 36.850,61.441 34.897,61.590 34.656 C 61.679 34.513,61.650 34.491,61.497 34.585 C 61.336 34.685,61.306 34.645,61.386 34.435 C 61.447 34.278,61.434 34.188,61.358 34.235 C 61.282 34.281,61.058 34.031,60.860 33.679 C 60.449 32.948,60.410 32.759,60.708 32.941 C 60.829 33.016,60.803 32.898,60.646 32.660 C 60.498 32.434,60.281 32.250,60.165 32.250 C 59.837 32.250,59.169 31.114,59.396 30.943 C 59.512 30.855,59.473 30.837,59.294 30.895 C 58.985 30.994,58.659 30.563,58.783 30.220 C 58.822 30.111,58.680 29.938,58.468 29.835 C 58.123 29.667,58.113 29.672,58.375 29.884 C 58.535 30.014,58.667 30.185,58.667 30.264 C 58.667 30.343,58.145 29.890,57.508 29.258 C 56.871 28.626,56.395 28.035,56.451 27.945 C 56.506 27.855,56.476 27.828,56.384 27.885 C 56.184 28.009,55.065 27.212,55.125 26.988 C 55.148 26.903,55.110 26.842,55.042 26.853 C 54.598 26.923,54.420 26.826,54.667 26.648 C 54.877 26.497,54.871 26.483,54.623 26.563 C 54.283 26.673,52.779 25.783,52.963 25.580 C 53.029 25.507,52.994 25.498,52.884 25.561 C 52.775 25.624,52.212 25.458,51.634 25.192 C 51.056 24.926,50.447 24.662,50.281 24.606 C 50.099 24.543,50.026 24.419,50.097 24.293 C 50.186 24.135,50.165 24.130,50.012 24.271 C 49.860 24.411,49.421 24.358,48.279 24.060 C 45.727 23.395,43.991 23.254,41.656 23.522 M88.080 43.000 C 88.080 53.038,88.100 57.144,88.125 52.125 C 88.149 47.106,88.149 38.894,88.125 33.875 C 88.100 28.856,88.080 32.962,88.080 43.000 M47.230 27.175 C 49.022 27.545,50.948 28.318,50.632 28.539 C 50.490 28.638,50.542 28.653,50.784 28.585 C 51.209 28.466,52.054 28.944,51.889 29.211 C 51.827 29.312,51.862 29.335,51.974 29.266 C 52.080 29.201,52.321 29.256,52.511 29.389 C 52.701 29.522,52.795 29.664,52.720 29.705 C 52.645 29.745,52.684 29.753,52.808 29.722 C 53.176 29.628,55.833 31.836,55.833 32.235 C 55.833 32.326,55.515 32.105,55.125 31.742 L 54.417 31.083 55.073 31.789 C 55.433 32.177,55.765 32.457,55.810 32.412 C 55.918 32.304,56.667 33.011,56.667 33.222 C 56.667 33.311,56.498 33.242,56.292 33.067 L 55.917 32.750 56.231 33.121 C 56.403 33.325,56.600 33.458,56.668 33.416 C 57.243 33.060,59.755 38.719,59.327 39.406 C 59.136 39.713,59.142 39.726,59.378 39.531 C 59.612 39.338,59.657 39.405,59.762 40.106 C 59.844 40.650,59.821 40.921,59.691 40.964 C 59.586 40.999,59.509 41.190,59.519 41.389 C 59.534 41.671,59.555 41.686,59.615 41.458 C 59.657 41.298,59.761 41.167,59.846 41.167 C 60.054 41.167,60.043 42.120,59.833 42.250 C 59.742 42.307,59.667 42.682,59.667 43.083 C 59.667 43.485,59.742 43.860,59.833 43.917 C 60.043 44.046,60.054 45.000,59.846 45.000 C 59.761 45.000,59.657 44.869,59.615 44.708 C 59.569 44.533,59.531 44.603,59.519 44.885 C 59.506 45.200,59.563 45.314,59.693 45.234 C 59.833 45.147,59.858 45.319,59.783 45.868 C 59.645 46.871,58.989 48.846,58.827 48.746 C 58.756 48.702,58.735 48.807,58.780 48.979 C 58.887 49.388,58.231 50.667,57.913 50.667 C 57.778 50.667,57.667 50.746,57.667 50.843 C 57.667 50.940,57.748 50.969,57.847 50.908 C 58.056 50.779,57.609 51.685,57.103 52.417 C 56.545 53.223,55.959 53.828,55.819 53.741 C 55.748 53.697,55.635 53.749,55.569 53.856 C 55.494 53.978,55.521 54.007,55.641 53.933 C 56.164 53.609,55.727 54.230,54.898 54.988 C 53.644 56.134,52.540 56.878,52.306 56.733 C 52.188 56.660,52.161 56.689,52.235 56.809 C 52.314 56.937,51.747 57.299,50.565 57.873 C 49.356 58.461,48.753 58.677,48.707 58.538 C 48.670 58.426,48.514 58.334,48.361 58.336 C 48.138 58.338,48.128 58.367,48.314 58.484 C 48.935 58.878,44.753 59.588,42.750 59.430 C 40.380 59.242,36.694 58.194,36.950 57.780 C 37.006 57.689,36.972 57.664,36.874 57.725 C 36.650 57.863,36.140 57.677,36.251 57.498 C 36.297 57.425,36.202 57.393,36.042 57.428 C 35.679 57.507,33.417 56.003,33.417 55.683 C 33.417 55.554,33.267 55.428,33.083 55.403 C 32.743 55.357,30.500 53.053,30.501 52.750 C 30.501 52.658,30.694 52.808,30.930 53.083 C 31.165 53.358,31.303 53.471,31.237 53.333 C 31.031 52.908,30.629 52.504,30.493 52.587 C 30.291 52.713,29.314 51.125,29.421 50.845 C 29.474 50.707,29.464 50.647,29.398 50.713 C 29.137 50.974,27.869 48.013,28.090 47.656 C 28.143 47.570,28.114 47.500,28.026 47.500 C 27.383 47.500,27.161 41.157,27.735 39.212 C 27.904 38.640,28.107 38.213,28.186 38.262 C 28.265 38.311,28.286 38.237,28.232 38.097 C 28.014 37.529,30.115 33.345,30.499 33.583 C 30.571 33.627,30.731 33.533,30.856 33.373 C 31.062 33.111,31.056 33.105,30.792 33.312 C 30.631 33.438,30.500 33.470,30.500 33.383 C 30.500 33.174,31.251 32.473,31.359 32.581 C 31.405 32.627,31.625 32.459,31.847 32.208 L 32.250 31.750 31.792 32.154 C 31.001 32.851,31.293 32.302,32.203 31.380 C 33.101 30.471,33.702 30.147,32.987 30.958 L 32.583 31.417 33.034 31.020 C 33.282 30.801,33.470 30.548,33.451 30.457 C 33.389 30.157,35.722 28.698,37.333 28.030 C 40.523 26.707,43.660 26.436,47.230 27.175 M40.917 29.009 C 37.544 29.458,34.198 31.478,32.092 34.339 C 31.696 34.877,31.314 35.264,31.243 35.200 C 31.172 35.136,31.165 35.174,31.229 35.285 C 31.293 35.397,31.146 35.881,30.903 36.361 C 29.398 39.331,29.120 43.738,30.484 43.008 C 30.844 42.816,30.912 42.621,31.089 41.260 C 31.340 39.334,32.198 36.730,32.516 36.927 C 32.597 36.977,32.613 36.889,32.553 36.731 C 32.473 36.522,32.502 36.482,32.664 36.582 C 32.813 36.674,32.845 36.654,32.763 36.521 C 32.627 36.301,33.318 35.023,33.772 34.653 C 34.031 34.443,34.050 34.450,33.950 34.717 C 33.880 34.904,33.902 34.977,34.009 34.911 C 34.103 34.853,34.137 34.671,34.085 34.506 C 33.971 34.146,35.590 32.602,35.941 32.736 C 36.063 32.783,36.145 32.730,36.123 32.619 C 36.009 32.039,39.861 30.628,42.167 30.406 C 43.658 30.263,44.216 29.731,43.529 29.109 C 43.200 28.812,42.576 28.788,40.917 29.009 M27.553 43.000 C 27.553 43.596,27.584 43.840,27.621 43.542 C 27.658 43.244,27.658 42.756,27.621 42.458 C 27.584 42.160,27.553 42.404,27.553 43.000 M59.953 43.456 C 59.915 43.709,59.882 43.542,59.881 43.083 C 59.880 42.625,59.911 42.418,59.951 42.623 C 59.990 42.828,59.991 43.203,59.953 43.456 M102.833 46.427 C 102.833 46.571,103.058 46.878,103.333 47.109 L 103.833 47.530 103.833 57.156 C 103.833 67.479,103.845 67.333,103.029 67.333 C 102.921 67.333,102.833 67.521,102.833 67.750 L 102.833 68.167 106.250 68.167 C 108.874 68.167,109.666 68.118,109.664 67.958 C 109.660 67.660,109.405 67.298,109.231 67.345 C 108.552 67.531,108.493 66.631,108.539 56.857 L 108.583 47.463 109.125 47.011 C 110.092 46.204,109.963 46.167,106.250 46.167 C 103.261 46.167,102.833 46.199,102.833 46.427 M201.225 49.245 C 201.501 49.963,201.058 50.000,192.213 50.000 C 184.876 50.000,183.833 50.031,183.833 50.250 C 183.833 50.387,183.908 50.500,184.000 50.500 C 184.821 50.500,184.834 50.627,184.831 59.042 C 184.828 66.580,184.781 67.384,184.339 67.438 C 184.244 67.449,184.092 67.468,184.000 67.479 C 183.908 67.491,183.833 67.651,183.833 67.836 C 183.833 68.170,183.905 68.172,192.500 68.128 C 197.674 68.101,201.167 68.145,201.167 68.236 C 201.167 68.320,201.218 68.338,201.281 68.275 C 201.343 68.212,201.490 68.387,201.606 68.664 C 202.132 69.915,202.333 69.315,202.333 66.500 C 202.333 63.618,202.268 63.437,201.534 64.292 L 201.140 64.750 195.237 64.798 L 189.333 64.845 189.333 62.589 L 189.333 60.333 192.833 60.333 C 195.056 60.333,196.333 60.394,196.333 60.500 C 196.333 60.592,196.414 60.667,196.512 60.667 C 196.759 60.667,197.174 61.104,197.048 61.230 C 196.991 61.287,197.144 61.333,197.389 61.333 L 197.833 61.333 197.833 58.833 C 197.833 56.068,197.646 55.693,196.833 56.833 L 196.477 57.333 192.905 57.333 L 189.333 57.333 189.333 55.333 L 189.333 53.333 194.725 53.333 C 200.725 53.333,201.312 53.413,201.186 54.208 C 201.176 54.277,201.279 54.333,201.417 54.333 C 201.628 54.333,201.667 53.926,201.667 51.667 C 201.667 49.329,201.634 49.000,201.399 49.000 C 201.231 49.000,201.166 49.092,201.225 49.245 M211.167 49.829 C 211.167 49.886,210.923 49.934,210.625 49.935 C 209.368 49.938,205.589 51.890,205.700 52.479 C 205.711 52.536,205.516 53.011,205.267 53.535 C 204.679 54.772,204.677 56.316,205.261 57.628 C 205.476 58.112,205.660 58.562,205.671 58.628 C 205.734 59.021,207.583 60.282,208.298 60.420 C 208.455 60.450,208.583 60.490,208.583 60.509 C 208.583 60.550,208.698 60.566,211.333 60.896 C 212.479 61.039,213.979 61.203,214.667 61.261 C 216.028 61.374,216.750 61.457,216.750 61.500 C 216.750 61.515,216.902 61.545,217.089 61.567 C 217.662 61.633,218.333 62.341,218.333 62.879 C 218.333 63.382,217.868 64.333,217.622 64.333 C 217.545 64.333,217.130 64.495,216.699 64.693 C 214.139 65.870,207.309 64.593,206.750 62.833 C 206.536 62.160,205.879 62.828,205.749 63.851 C 205.730 63.998,205.441 64.633,205.107 65.262 C 204.341 66.706,204.322 67.654,205.075 66.901 C 205.268 66.709,205.471 66.669,205.797 66.761 C 206.046 66.831,206.306 66.876,206.375 66.861 C 206.444 66.846,206.500 66.904,206.500 66.990 C 206.500 67.076,206.631 67.145,206.792 67.144 C 206.952 67.142,207.719 67.376,208.497 67.663 C 209.274 67.950,210.043 68.151,210.205 68.108 C 210.367 68.066,210.539 68.095,210.588 68.174 C 210.693 68.345,216.678 68.349,216.917 68.178 C 217.008 68.113,217.251 68.050,217.456 68.040 C 217.876 68.019,219.862 67.174,220.019 66.951 C 220.075 66.870,220.170 66.830,220.230 66.861 C 220.405 66.951,221.667 65.809,221.667 65.560 C 221.667 65.435,221.739 65.333,221.827 65.333 C 222.384 65.333,222.811 62.357,222.412 61.250 C 222.280 60.883,222.171 60.456,222.169 60.299 C 222.164 59.705,219.993 57.992,219.000 57.799 C 218.862 57.772,218.704 57.687,218.648 57.611 C 218.592 57.534,218.282 57.447,217.959 57.417 C 217.636 57.387,216.819 57.283,216.144 57.186 C 215.113 57.038,211.782 56.680,210.575 56.587 C 210.387 56.573,210.143 56.505,210.033 56.437 C 209.923 56.369,209.767 56.355,209.686 56.405 C 209.485 56.529,208.640 55.845,208.758 55.653 C 208.810 55.569,208.774 55.500,208.677 55.500 C 208.579 55.500,208.500 55.387,208.500 55.250 C 208.500 55.112,208.575 55.000,208.667 55.000 C 208.758 55.000,208.833 54.862,208.833 54.692 C 208.833 54.523,208.983 54.249,209.167 54.083 C 209.350 53.917,209.500 53.839,209.500 53.910 C 209.500 53.981,209.700 53.907,209.945 53.747 C 211.156 52.954,213.634 52.785,215.765 53.350 C 216.490 53.542,217.177 53.704,217.292 53.711 C 217.406 53.717,217.500 53.775,217.500 53.840 C 217.500 53.905,217.706 54.001,217.958 54.052 C 218.480 54.159,219.667 55.213,219.667 55.569 C 219.667 56.301,220.746 55.389,220.914 54.515 C 220.946 54.347,221.220 53.771,221.523 53.234 C 222.240 51.964,222.300 50.966,221.619 51.648 C 221.330 51.936,220.935 51.871,219.972 51.378 C 219.483 51.127,218.971 50.907,218.833 50.888 C 218.696 50.870,218.059 50.657,217.419 50.416 C 216.779 50.174,215.991 49.949,215.669 49.915 C 215.347 49.881,215.083 49.838,215.083 49.821 C 215.083 49.803,214.202 49.774,213.125 49.757 C 212.048 49.739,211.167 49.771,211.167 49.829 M231.416 49.806 C 231.376 49.846,231.083 49.902,230.764 49.930 C 230.120 49.988,227.975 50.795,227.815 51.039 C 227.759 51.125,227.658 51.181,227.592 51.164 C 227.274 51.082,225.931 52.501,225.537 53.333 C 225.032 54.402,224.925 56.533,225.333 57.417 C 225.460 57.692,225.568 57.992,225.573 58.083 C 225.603 58.676,228.256 60.671,228.672 60.413 C 228.761 60.358,228.833 60.398,228.833 60.500 C 228.833 60.602,228.894 60.649,228.967 60.604 C 229.041 60.558,229.397 60.585,229.759 60.664 C 230.288 60.780,234.297 61.233,236.348 61.409 C 236.585 61.430,236.866 61.500,236.973 61.566 C 237.079 61.632,237.237 61.643,237.323 61.590 C 237.560 61.443,238.667 62.488,238.667 62.859 C 238.667 63.253,238.179 64.235,238.049 64.104 C 237.997 64.053,237.768 64.159,237.538 64.339 C 236.126 65.450,231.828 65.438,229.211 64.317 C 228.818 64.148,228.459 64.008,228.415 64.005 C 228.370 64.002,228.269 64.000,228.191 64.000 C 227.944 64.000,227.000 63.008,227.000 62.749 C 227.000 61.960,225.664 63.756,225.574 64.667 C 225.560 64.804,225.350 65.308,225.108 65.786 C 224.562 66.862,224.550 67.062,225.042 66.896 C 225.579 66.716,226.223 66.690,226.417 66.841 C 226.711 67.071,229.535 67.998,229.675 67.912 C 229.749 67.866,229.859 67.907,229.919 68.004 C 229.979 68.101,230.165 68.137,230.333 68.083 C 230.501 68.030,230.683 68.058,230.737 68.146 C 230.870 68.361,236.956 68.373,237.089 68.158 C 237.144 68.068,237.261 68.039,237.349 68.093 C 237.524 68.201,238.894 67.732,239.412 67.386 C 239.593 67.265,239.868 67.167,240.023 67.167 C 240.178 67.167,240.517 66.942,240.777 66.667 C 241.037 66.392,241.347 66.167,241.468 66.167 C 241.588 66.167,241.643 66.096,241.590 66.010 C 241.536 65.924,241.588 65.793,241.705 65.719 C 242.324 65.323,242.713 64.249,242.750 62.833 C 242.785 61.456,242.360 59.943,241.887 59.762 C 241.739 59.705,241.668 59.610,241.728 59.550 C 241.872 59.406,241.169 58.667,240.888 58.667 C 240.766 58.667,240.667 58.602,240.667 58.523 C 240.667 58.315,238.697 57.461,238.500 57.584 C 238.408 57.640,238.333 57.599,238.333 57.492 C 238.333 57.385,238.230 57.337,238.104 57.386 C 237.978 57.434,237.578 57.407,237.216 57.326 C 236.686 57.207,233.526 56.846,230.788 56.592 C 230.534 56.568,230.278 56.500,230.219 56.441 C 230.160 56.382,229.967 56.333,229.791 56.333 C 229.366 56.333,228.846 55.690,228.839 55.156 C 228.808 52.782,236.439 52.312,239.032 54.528 C 239.335 54.787,239.634 54.999,239.695 55.000 C 239.757 55.000,239.856 55.225,239.917 55.500 C 240.096 56.315,240.580 56.068,240.763 55.068 C 240.781 54.968,240.991 54.577,241.229 54.200 C 241.467 53.823,241.682 53.417,241.706 53.299 C 241.730 53.180,241.787 53.046,241.833 53.000 C 242.581 52.251,242.510 51.399,241.725 51.696 C 241.276 51.865,241.117 51.834,240.416 51.442 C 239.977 51.197,239.422 50.962,239.183 50.919 C 238.943 50.877,238.270 50.649,237.686 50.412 C 237.103 50.174,236.524 50.019,236.401 50.066 C 236.278 50.113,236.131 50.077,236.074 49.985 C 236.017 49.893,235.846 49.830,235.694 49.845 C 235.541 49.859,235.379 49.853,235.333 49.829 C 235.185 49.753,231.490 49.732,231.416 49.806 M263.066 49.861 C 263.024 49.929,262.883 49.945,262.753 49.895 C 262.622 49.845,262.422 49.862,262.307 49.933 C 262.192 50.004,261.924 50.081,261.713 50.103 C 261.502 50.126,260.923 50.330,260.427 50.557 C 259.931 50.784,259.482 50.927,259.429 50.874 C 259.377 50.821,259.333 50.870,259.333 50.982 C 259.333 51.094,259.268 51.146,259.188 51.097 C 259.109 51.048,258.827 51.193,258.563 51.420 C 258.299 51.647,258.015 51.833,257.932 51.833 C 257.773 51.833,257.127 52.513,256.362 53.481 C 256.117 53.792,255.819 54.147,255.699 54.270 C 255.580 54.393,255.450 54.627,255.411 54.789 C 255.372 54.951,255.177 55.533,254.977 56.083 C 254.372 57.753,254.434 61.064,255.095 62.353 C 255.218 62.592,255.353 62.978,255.395 63.209 C 255.471 63.630,255.688 63.939,256.542 64.844 C 256.794 65.112,257.000 65.406,257.000 65.498 C 257.000 65.591,257.066 65.667,257.146 65.667 C 257.226 65.667,257.575 65.926,257.922 66.244 C 258.268 66.561,258.607 66.787,258.675 66.745 C 258.743 66.703,258.841 66.781,258.894 66.918 C 258.947 67.055,259.072 67.167,259.172 67.167 C 259.273 67.167,259.752 67.349,260.239 67.571 C 262.755 68.722,268.378 68.628,270.247 67.403 C 270.455 67.267,270.783 67.125,270.975 67.088 C 271.168 67.051,271.533 66.828,271.786 66.594 C 272.039 66.359,272.315 66.167,272.399 66.167 C 272.549 66.167,273.887 64.832,273.907 64.663 C 273.912 64.615,274.164 64.190,274.467 63.718 C 274.769 63.247,275.053 62.648,275.098 62.389 C 275.142 62.129,275.266 61.654,275.372 61.333 C 275.638 60.531,275.614 57.945,275.332 56.833 C 275.204 56.329,275.114 55.860,275.133 55.792 C 275.151 55.723,275.108 55.667,275.035 55.667 C 274.963 55.667,274.893 55.510,274.878 55.320 C 274.864 55.129,274.660 54.721,274.426 54.414 C 274.192 54.107,274.000 53.776,274.000 53.678 C 274.000 53.580,273.925 53.500,273.833 53.500 C 273.742 53.500,273.682 53.444,273.700 53.375 C 273.743 53.210,272.604 52.000,272.405 52.000 C 272.320 51.999,271.987 51.775,271.667 51.500 C 271.346 51.225,271.027 50.991,270.958 50.980 C 270.660 50.929,270.552 50.889,270.000 50.628 C 269.362 50.326,267.624 49.805,267.394 49.847 C 267.315 49.861,267.212 49.857,267.167 49.837 C 266.924 49.733,263.132 49.755,263.066 49.861 M308.910 49.812 C 308.874 49.849,308.583 49.902,308.264 49.930 C 307.945 49.959,307.205 50.174,306.621 50.408 C 306.036 50.642,305.496 50.833,305.422 50.833 C 305.347 50.833,304.891 51.171,304.408 51.584 C 302.740 53.009,302.283 54.815,302.888 57.586 C 302.960 57.915,303.696 59.000,303.847 59.000 C 303.931 59.000,304.003 59.094,304.006 59.208 C 304.014 59.495,305.422 60.364,305.924 60.393 C 306.149 60.406,306.333 60.457,306.333 60.506 C 306.333 60.555,306.465 60.601,306.625 60.607 C 306.785 60.614,307.554 60.703,308.333 60.806 C 309.112 60.909,310.800 61.114,312.083 61.261 C 313.367 61.409,314.594 61.555,314.811 61.586 C 315.402 61.669,316.167 62.480,316.167 63.023 C 316.167 63.489,315.474 64.419,315.275 64.220 C 315.215 64.160,315.167 64.189,315.167 64.285 C 315.167 65.196,310.082 65.427,307.633 64.627 C 306.926 64.396,306.308 64.248,306.258 64.298 C 306.208 64.348,306.167 64.310,306.167 64.213 C 306.167 64.116,305.982 63.990,305.756 63.933 C 305.266 63.810,304.500 63.084,304.500 62.742 C 304.500 61.942,302.993 64.239,302.910 65.167 C 302.906 65.212,302.737 65.616,302.535 66.063 C 302.093 67.039,302.097 66.943,302.489 67.045 C 302.683 67.096,302.850 67.030,302.907 66.881 C 302.976 66.701,303.130 66.663,303.457 66.745 C 303.706 66.808,303.987 66.872,304.080 66.888 C 304.174 66.904,304.287 66.957,304.333 67.007 C 304.514 67.202,307.825 68.192,307.979 68.096 C 308.070 68.040,308.188 68.066,308.241 68.152 C 308.375 68.369,314.667 68.362,314.667 68.145 C 314.667 68.055,314.743 68.027,314.835 68.085 C 315.026 68.203,316.695 67.616,317.226 67.244 C 317.417 67.110,317.707 67.000,317.870 67.000 C 318.033 67.000,318.167 66.932,318.167 66.850 C 318.167 66.767,318.394 66.556,318.671 66.380 C 319.373 65.935,320.448 64.038,320.266 63.564 C 320.217 63.437,320.250 63.333,320.339 63.333 C 320.427 63.333,320.500 62.996,320.500 62.583 C 320.500 62.146,320.423 61.833,320.316 61.833 C 320.214 61.833,320.173 61.723,320.225 61.587 C 320.383 61.176,319.682 59.823,318.915 59.057 C 318.252 58.396,316.396 57.499,315.529 57.419 C 315.146 57.384,314.702 57.317,314.541 57.269 C 314.258 57.185,308.960 56.622,308.208 56.596 C 308.002 56.589,307.833 56.519,307.833 56.441 C 307.833 56.362,307.715 56.343,307.570 56.399 C 307.279 56.510,306.333 55.673,306.334 55.304 C 306.335 55.059,307.153 53.665,307.161 53.894 C 307.164 53.973,307.344 53.922,307.560 53.781 C 308.882 52.915,311.999 52.773,314.083 53.484 C 314.633 53.672,315.204 53.827,315.352 53.829 C 315.819 53.836,317.496 55.219,317.405 55.522 C 317.303 55.860,317.836 56.096,318.026 55.797 C 318.100 55.680,318.163 55.496,318.164 55.390 C 318.166 55.284,318.355 54.909,318.586 54.557 C 318.816 54.205,319.007 53.842,319.010 53.750 C 319.013 53.658,319.239 53.186,319.513 52.701 C 319.787 52.216,319.967 51.747,319.912 51.660 C 319.782 51.449,319.333 51.454,319.333 51.667 C 319.333 51.965,318.674 51.843,317.786 51.380 C 317.308 51.131,316.800 50.917,316.657 50.904 C 316.514 50.892,315.891 50.679,315.272 50.432 C 314.653 50.184,313.851 49.970,313.490 49.955 C 313.129 49.941,312.833 49.881,312.833 49.822 C 312.833 49.709,309.023 49.699,308.910 49.812 M113.000 50.250 C 113.000 50.387,113.075 50.500,113.167 50.500 C 113.988 50.500,114.000 50.627,113.997 59.042 C 113.995 66.580,113.948 67.384,113.506 67.438 C 113.411 67.449,113.258 67.468,113.167 67.479 C 113.075 67.491,113.000 67.650,113.000 67.833 C 113.000 68.155,113.111 68.167,116.096 68.167 C 119.372 68.167,119.926 67.992,118.623 67.367 C 118.372 67.247,118.165 67.059,118.162 66.949 C 118.046 61.831,118.115 56.370,118.292 56.612 C 118.406 56.769,118.500 56.995,118.500 57.115 C 118.500 57.235,118.587 57.333,118.694 57.333 C 118.801 57.333,118.841 57.381,118.783 57.440 C 118.724 57.498,118.828 57.759,119.014 58.019 C 119.199 58.280,119.381 58.646,119.417 58.833 C 119.453 59.020,119.587 59.277,119.715 59.405 C 119.843 59.533,120.044 59.870,120.161 60.152 C 120.278 60.435,120.444 60.667,120.530 60.667 C 120.616 60.667,120.640 60.742,120.583 60.833 C 120.527 60.925,120.560 61.000,120.657 61.000 C 120.754 61.000,120.833 61.118,120.833 61.261 C 120.833 61.405,121.021 61.768,121.250 62.069 C 121.479 62.369,121.667 62.730,121.667 62.870 C 121.667 63.011,121.768 63.210,121.891 63.312 C 122.014 63.414,122.251 63.799,122.416 64.166 C 122.582 64.533,122.785 64.833,122.868 64.833 C 122.952 64.833,122.973 64.908,122.917 65.000 C 122.860 65.092,122.898 65.167,123.000 65.167 C 123.102 65.167,123.147 65.230,123.099 65.308 C 123.051 65.386,123.196 65.701,123.422 66.008 C 123.648 66.314,123.833 66.666,123.833 66.789 C 123.833 66.913,123.911 67.105,124.006 67.215 C 124.100 67.326,124.276 67.558,124.395 67.732 C 124.592 68.017,125.732 66.722,125.754 66.187 C 125.760 66.050,126.355 65.143,126.624 64.862 C 126.741 64.740,126.794 64.571,126.742 64.487 C 126.690 64.402,126.726 64.333,126.823 64.333 C 126.921 64.333,127.000 64.244,127.000 64.134 C 127.000 63.915,127.842 62.617,128.042 62.528 C 128.110 62.497,128.167 62.334,128.167 62.165 C 128.167 61.996,128.261 61.758,128.377 61.637 C 128.699 61.300,129.233 60.443,129.272 60.200 C 129.291 60.081,129.497 59.734,129.729 59.429 C 129.962 59.124,130.105 58.828,130.048 58.771 C 129.991 58.713,130.036 58.667,130.149 58.667 C 130.261 58.667,130.307 58.592,130.250 58.500 C 130.193 58.408,130.217 58.333,130.303 58.333 C 130.389 58.333,130.553 58.108,130.667 57.833 C 130.781 57.558,130.931 57.333,131.001 57.333 C 131.071 57.333,131.191 57.165,131.269 56.958 C 131.352 56.736,131.429 58.686,131.457 61.734 C 131.507 67.155,131.436 67.703,130.719 67.428 C 130.575 67.372,130.500 67.484,130.500 67.755 L 130.500 68.167 133.762 68.167 L 137.023 68.167 136.970 67.792 C 136.940 67.581,136.799 67.416,136.648 67.414 C 135.822 67.406,135.833 67.527,135.833 59.064 L 135.833 51.170 136.415 50.793 C 137.547 50.059,137.304 50.000,133.167 50.000 C 129.244 50.000,128.790 50.081,129.659 50.623 C 130.293 51.019,130.350 51.388,129.906 52.223 C 129.679 52.648,129.495 53.035,129.496 53.081 C 129.497 53.127,129.256 53.558,128.961 54.037 C 128.667 54.516,128.413 54.985,128.399 55.079 C 128.384 55.173,128.101 55.661,127.770 56.163 C 127.438 56.665,127.167 57.145,127.167 57.229 C 127.167 57.313,126.904 57.778,126.583 58.261 C 126.263 58.744,126.000 59.210,126.000 59.295 C 126.000 59.380,125.788 59.743,125.528 60.101 C 125.269 60.459,125.087 60.846,125.125 60.960 C 125.163 61.073,125.113 61.167,125.014 61.167 C 124.915 61.167,124.833 61.057,124.833 60.922 C 124.833 60.788,124.608 60.323,124.333 59.890 C 124.058 59.456,123.833 58.966,123.833 58.801 C 123.833 58.635,123.721 58.500,123.583 58.500 C 123.446 58.500,123.348 58.444,123.366 58.375 C 123.424 58.156,123.150 57.500,123.000 57.500 C 122.880 57.500,122.622 56.974,122.591 56.667 C 122.587 56.621,122.426 56.358,122.234 56.083 C 122.042 55.808,121.641 55.096,121.343 54.500 C 121.045 53.904,120.696 53.298,120.567 53.153 C 120.438 53.008,120.383 52.839,120.444 52.778 C 120.505 52.717,120.468 52.667,120.361 52.667 C 120.254 52.667,120.181 52.610,120.198 52.542 C 120.216 52.473,120.171 52.167,120.099 51.861 C 119.993 51.412,120.034 51.235,120.317 50.934 C 121.159 50.038,121.018 50.000,116.833 50.000 C 113.537 50.000,113.000 50.035,113.000 50.250 M140.000 50.183 C 140.000 50.284,140.225 50.576,140.500 50.833 L 141.000 51.300 140.998 58.942 C 140.995 66.969,140.974 67.333,140.498 67.333 C 140.226 67.333,140.000 67.642,140.000 68.014 C 140.000 68.101,141.355 68.167,143.167 68.167 C 144.979 68.167,146.333 68.101,146.333 68.014 C 146.333 67.706,146.128 67.337,146.001 67.416 C 145.569 67.683,145.333 66.308,145.333 63.516 L 145.333 60.667 149.375 60.637 C 151.598 60.620,153.660 60.623,153.958 60.644 C 154.256 60.664,154.500 60.605,154.500 60.512 C 154.500 60.420,154.611 60.387,154.748 60.439 C 154.884 60.491,155.502 60.289,156.123 59.989 C 156.743 59.690,157.300 59.438,157.361 59.431 C 157.464 59.418,157.606 59.267,158.384 58.335 C 158.761 57.884,159.032 57.187,158.908 56.986 C 158.856 56.902,158.884 56.833,158.971 56.833 C 159.059 56.833,159.119 56.210,159.106 55.417 C 159.094 54.637,159.030 54.000,158.964 54.000 C 158.898 54.000,158.885 53.893,158.935 53.762 C 159.060 53.437,157.985 51.797,157.350 51.346 C 157.066 51.143,156.832 51.039,156.831 51.114 C 156.829 51.189,156.773 51.173,156.706 51.079 C 156.519 50.818,154.853 50.348,153.479 50.170 C 151.692 49.938,140.000 49.949,140.000 50.183 M161.500 50.222 C 161.500 50.361,161.725 50.699,162.000 50.974 L 162.500 51.474 162.500 58.979 C 162.500 66.750,162.462 67.217,161.813 67.387 C 161.633 67.434,161.500 67.617,161.500 67.818 C 161.500 68.160,161.564 68.167,164.679 68.167 C 168.043 68.167,168.601 67.996,167.290 67.367 C 167.039 67.247,166.829 67.059,166.823 66.949 C 166.818 66.840,166.799 65.381,166.782 63.709 L 166.750 60.667 168.845 60.667 C 171.139 60.667,171.206 60.694,171.820 61.877 C 171.950 62.128,172.119 62.333,172.195 62.333 C 172.271 62.333,172.333 62.446,172.333 62.583 C 172.333 62.721,172.408 62.833,172.500 62.833 C 172.592 62.833,172.667 62.927,172.667 63.042 C 172.667 63.156,172.888 63.508,173.157 63.823 C 173.427 64.139,173.618 64.444,173.582 64.502 C 173.546 64.560,173.644 64.722,173.800 64.863 C 174.242 65.262,174.667 65.821,174.667 66.002 C 174.667 66.093,174.725 66.167,174.797 66.167 C 175.085 66.167,174.988 67.070,174.667 67.369 C 173.863 68.118,174.074 68.167,178.083 68.167 C 181.157 68.167,181.833 68.125,181.833 67.937 C 181.833 67.685,181.433 67.289,181.306 67.416 C 181.134 67.588,179.273 65.580,178.951 64.875 C 178.857 64.669,178.717 64.500,178.640 64.500 C 178.563 64.500,178.500 64.429,178.500 64.342 C 178.500 64.255,178.314 63.983,178.086 63.738 C 177.859 63.492,177.705 63.239,177.745 63.175 C 177.784 63.112,177.689 62.946,177.533 62.807 C 177.018 62.347,176.526 61.697,176.621 61.602 C 176.672 61.550,176.591 61.461,176.441 61.403 C 176.290 61.345,176.167 61.193,176.167 61.066 C 176.167 60.938,176.092 60.833,176.000 60.833 C 175.586 60.833,175.888 60.413,176.324 60.383 C 176.593 60.364,177.259 60.123,177.803 59.849 C 178.348 59.574,178.840 59.395,178.897 59.452 C 178.953 59.509,179.000 59.436,179.000 59.289 C 179.000 59.142,179.150 58.975,179.333 58.917 C 179.517 58.858,179.667 58.703,179.667 58.572 C 179.667 58.441,179.762 58.333,179.878 58.333 C 180.590 58.333,181.017 54.952,180.489 53.500 C 180.306 52.996,180.138 52.507,180.115 52.413 C 180.055 52.158,178.576 50.833,178.351 50.833 C 178.244 50.833,177.690 50.668,177.120 50.466 C 175.749 49.980,161.500 49.758,161.500 50.222 M245.500 50.333 C 245.500 50.517,245.582 50.667,245.682 50.667 C 246.461 50.667,246.489 50.952,246.494 59.053 C 246.500 66.663,246.454 67.333,245.929 67.333 C 245.715 67.333,245.500 67.675,245.500 68.014 C 245.500 68.101,246.822 68.167,248.583 68.167 C 252.010 68.167,252.171 68.104,251.167 67.167 L 250.667 66.700 250.667 59.087 L 250.667 51.474 251.167 50.974 C 252.102 50.039,252.000 50.000,248.583 50.000 C 245.611 50.000,245.500 50.012,245.500 50.333 M278.333 50.239 C 278.333 50.370,278.558 50.638,278.833 50.833 L 279.333 51.189 279.333 58.939 C 279.333 66.661,279.288 67.333,278.762 67.333 C 278.549 67.333,278.333 67.675,278.333 68.014 C 278.333 68.101,279.627 68.167,281.345 68.167 L 284.357 68.167 284.303 67.792 C 284.270 67.557,284.116 67.398,283.892 67.366 C 283.362 67.290,283.338 67.038,283.336 61.514 L 283.333 56.445 284.460 57.514 C 289.367 62.171,293.833 66.709,293.833 67.041 C 293.833 67.266,293.411 67.579,293.161 67.538 C 293.112 67.530,293.071 67.668,293.071 67.845 C 293.071 68.152,293.223 68.167,296.369 68.167 C 299.556 68.167,299.667 68.155,299.667 67.833 C 299.667 67.650,299.566 67.500,299.442 67.500 C 298.597 67.500,298.583 67.362,298.583 59.083 C 298.583 50.805,298.597 50.667,299.442 50.667 C 299.566 50.667,299.667 50.517,299.667 50.333 C 299.667 50.012,299.556 50.000,296.667 50.000 C 293.378 50.000,293.285 50.033,294.171 50.903 L 294.667 51.389 294.667 56.469 L 294.667 61.548 293.708 60.661 C 287.984 55.361,284.100 50.920,284.917 50.606 C 285.054 50.554,285.167 50.396,285.167 50.255 C 285.167 50.034,284.707 50.000,281.750 50.000 C 278.896 50.000,278.333 50.039,278.333 50.239 M266.854 53.419 C 267.255 53.558,267.696 53.720,267.833 53.778 C 267.971 53.836,268.185 53.904,268.309 53.930 C 268.433 53.955,268.644 54.131,268.777 54.321 C 268.910 54.511,269.095 54.667,269.188 54.667 C 269.407 54.667,269.833 55.094,269.833 55.313 C 269.833 55.407,269.936 55.543,270.062 55.617 C 270.342 55.780,271.021 57.090,270.893 57.218 C 270.842 57.269,270.856 57.402,270.925 57.514 C 271.218 57.987,271.238 60.667,270.948 60.667 C 270.874 60.667,270.858 60.739,270.913 60.828 C 271.034 61.022,270.461 62.187,270.096 62.490 C 269.951 62.610,269.833 62.811,269.833 62.937 C 269.833 63.063,269.777 63.167,269.708 63.167 C 269.640 63.168,269.341 63.395,269.046 63.672 C 268.750 63.949,268.450 64.180,268.379 64.186 C 268.308 64.192,267.912 64.358,267.500 64.556 C 266.279 65.143,263.569 65.080,262.333 64.437 C 261.379 63.941,259.432 62.078,259.594 61.817 C 259.645 61.734,259.594 61.667,259.482 61.667 C 259.370 61.667,259.322 61.622,259.376 61.568 C 259.430 61.514,259.368 61.167,259.237 60.797 C 258.950 59.982,258.930 58.326,259.198 57.417 C 259.306 57.050,259.380 56.694,259.364 56.625 C 259.347 56.556,259.413 56.500,259.510 56.500 C 259.607 56.500,259.641 56.427,259.587 56.339 C 259.532 56.250,259.968 55.706,260.556 55.130 C 261.683 54.026,262.167 53.605,262.167 53.727 C 262.167 53.768,262.523 53.662,262.958 53.492 C 263.944 53.107,265.849 53.071,266.854 53.419 M152.749 53.499 C 153.299 53.589,153.774 53.739,153.805 53.832 C 153.836 53.926,153.922 53.965,153.996 53.919 C 154.408 53.664,154.888 55.205,154.657 56.041 C 154.315 57.279,153.831 57.408,149.292 57.474 L 145.333 57.531 145.333 55.432 L 145.333 53.333 148.542 53.334 C 150.306 53.335,152.200 53.409,152.749 53.499 M174.167 53.486 C 175.517 53.709,175.551 53.721,175.848 54.083 C 176.644 55.056,176.457 56.439,175.452 57.014 C 174.772 57.404,174.624 57.418,170.750 57.471 L 166.750 57.526 166.801 55.430 L 166.852 53.333 170.051 53.334 C 171.811 53.335,173.662 53.403,174.167 53.486 M54.658 54.792 L 54.083 55.417 54.708 54.842 C 55.052 54.526,55.333 54.245,55.333 54.217 C 55.333 54.090,55.192 54.210,54.658 54.792 M57.573 57.208 L 57.083 57.750 57.625 57.260 C 57.923 56.991,58.167 56.748,58.167 56.719 C 58.167 56.590,58.029 56.703,57.573 57.208 M43.208 59.119 C 43.460 59.158,43.873 59.158,44.125 59.119 C 44.377 59.081,44.171 59.050,43.667 59.050 C 43.163 59.050,42.956 59.081,43.208 59.119 M0.840 65.625 C 0.851 65.812,1.485 66.938,1.493 66.783 C 1.497 66.710,1.390 66.438,1.257 66.180 C 1.123 65.921,1.060 65.662,1.118 65.604 C 1.175 65.547,1.135 65.500,1.028 65.500 C 0.921 65.500,0.836 65.556,0.840 65.625 M91.283 66.419 C 91.130 66.738,91.040 67.000,91.082 67.000 C 91.196 67.000,91.702 65.980,91.625 65.903 C 91.589 65.867,91.435 66.099,91.283 66.419 M28.375 69.125 C 38.252 69.149,54.415 69.149,64.292 69.125 C 74.169 69.101,66.088 69.082,46.333 69.082 C 26.579 69.082,18.498 69.101,28.375 69.125 M88.406 70.708 L 87.917 71.250 88.458 70.760 C 88.756 70.491,89.000 70.248,89.000 70.219 C 89.000 70.090,88.862 70.203,88.406 70.708 " stroke="none" fill="#000000" fill-rule="evenodd"></path><path id="path1" d="M34.130 0.923 C 30.939 1.713,28.448 3.372,26.382 6.083 C 25.827 6.811,24.578 9.300,24.704 9.426 C 24.747 9.469,25.029 8.960,25.331 8.294 C 27.137 4.310,31.886 0.870,35.625 0.837 C 35.831 0.835,36.000 0.758,36.000 0.667 C 36.000 0.455,36.046 0.448,34.130 0.923 M51.252 0.669 C 51.307 0.759,51.517 0.834,51.718 0.834 C 56.589 0.839,62.365 6.372,62.921 11.565 L 63.039 12.667 63.853 12.667 C 64.300 12.667,64.667 12.610,64.667 12.540 C 64.667 12.471,64.343 12.440,63.948 12.471 L 63.229 12.529 63.056 11.215 C 62.874 9.839,61.976 7.561,61.224 6.568 C 61.009 6.284,60.833 6.005,60.833 5.948 C 60.833 5.380,57.814 2.850,56.072 1.959 C 54.656 1.234,50.995 0.255,51.252 0.669 M35.193 4.864 C 34.795 4.953,34.503 5.059,34.544 5.100 C 34.585 5.140,34.991 5.094,35.447 4.996 C 37.067 4.648,51.906 4.872,53.016 5.261 C 55.603 6.167,59.093 9.816,58.600 11.101 C 58.549 11.233,58.613 11.333,58.748 11.333 C 59.352 11.333,58.013 8.798,56.703 7.461 C 54.113 4.819,53.372 4.662,43.594 4.685 C 39.319 4.694,35.596 4.774,35.193 4.864 M33.375 5.415 C 30.603 6.620,28.118 10.089,28.182 12.667 C 28.188 12.896,28.322 12.483,28.480 11.750 C 29.109 8.840,31.080 6.558,34.000 5.360 C 34.229 5.266,34.304 5.187,34.167 5.184 C 34.029 5.182,33.673 5.286,33.375 5.415 M66.161 6.462 C 65.520 6.749,64.660 7.728,64.677 8.152 C 64.683 8.307,64.756 8.245,64.853 8.003 C 65.187 7.166,66.033 6.551,67.167 6.323 C 67.726 6.210,67.730 6.205,67.250 6.202 C 66.975 6.200,66.485 6.317,66.161 6.462 M79.568 6.353 C 80.082 6.474,81.323 7.084,81.336 7.222 C 81.375 7.654,81.820 8.496,81.826 8.147 C 81.841 7.277,80.412 6.153,79.333 6.187 C 79.035 6.196,79.102 6.244,79.568 6.353 M24.250 11.167 C 24.095 12.503,24.662 12.405,16.500 12.506 L 9.250 12.596 8.045 13.048 C 6.129 13.766,4.732 14.786,3.079 16.670 C 2.587 17.230,1.317 19.689,1.004 20.687 C 0.494 22.315,0.619 22.258,1.233 20.583 C 2.545 17.000,4.790 14.548,7.911 13.290 L 9.250 12.750 16.703 12.699 L 24.155 12.648 24.262 12.032 C 24.320 11.694,24.428 11.135,24.500 10.792 C 24.572 10.448,24.572 10.167,24.499 10.167 C 24.426 10.167,24.314 10.617,24.250 11.167 M59.048 12.917 C 59.049 13.375,59.081 13.543,59.120 13.289 C 59.158 13.036,59.157 12.661,59.117 12.456 C 59.078 12.251,59.046 12.458,59.048 12.917 M81.833 12.501 C 81.833 12.571,82.190 12.678,82.625 12.738 C 85.516 13.137,88.331 15.031,90.178 17.820 C 90.447 18.225,90.667 18.468,90.667 18.359 C 90.667 17.656,88.311 15.089,86.748 14.089 C 85.439 13.252,81.833 12.087,81.833 12.501 M168.833 15.155 C 168.833 17.776,168.829 17.811,168.458 17.882 C 168.137 17.944,168.149 17.958,168.542 17.977 L 169.000 18.000 169.000 15.250 C 169.000 13.737,168.962 12.500,168.917 12.500 C 168.871 12.500,168.833 13.695,168.833 15.155 M28.052 14.083 C 28.053 14.633,28.084 14.838,28.121 14.539 C 28.158 14.239,28.157 13.789,28.119 13.539 C 28.081 13.288,28.051 13.533,28.052 14.083 M32.640 13.692 C 31.998 14.292,31.934 15.985,32.537 16.407 C 33.093 16.797,53.901 16.801,54.456 16.412 C 55.194 15.895,55.149 14.478,54.370 13.702 L 53.917 13.250 43.515 13.250 L 33.113 13.250 32.640 13.692 M188.877 13.286 C 189.131 13.325,189.506 13.324,189.711 13.284 C 189.916 13.244,189.708 13.213,189.250 13.214 C 188.792 13.216,188.624 13.248,188.877 13.286 M108.577 20.583 C 108.577 24.617,108.598 26.243,108.625 24.197 C 108.651 22.151,108.651 18.851,108.625 16.864 C 108.598 14.876,108.577 16.550,108.577 20.583 M54.324 13.824 C 54.926 14.426,54.963 15.680,54.394 16.249 C 54.005 16.638,32.984 16.627,32.595 16.238 C 32.182 15.825,32.244 14.366,32.696 13.886 L 33.058 13.500 43.529 13.500 C 53.678 13.500,54.010 13.510,54.324 13.824 M59.197 14.833 C 59.183 15.429,59.216 16.083,59.270 16.286 L 59.369 16.656 70.976 16.703 L 82.583 16.750 83.667 17.272 C 86.043 18.418,87.575 20.737,88.160 24.072 C 88.379 25.320,88.398 60.515,88.180 61.833 C 88.097 62.337,87.986 62.975,87.934 63.250 C 87.871 63.579,87.937 63.494,88.128 63.000 C 88.396 62.304,88.417 60.868,88.417 43.000 L 88.417 23.750 87.880 22.164 C 87.059 19.739,85.825 18.192,83.917 17.194 L 82.750 16.583 71.134 16.536 L 59.519 16.489 59.426 15.786 C 59.375 15.400,59.309 14.783,59.278 14.417 C 59.244 14.006,59.213 14.166,59.197 14.833 M151.910 22.583 C 151.910 26.708,151.932 28.372,151.958 26.280 C 151.985 24.189,151.985 20.814,151.958 18.780 C 151.932 16.747,151.910 18.458,151.910 22.583 M27.833 15.910 L 27.833 16.486 18.958 16.535 L 10.083 16.583 8.917 17.135 C 6.450 18.300,4.284 21.768,4.355 24.436 L 4.377 25.250 4.500 24.333 C 4.952 20.953,6.621 18.371,9.103 17.209 L 10.083 16.750 19.042 16.702 L 28.000 16.653 28.000 15.993 C 28.000 15.630,27.962 15.333,27.917 15.333 C 27.871 15.333,27.833 15.593,27.833 15.910 M135.239 17.053 C 135.192 17.174,135.179 18.055,135.209 19.011 L 135.263 20.750 135.298 18.877 L 135.333 17.005 140.792 16.958 L 146.250 16.912 140.786 16.873 C 136.392 16.841,135.306 16.876,135.239 17.053 M159.042 16.958 C 160.577 16.986,163.090 16.986,164.625 16.958 C 166.160 16.931,164.904 16.908,161.833 16.908 C 158.762 16.908,157.506 16.931,159.042 16.958 M173.872 17.500 C 173.872 17.821,173.906 17.952,173.948 17.792 C 173.990 17.631,173.990 17.369,173.948 17.208 C 173.906 17.048,173.872 17.179,173.872 17.500 M176.542 18.551 C 177.162 19.053,176.880 19.167,175.012 19.167 C 173.529 19.167,173.177 19.120,173.113 18.913 C 173.058 18.736,173.042 18.749,173.061 18.955 C 173.101 19.392,176.882 19.406,176.966 18.970 C 176.998 18.806,176.859 18.611,176.635 18.502 C 176.289 18.334,176.280 18.339,176.542 18.551 M180.879 19.167 C 180.879 19.579,180.911 19.748,180.951 19.542 C 180.991 19.335,180.991 18.998,180.951 18.792 C 180.911 18.585,180.879 18.754,180.879 19.167 M90.977 19.292 C 91.152 19.635,91.427 20.387,91.587 20.963 C 91.945 22.242,92.102 22.242,91.769 20.963 C 91.536 20.069,90.910 18.667,90.743 18.667 C 90.697 18.667,90.803 18.948,90.977 19.292 M126.669 18.958 C 126.677 19.324,126.995 19.566,126.997 19.208 C 126.999 19.002,126.925 18.833,126.833 18.833 C 126.742 18.833,126.668 18.890,126.669 18.958 M196.333 19.178 C 196.333 19.283,196.189 19.310,195.979 19.243 C 195.741 19.168,195.662 19.191,195.739 19.315 C 195.905 19.584,196.449 19.541,196.560 19.250 C 196.613 19.112,196.584 19.000,196.495 19.000 C 196.406 19.000,196.333 19.080,196.333 19.178 M143.292 19.777 C 143.581 19.894,143.588 24.678,143.300 24.967 C 143.144 25.122,143.163 25.167,143.383 25.167 C 143.639 25.167,143.667 24.894,143.667 22.417 C 143.667 19.904,143.642 19.668,143.375 19.680 C 143.201 19.688,143.167 19.727,143.292 19.777 M126.783 22.066 C 126.715 22.239,126.698 22.420,126.746 22.468 C 126.898 22.620,127.032 22.371,126.968 22.055 C 126.910 21.765,126.901 21.765,126.783 22.066 M0.292 23.313 C 0.099 24.181,0.131 24.829,0.348 24.456 C 0.442 24.295,0.496 23.845,0.468 23.456 L 0.417 22.750 0.292 23.313 M92.200 23.333 C 92.200 23.654,92.260 24.104,92.333 24.333 C 92.454 24.710,92.467 24.695,92.467 24.167 C 92.467 23.846,92.407 23.396,92.333 23.167 C 92.213 22.790,92.200 22.805,92.200 23.333 M41.711 23.453 C 41.964 23.491,42.339 23.490,42.544 23.451 C 42.749 23.411,42.542 23.380,42.083 23.381 C 41.625 23.382,41.457 23.415,41.711 23.453 M44.877 23.453 C 45.131 23.491,45.506 23.490,45.711 23.451 C 45.916 23.411,45.708 23.380,45.250 23.381 C 44.792 23.382,44.624 23.415,44.877 23.453 M39.339 23.767 C 37.439 24.277,36.645 24.533,36.722 24.611 C 36.766 24.654,37.350 24.527,38.020 24.327 C 38.691 24.128,39.692 23.866,40.245 23.745 C 40.859 23.612,41.055 23.526,40.750 23.524 C 40.475 23.523,39.840 23.632,39.339 23.767 M46.417 23.599 C 47.841 23.973,49.347 24.331,49.454 24.321 C 49.826 24.286,47.667 23.661,46.937 23.592 C 46.468 23.548,46.233 23.551,46.417 23.599 M135.239 24.051 C 135.193 24.171,135.177 25.165,135.203 26.260 L 135.250 28.250 141.042 28.253 L 146.833 28.257 141.083 28.209 L 135.333 28.162 135.333 26.165 L 135.333 24.167 138.843 24.167 C 141.141 24.167,142.317 24.109,142.250 24.000 C 142.083 23.730,135.344 23.779,135.239 24.051 M156.333 24.000 C 156.333 24.106,157.614 24.167,159.843 24.167 C 162.141 24.167,163.317 24.109,163.250 24.000 C 163.187 23.898,161.832 23.833,159.740 23.833 C 157.580 23.833,156.333 23.894,156.333 24.000 M50.083 24.500 C 50.140 24.592,50.276 24.667,50.385 24.668 C 51.494 24.676,55.397 27.210,57.427 29.240 C 60.998 32.812,62.665 36.389,63.219 41.667 C 63.276 42.210,63.282 42.202,63.307 41.542 C 63.399 39.089,61.766 34.305,60.067 32.053 C 59.847 31.761,59.667 31.473,59.667 31.412 C 59.667 31.184,56.538 27.963,55.947 27.583 C 55.805 27.492,55.177 27.064,54.552 26.634 C 53.012 25.572,49.797 24.037,50.083 24.500 M34.917 25.353 C 34.185 25.721,33.471 26.126,33.331 26.252 C 33.191 26.379,32.928 26.543,32.746 26.616 C 32.037 26.903,29.866 28.788,28.862 29.989 C 27.557 31.549,26.670 32.712,26.668 32.868 C 26.667 32.932,26.457 33.345,26.202 33.784 C 25.695 34.655,24.605 37.327,24.713 37.435 C 24.750 37.472,24.988 36.958,25.243 36.293 C 27.105 31.435,30.527 27.711,35.333 25.312 C 36.021 24.968,36.508 24.687,36.417 24.686 C 36.325 24.685,35.650 24.985,34.917 25.353 M164.046 24.888 C 164.126 25.128,164.667 25.253,164.667 25.032 C 164.667 24.944,164.512 24.832,164.324 24.783 C 164.106 24.726,164.005 24.764,164.046 24.888 M43.292 26.784 C 43.498 26.824,43.835 26.824,44.042 26.784 C 44.248 26.745,44.079 26.712,43.667 26.712 C 43.254 26.712,43.085 26.745,43.292 26.784 M40.000 27.166 C 35.518 28.138,31.662 31.066,29.255 35.324 C 28.706 36.295,27.927 38.316,28.052 38.441 C 28.089 38.478,28.244 38.150,28.396 37.712 C 29.469 34.643,32.251 31.072,34.717 29.597 C 36.374 28.606,38.610 27.610,39.208 27.597 C 39.551 27.590,39.833 27.534,39.833 27.473 C 39.833 27.380,40.870 27.172,42.500 26.938 C 42.729 26.906,42.579 26.874,42.167 26.868 C 41.754 26.863,40.779 26.997,40.000 27.166 M44.833 26.939 C 46.302 27.150,47.500 27.404,47.500 27.504 C 47.500 27.568,47.673 27.587,47.884 27.547 C 48.309 27.466,51.173 28.676,52.250 29.391 C 56.144 31.980,58.476 35.373,59.597 40.083 C 59.817 41.006,59.829 41.024,59.757 40.312 C 59.088 33.721,51.307 26.618,45.016 26.856 C 44.607 26.872,44.549 26.898,44.833 26.939 M147.954 27.301 C 148.097 27.392,148.173 28.223,148.208 30.090 L 148.259 32.750 148.296 29.958 C 148.330 27.396,148.309 27.167,148.042 27.169 C 147.839 27.171,147.812 27.211,147.954 27.301 M183.667 27.241 C 183.667 27.287,183.892 27.441,184.167 27.583 C 184.442 27.726,184.667 27.804,184.667 27.759 C 184.667 27.713,184.442 27.559,184.167 27.417 C 183.892 27.274,183.667 27.196,183.667 27.241 M123.864 28.719 C 123.572 29.020,123.333 29.333,123.333 29.416 C 123.333 29.498,123.597 29.277,123.920 28.925 C 124.642 28.136,124.595 27.964,123.864 28.719 M159.208 28.291 C 160.835 28.319,163.498 28.319,165.125 28.291 C 166.752 28.264,165.421 28.242,162.167 28.242 C 158.912 28.242,157.581 28.264,159.208 28.291 M40.250 28.918 C 38.785 29.247,36.911 29.946,36.114 30.459 C 35.730 30.706,35.232 31.008,35.006 31.130 C 34.191 31.568,32.660 33.127,31.859 34.333 C 31.524 34.837,31.194 35.275,31.125 35.306 C 31.056 35.336,31.000 35.460,31.000 35.582 C 31.000 35.703,30.813 36.166,30.585 36.610 C 29.679 38.371,29.002 42.182,29.479 42.833 C 30.238 43.872,31.073 43.328,31.225 41.696 C 31.560 38.081,33.555 34.429,36.145 32.688 C 37.547 31.745,40.064 30.777,40.769 30.909 C 41.079 30.967,41.333 30.947,41.333 30.864 C 41.333 30.781,41.801 30.671,42.372 30.619 C 43.166 30.547,43.480 30.439,43.705 30.161 C 44.723 28.903,43.028 28.294,40.250 28.918 M43.529 29.109 C 44.233 29.747,43.658 30.267,42.083 30.417 C 36.124 30.983,32.145 34.782,31.174 40.833 C 30.861 42.777,30.850 42.813,30.484 43.008 C 28.449 44.097,29.900 37.103,32.354 33.992 C 34.049 31.843,35.791 30.602,38.417 29.673 C 40.659 28.879,42.990 28.622,43.529 29.109 M168.000 31.661 C 168.000 31.749,168.169 31.910,168.375 32.018 C 168.748 32.214,168.748 32.213,168.433 31.858 C 168.080 31.460,168.000 31.424,168.000 31.661 M189.375 31.955 C 189.719 31.991,190.281 31.991,190.625 31.955 C 190.969 31.919,190.688 31.889,190.000 31.889 C 189.313 31.889,189.031 31.919,189.375 31.955 M24.462 37.993 C 24.346 38.403,24.415 38.640,24.597 38.459 C 24.650 38.406,24.667 38.187,24.635 37.973 L 24.576 37.583 24.462 37.993 M24.145 39.784 C 23.851 41.242,23.851 44.925,24.145 46.382 C 24.477 48.028,24.552 47.644,24.255 45.815 C 23.934 43.835,23.934 42.332,24.255 40.352 C 24.552 38.523,24.477 38.139,24.145 39.784 M27.644 39.533 C 27.370 40.600,27.364 45.825,27.636 46.583 C 27.786 47.000,27.796 46.930,27.700 46.167 C 27.515 44.715,27.594 40.327,27.819 39.525 C 27.931 39.126,27.988 38.766,27.946 38.724 C 27.905 38.683,27.769 39.046,27.644 39.533 M59.667 41.573 C 59.667 41.797,59.742 42.027,59.833 42.083 C 59.931 42.143,60.000 41.974,60.000 41.677 C 60.000 41.396,59.925 41.167,59.833 41.167 C 59.742 41.167,59.667 41.350,59.667 41.573 M59.881 43.083 C 59.882 43.542,59.915 43.709,59.953 43.456 C 59.991 43.203,59.990 42.828,59.951 42.623 C 59.911 42.418,59.880 42.625,59.881 43.083 M63.126 45.083 C 62.440 52.485,56.932 59.473,50.121 61.583 C 49.592 61.747,49.196 61.918,49.241 61.963 C 49.286 62.008,49.549 61.951,49.825 61.837 C 50.101 61.722,50.436 61.671,50.570 61.722 C 50.703 61.773,50.835 61.753,50.864 61.677 C 50.893 61.602,51.592 61.190,52.417 60.762 C 54.337 59.766,54.931 59.400,55.934 58.594 C 56.943 57.783,58.678 56.167,58.540 56.167 C 58.484 56.167,58.627 55.960,58.859 55.708 C 59.090 55.456,59.457 54.987,59.673 54.667 C 59.890 54.346,60.116 54.046,60.175 54.000 C 60.271 53.926,60.992 52.655,61.594 51.500 C 62.497 49.764,63.412 46.000,63.302 44.469 C 63.261 43.910,63.223 44.046,63.126 45.083 M59.778 44.111 C 59.603 44.286,59.648 45.000,59.833 45.000 C 59.925 45.000,60.000 44.775,60.000 44.500 C 60.000 43.982,59.966 43.923,59.778 44.111 M59.667 45.502 C 59.667 45.687,59.518 46.375,59.336 47.032 C 58.951 48.421,59.015 48.795,59.412 47.475 C 59.726 46.426,59.923 45.167,59.773 45.167 C 59.714 45.167,59.667 45.318,59.667 45.502 M24.345 47.792 C 24.391 48.280,24.644 48.553,24.655 48.125 C 24.661 47.873,24.592 47.667,24.500 47.667 C 24.408 47.667,24.339 47.723,24.345 47.792 M28.012 47.703 C 27.984 47.979,28.570 49.500,29.123 50.583 C 32.524 57.247,40.681 60.916,47.615 58.900 C 48.978 58.504,48.606 58.478,47.083 58.863 C 44.165 59.600,39.659 59.139,37.031 57.836 C 36.474 57.559,35.985 57.333,35.943 57.333 C 34.996 57.333,29.833 52.341,29.833 51.425 C 29.833 51.294,29.757 51.139,29.663 51.081 C 29.459 50.955,28.672 49.433,28.654 49.131 C 28.640 48.881,28.031 47.526,28.012 47.703 M108.578 57.167 C 108.578 62.254,108.599 64.335,108.625 61.792 C 108.651 59.248,108.651 55.085,108.625 52.542 C 108.599 49.998,108.578 52.079,108.578 57.167 M58.718 48.739 C 58.609 48.863,58.566 49.011,58.623 49.067 C 58.680 49.124,58.555 49.474,58.346 49.846 C 58.137 50.218,58.006 50.562,58.055 50.610 C 58.165 50.721,58.748 49.577,58.896 48.958 C 59.020 48.443,59.000 48.418,58.718 48.739 M24.667 48.731 C 24.667 48.999,25.767 51.636,26.170 52.333 C 26.408 52.746,26.650 53.208,26.707 53.360 C 27.139 54.509,30.486 58.085,32.125 59.149 C 32.561 59.432,33.067 59.782,33.250 59.928 C 33.731 60.311,36.667 61.669,36.983 61.655 C 37.130 61.648,36.987 61.546,36.667 61.428 C 31.680 59.589,27.389 55.294,25.331 50.083 C 24.822 48.795,24.667 48.478,24.667 48.731 M201.667 51.654 C 201.667 54.039,201.637 54.317,201.375 54.394 C 201.207 54.442,201.259 54.465,201.500 54.447 L 201.917 54.417 201.962 51.708 C 201.992 49.940,201.949 49.000,201.837 49.000 C 201.728 49.000,201.667 49.953,201.667 51.654 M212.711 49.786 C 212.964 49.825,213.339 49.824,213.544 49.784 C 213.749 49.744,213.542 49.713,213.083 49.714 C 212.625 49.716,212.457 49.748,212.711 49.786 M232.877 49.786 C 233.131 49.825,233.506 49.824,233.711 49.784 C 233.916 49.744,233.708 49.713,233.250 49.714 C 232.792 49.716,232.624 49.748,232.877 49.786 M264.625 49.787 C 264.923 49.824,265.410 49.824,265.708 49.787 C 266.006 49.750,265.762 49.720,265.167 49.720 C 264.571 49.720,264.327 49.750,264.625 49.787 M310.377 49.786 C 310.631 49.825,311.006 49.824,311.211 49.784 C 311.416 49.744,311.208 49.713,310.750 49.714 C 310.292 49.716,310.124 49.748,310.377 49.786 M152.875 50.115 C 153.035 50.157,153.298 50.157,153.458 50.115 C 153.619 50.073,153.487 50.039,153.167 50.039 C 152.846 50.039,152.715 50.073,152.875 50.115 M174.875 50.115 C 175.035 50.157,175.298 50.157,175.458 50.115 C 175.619 50.073,175.487 50.039,175.167 50.039 C 174.846 50.039,174.715 50.073,174.875 50.115 M251.667 50.343 C 251.667 50.532,251.742 50.640,251.833 50.583 C 251.925 50.527,252.000 50.372,252.000 50.240 C 252.000 50.108,251.925 50.000,251.833 50.000 C 251.742 50.000,251.667 50.154,251.667 50.343 M285.186 50.200 C 285.175 50.356,285.036 50.557,284.876 50.646 C 284.717 50.735,284.623 50.845,284.668 50.891 C 284.846 51.069,285.359 50.511,285.284 50.221 C 285.216 49.958,285.203 49.955,285.186 50.200 M57.700 51.033 C 57.590 51.143,57.500 51.325,57.500 51.438 C 57.500 51.551,57.406 51.742,57.292 51.863 C 57.177 51.984,56.869 52.383,56.607 52.750 C 56.065 53.508,53.191 56.333,52.962 56.333 C 52.879 56.333,52.572 56.514,52.281 56.734 C 51.989 56.955,51.038 57.480,50.167 57.902 C 49.296 58.324,48.771 58.622,49.000 58.565 C 51.831 57.858,56.264 54.207,57.728 51.375 C 58.027 50.797,58.020 50.713,57.700 51.033 M294.537 56.248 L 294.500 61.246 292.040 58.790 C 290.686 57.439,289.505 56.336,289.415 56.340 C 289.324 56.343,290.450 57.506,291.917 58.923 L 294.583 61.500 294.629 58.906 C 294.655 57.480,294.652 55.173,294.625 53.781 C 294.597 52.389,294.557 53.499,294.537 56.248 M162.410 59.083 C 162.410 63.300,162.432 65.001,162.458 62.864 C 162.485 60.726,162.485 57.276,162.458 55.197 C 162.432 53.118,162.410 54.867,162.410 59.083 M226.333 51.951 L 225.917 52.382 226.458 52.013 C 226.990 51.651,227.123 51.490,226.875 51.510 C 226.806 51.516,226.563 51.714,226.333 51.951 M250.743 59.083 C 250.744 63.300,250.765 65.001,250.792 62.864 C 250.818 60.726,250.818 57.276,250.791 55.197 C 250.765 53.118,250.743 54.867,250.743 59.083 M298.577 59.083 C 298.577 63.117,298.598 64.743,298.625 62.697 C 298.651 60.651,298.651 57.351,298.625 55.364 C 298.598 53.376,298.577 55.050,298.577 59.083 M145.333 55.417 L 145.333 57.500 148.958 57.462 L 152.583 57.424 149.042 57.375 L 145.500 57.327 145.500 55.417 L 145.500 53.507 148.875 53.458 L 152.250 53.409 148.792 53.371 L 145.333 53.333 145.333 55.417 M168.551 53.458 C 169.541 53.487,171.116 53.487,172.051 53.458 C 172.985 53.428,172.175 53.404,170.250 53.404 C 168.325 53.404,167.560 53.428,168.551 53.458 M192.042 53.458 C 193.577 53.486,196.090 53.486,197.625 53.458 C 199.160 53.431,197.904 53.408,194.833 53.408 C 191.762 53.408,190.506 53.431,192.042 53.458 M204.686 55.542 C 204.675 56.069,204.725 56.500,204.796 56.500 C 204.867 56.500,204.901 56.181,204.871 55.792 C 204.780 54.624,204.707 54.524,204.686 55.542 M208.500 55.250 C 208.500 55.387,208.575 55.500,208.667 55.500 C 208.758 55.500,208.833 55.387,208.833 55.250 C 208.833 55.112,208.758 55.000,208.667 55.000 C 208.575 55.000,208.500 55.112,208.500 55.250 M168.551 57.458 C 169.633 57.487,171.358 57.487,172.384 57.458 C 173.410 57.428,172.525 57.405,170.417 57.405 C 168.308 57.405,167.469 57.429,168.551 57.458 M271.000 59.083 C 271.000 59.526,271.053 59.836,271.117 59.772 C 271.240 59.649,271.206 58.484,271.076 58.354 C 271.034 58.312,271.000 58.640,271.000 59.083 M254.333 58.990 C 254.333 59.271,254.408 59.500,254.500 59.500 C 254.592 59.500,254.667 59.317,254.667 59.093 C 254.667 58.869,254.592 58.640,254.500 58.583 C 254.403 58.523,254.333 58.693,254.333 58.990 M287.247 60.301 C 288.254 61.327,289.101 62.167,289.130 62.167 C 289.309 62.167,288.704 61.524,287.167 60.079 L 285.417 58.435 287.247 60.301 M189.333 60.500 C 189.333 60.606,190.611 60.667,192.833 60.667 C 195.056 60.667,196.333 60.606,196.333 60.500 C 196.333 60.394,195.056 60.333,192.833 60.333 C 190.611 60.333,189.333 60.394,189.333 60.500 M145.402 63.583 C 145.402 65.233,145.427 65.886,145.458 65.033 C 145.488 64.181,145.488 62.831,145.457 62.033 C 145.427 61.236,145.402 61.933,145.402 63.583 M4.354 61.540 C 4.282 64.232,6.489 67.816,8.917 68.950 L 9.917 69.417 46.333 69.417 L 82.750 69.417 83.795 68.934 C 85.454 68.168,87.406 65.841,87.724 64.250 C 87.822 63.765,87.819 63.762,87.636 64.167 C 87.032 65.498,86.581 66.333,86.465 66.333 C 86.393 66.333,86.333 66.427,86.332 66.542 C 86.331 66.920,84.768 68.264,83.750 68.761 L 82.750 69.250 46.833 69.297 C 21.208 69.331,10.704 69.292,10.176 69.162 C 8.551 68.761,7.515 68.059,6.296 66.533 C 5.516 65.557,4.728 63.468,4.513 61.806 C 4.379 60.780,4.375 60.772,4.354 61.540 M0.198 61.750 C 0.212 62.642,0.459 63.401,0.469 62.583 C 0.473 62.217,0.412 61.767,0.333 61.583 C 0.212 61.301,0.191 61.327,0.198 61.750 M92.255 62.031 C 92.187 62.461,92.167 62.911,92.211 63.031 C 92.254 63.152,92.345 62.898,92.412 62.469 C 92.480 62.039,92.499 61.589,92.456 61.469 C 92.413 61.348,92.322 61.602,92.255 62.031 M197.083 61.500 C 197.140 61.592,197.332 61.667,197.510 61.667 C 197.688 61.667,197.833 61.592,197.833 61.500 C 197.833 61.408,197.641 61.333,197.407 61.333 C 197.165 61.333,197.025 61.405,197.083 61.500 M37.363 61.739 C 37.821 62.248,40.358 62.707,43.167 62.788 C 44.771 62.834,46.035 62.821,45.976 62.759 C 45.917 62.697,44.642 62.622,43.143 62.592 C 40.555 62.541,39.267 62.341,37.566 61.727 C 37.392 61.665,37.301 61.670,37.363 61.739 M242.734 62.583 C 242.755 63.562,243.000 63.562,243.000 62.583 C 243.000 62.171,242.937 61.833,242.859 61.833 C 242.781 61.833,242.725 62.171,242.734 62.583 M48.401 62.102 C 48.301 62.143,47.739 62.281,47.151 62.408 C 46.344 62.584,46.226 62.641,46.667 62.643 C 46.987 62.645,47.663 62.509,48.167 62.340 C 48.671 62.172,48.971 62.032,48.833 62.030 C 48.696 62.028,48.501 62.060,48.401 62.102 M201.663 63.921 C 201.547 64.060,201.501 64.223,201.560 64.282 C 201.618 64.341,201.667 64.299,201.667 64.189 C 201.667 64.079,201.835 63.921,202.042 63.839 C 202.295 63.737,202.329 63.684,202.145 63.677 C 201.996 63.671,201.779 63.781,201.663 63.921 M0.676 64.121 C 0.537 67.039,6.099 73.298,8.705 73.155 C 8.821 73.149,8.442 72.960,7.862 72.736 C 4.912 71.596,2.457 68.890,1.220 65.417 C 0.927 64.592,0.682 64.009,0.676 64.121 M91.590 65.037 C 90.675 68.332,87.907 71.511,84.931 72.682 C 84.281 72.938,83.845 73.152,83.962 73.157 C 85.868 73.245,89.672 69.938,90.997 67.042 C 91.301 66.377,91.618 65.833,91.701 65.833 C 91.785 65.833,91.808 65.760,91.752 65.671 C 91.697 65.581,91.735 65.198,91.837 64.820 C 91.939 64.442,91.990 64.101,91.951 64.062 C 91.912 64.023,91.749 64.462,91.590 65.037 M192.114 64.791 C 193.690 64.819,196.315 64.819,197.948 64.791 C 199.581 64.764,198.292 64.742,195.083 64.742 C 191.875 64.742,190.539 64.764,192.114 64.791 M256.333 64.798 C 256.333 64.881,256.494 65.091,256.691 65.266 C 257.046 65.581,257.047 65.581,256.857 65.218 C 256.644 64.812,256.333 64.563,256.333 64.798 M146.178 67.448 C 146.216 67.881,146.477 68.248,146.488 67.885 C 146.495 67.684,146.425 67.473,146.333 67.417 C 146.242 67.360,146.172 67.374,146.178 67.448 M161.333 67.750 C 161.333 67.979,161.362 68.167,161.397 68.167 C 161.432 68.167,161.497 67.979,161.541 67.750 C 161.585 67.521,161.556 67.333,161.477 67.333 C 161.398 67.333,161.333 67.521,161.333 67.750 M174.278 67.444 C 174.217 67.506,174.171 67.712,174.177 67.903 C 174.187 68.222,174.201 68.218,174.347 67.851 C 174.511 67.443,174.477 67.245,174.278 67.444 M181.724 67.745 C 181.830 67.971,181.942 68.081,181.974 67.989 C 182.056 67.752,181.873 67.333,181.688 67.333 C 181.600 67.333,181.616 67.515,181.724 67.745 M245.345 67.792 C 245.355 68.198,245.373 68.212,245.500 67.917 C 245.696 67.461,245.696 67.333,245.500 67.333 C 245.408 67.333,245.339 67.540,245.345 67.792 M251.628 67.762 C 251.683 68.048,251.765 68.135,251.877 68.023 C 252.062 67.838,251.929 67.333,251.695 67.333 C 251.613 67.333,251.583 67.526,251.628 67.762 M213.208 68.455 C 213.552 68.491,214.115 68.491,214.458 68.455 C 214.802 68.419,214.521 68.389,213.833 68.389 C 213.146 68.389,212.865 68.419,213.208 68.455 M233.463 68.456 C 233.855 68.491,234.455 68.490,234.796 68.454 C 235.137 68.419,234.817 68.390,234.083 68.390 C 233.350 68.391,233.071 68.420,233.463 68.456 M264.463 68.456 C 264.855 68.491,265.455 68.490,265.796 68.454 C 266.137 68.419,265.817 68.390,265.083 68.390 C 264.350 68.391,264.071 68.420,264.463 68.456 M310.955 68.454 C 311.250 68.490,311.775 68.491,312.121 68.455 C 312.467 68.419,312.225 68.389,311.583 68.388 C 310.942 68.387,310.659 68.417,310.955 68.454 M9.250 73.326 C 9.570 73.471,10.463 73.565,10.319 73.439 C 10.281 73.405,9.950 73.332,9.583 73.276 C 9.119 73.205,9.018 73.220,9.250 73.326 M82.750 73.333 C 82.296 73.449,82.289 73.461,82.667 73.469 C 82.896 73.473,83.233 73.412,83.417 73.333 C 83.828 73.157,83.444 73.157,82.750 73.333 " stroke="none" fill="#afafaf" fill-rule="evenodd"></path></g></svg>