 <svg version="1.0" xmlns="http://www.w3.org/2000/svg" width="400.000000pt" height="73.000000pt" viewBox="0 0 700.000000 184.000000" preserveAspectRatio="xMidYMid meet">
<metadata>
Created by potrace 1.12, written by Peter Selinger 2001-2015
</metadata>
<g transform="translate(0.000000,184.000000) scale(0.100000,-0.100000)" fill="#000000" stroke="none">
<path d="M694 1570 c-77 -18 -146 -84 -169 -162 l-12 -43 -145 -5 c-132 -5
-148 -7 -180 -29 -44 -31 -76 -76 -94 -137 -20 -69 -20 -700 0 -768 21 -69 60
-123 106 -146 39 -20 52 -20 729 -18 l689 3 39 31 c21 16 50 54 66 84 l27 54
0 375 c0 374 0 376 -24 426 -28 61 -64 95 -119 115 -39 14 -42 18 -45 58 -5
63 -24 72 -157 72 -132 0 -152 -9 -157 -70 -4 -53 -19 -49 -42 12 -24 66 -84
124 -149 143 -54 16 -303 20 -363 5z m379 -88 c46 -29 69 -71 77 -137 l5 -50
221 -5 c248 -6 246 -5 285 -82 18 -34 19 -63 19 -395 0 -327 -2 -362 -19 -399
-10 -22 -31 -50 -46 -62 l-28 -22 -665 0 c-649 0 -665 0 -697 20 -64 39 -65
47 -65 460 0 497 -13 472 255 480 l170 5 6 56 c9 82 44 126 118 150 14 4 94 7
176 6 138 -2 153 -4 188 -25z"></path>
<path d="M663 1325 c-3 -9 -1 -21 4 -26 5 -5 90 -8 204 -7 186 3 194 4 194 23
0 19 -8 20 -198 23 -173 2 -198 0 -204 -13z"></path>
<path d="M770 1151 c-129 -42 -216 -138 -247 -272 -13 -59 -13 -80 -3 -132 23
-120 97 -214 208 -265 47 -22 72 -26 143 -26 77 0 93 3 152 32 73 36 131 95
169 170 20 40 23 62 23 152 0 122 -14 158 -93 242 -71 76 -128 101 -237 105
-49 1 -101 -1 -115 -6z m242 -84 c54 -32 104 -86 129 -141 28 -62 26 -177 -5
-241 -43 -90 -135 -159 -230 -170 -103 -13 -219 37 -276 119 -97 141 -66 318
74 419 51 36 96 47 182 44 66 -3 89 -8 126 -30z"></path>
<path d="M782 1055 c-85 -27 -138 -85 -160 -177 -15 -60 -15 -68 1 -68 8 0 19
21 26 53 6 29 23 69 36 89 25 37 95 78 132 78 32 0 53 10 53 26 0 17 -30 17
-88 -1z"></path>
<path d="M1910 1526 c0 -8 10 -16 23 -18 22 -3 22 -4 22 -193 0 -187 0 -190
-22 -200 -47 -20 -19 -26 105 -23 109 3 134 6 175 27 70 34 99 83 105 175 7
120 -39 192 -147 231 -60 21 -261 21 -261 1z m256 -41 c58 -34 84 -90 84 -179
0 -125 -62 -190 -173 -184 l-52 3 -3 180 c-1 98 0 185 2 192 9 23 95 16 142
-12z"></path>
<path d="M2380 1530 c0 -6 11 -15 25 -20 l25 -10 -2 -187 c-3 -184 -3 -188
-25 -198 -41 -18 -24 -25 57 -25 81 0 98 7 58 25 -21 9 -23 18 -26 93 l-3 83
28 -3 c21 -2 39 -20 82 -85 31 -45 68 -89 83 -97 18 -11 52 -16 117 -16 89 0
111 9 72 29 -16 9 -18 16 -10 50 20 91 20 91 102 91 l73 0 23 -64 c23 -65 22
-86 -5 -86 -8 0 -14 -4 -14 -10 0 -6 32 -10 75 -10 79 0 90 8 52 33 -18 11
-42 66 -96 211 -40 108 -77 198 -81 201 -4 2 -14 -3 -22 -13 -15 -18 -22 -34
-94 -225 -61 -164 -69 -177 -102 -177 -36 1 -49 12 -111 101 l-53 77 41 41
c34 34 41 48 41 79 0 84 -65 121 -212 122 -61 0 -98 -4 -98 -10z m217 -42 c62
-69 17 -168 -77 -168 l-30 0 0 88 c0 49 3 92 7 95 16 17 80 6 100 -15z m397
-120 c14 -36 22 -68 19 -72 -4 -3 -28 -6 -55 -6 -54 0 -57 7 -34 62 8 18 19
46 25 62 7 16 14 27 16 24 2 -2 16 -34 29 -70z"></path>
<path d="M3330 1514 c-25 -14 -53 -35 -63 -47 -101 -121 -63 -304 75 -361 53
-22 162 -20 215 3 l41 19 -5 60 c-6 61 2 76 37 77 8 0 15 7 15 15 0 8 -6 15
-12 14 -7 -1 -44 -2 -83 -2 -66 -2 -96 -17 -47 -24 20 -3 22 -9 25 -64 4 -75
-8 -87 -83 -87 -43 0 -61 5 -89 26 -49 38 -76 100 -76 176 0 67 16 108 58 154
66 70 195 49 226 -36 3 -10 12 -17 19 -14 14 4 11 50 -6 87 -12 24 -17 25
-107 28 -86 2 -99 0 -140 -24z"></path>
<path d="M3853 1528 c-10 -14 -21 -41 -89 -221 -57 -152 -70 -176 -100 -187
-41 -16 -17 -30 51 -30 70 0 88 11 50 28 -28 13 -30 24 -14 73 21 61 35 70
107 67 l64 -3 19 -50 c23 -60 24 -84 4 -91 -34 -14 -11 -24 54 -24 73 0 99 13
58 29 -19 8 -36 43 -99 212 -42 112 -80 205 -85 206 -6 2 -14 -2 -20 -9z m47
-224 c0 -10 -14 -14 -48 -14 -27 0 -51 3 -54 6 -4 3 3 27 13 52 11 26 25 58
31 72 9 24 11 22 34 -39 13 -35 24 -70 24 -77z"></path>
<path d="M4105 1530 c-3 -6 1 -12 9 -15 9 -3 23 -7 31 -10 13 -4 15 -34 15
-190 l0 -185 -25 -10 c-49 -18 -27 -31 48 -28 41 2 71 7 70 13 -1 6 -10 12
-20 13 -36 7 -43 32 -42 146 0 61 3 129 7 151 l7 40 119 -150 c127 -160 175
-215 188 -215 4 0 9 93 10 207 l3 207 24 6 c14 3 26 11 29 18 3 10 -15 12 -75
10 -45 -2 -77 -7 -76 -13 1 -5 13 -12 25 -14 13 -1 26 -8 30 -15 11 -17 10
-266 -1 -266 -9 0 -166 188 -231 276 -23 31 -29 34 -82 34 -31 0 -60 -5 -63
-10z"></path>
<path d="M4786 1518 c-8 -13 -35 -77 -60 -143 -84 -226 -93 -244 -124 -256
-40 -15 -14 -29 54 -29 62 0 84 12 44 25 -26 8 -26 46 0 103 l19 43 68 -3 c67
-3 68 -4 85 -38 10 -20 21 -51 24 -69 6 -27 4 -33 -15 -38 -41 -10 -9 -23 59
-23 72 0 98 14 57 29 -19 8 -32 29 -57 93 -17 46 -53 138 -78 205 -26 68 -50
123 -54 123 -4 0 -14 -10 -22 -22z m29 -148 c13 -34 22 -67 19 -71 -7 -12 -91
-12 -98 0 -5 8 46 143 52 137 1 -2 13 -31 27 -66z"></path>
<path d="M3265 715 c-4 -13 -19 -87 -19 -97 -2 -23 22 -5 39 28 20 38 21 39
75 39 l55 0 0 -190 c0 -187 0 -190 -22 -200 -41 -18 -24 -25 57 -25 82 0 99 8
55 28 l-25 12 2 187 3 188 55 0 c54 0 55 0 78 -43 26 -47 51 -46 32 2 -5 15
-10 39 -10 54 l0 27 -186 0 c-116 0 -188 -4 -189 -10z"></path>
<path d="M1922 708 c3 -7 14 -14 26 -16 22 -3 22 -6 22 -198 l0 -194 -25 -6
c-50 -12 -23 -24 55 -24 47 0 80 4 80 10 0 6 -4 10 -9 10 -5 0 -17 7 -25 16
-13 13 -16 44 -16 184 0 93 3 175 6 184 8 21 72 21 100 1 48 -33 55 -117 15
-167 -15 -17 -28 -22 -60 -22 -52 2 -50 -20 1 -24 81 -7 148 53 148 133 0 50
-20 79 -70 105 -32 16 -59 20 -145 20 -81 0 -106 -3 -103 -12z"></path>
<path d="M2285 710 c-3 -6 1 -12 9 -15 9 -3 23 -7 31 -10 13 -4 15 -31 13
-192 -3 -186 -3 -187 -26 -193 -51 -11 -24 -25 56 -28 84 -3 108 9 57 28 -24
9 -25 13 -25 100 l0 91 103 -3 102 -3 0 -90 c0 -85 -1 -89 -23 -95 -51 -11
-24 -25 56 -28 67 -2 82 0 82 12 0 8 -10 16 -22 18 -23 3 -23 4 -23 193 l0
189 23 6 c50 11 19 25 -58 25 -77 0 -108 -14 -58 -25 22 -6 23 -11 23 -85 l0
-80 -102 -3 -103 -3 0 81 c0 77 1 81 25 90 14 5 25 14 25 20 0 13 -157 13
-165 0z"></path>
<path d="M2905 703 c-168 -88 -174 -334 -10 -413 190 -92 383 110 291 305 -27
58 -57 88 -108 110 -48 19 -134 19 -173 -2z m158 -35 c73 -52 101 -209 54
-299 -39 -75 -122 -99 -190 -54 -35 22 -79 114 -85 175 -8 87 43 188 103 203
33 9 87 -3 118 -25z"></path>
<path d="M3798 690 c-148 -93 -140 -322 15 -402 53 -27 145 -28 185 -3 134 85
167 226 82 350 -60 87 -190 113 -282 55z m174 -18 c15 -9 39 -38 55 -66 24
-43 28 -62 28 -126 0 -91 -28 -150 -83 -176 -98 -46 -198 40 -209 179 -7 79 9
138 47 176 44 44 101 48 162 13z"></path>
<path d="M4330 704 c-84 -36 -134 -115 -134 -214 0 -95 43 -162 129 -201 52
-24 155 -25 212 -2 l42 18 3 70 c3 64 5 70 26 73 13 2 22 8 20 14 -2 5 -39 10
-83 11 -63 0 -80 -3 -80 -14 0 -9 9 -13 22 -12 27 3 36 -22 31 -88 -3 -41 -5
-45 -41 -56 -108 -36 -217 64 -217 199 0 57 36 133 78 165 68 51 171 33 207
-37 21 -40 38 -29 29 18 -13 71 -15 72 -117 72 -59 -1 -104 -6 -127 -16z"></path>
<path d="M4675 710 c-3 -6 5 -14 20 -20 l25 -10 -2 -192 c-3 -192 -3 -193 -26
-196 -49 -7 -7 -22 63 -22 70 0 112 15 63 22 -21 3 -23 9 -26 82 -2 44 -1 85
2 92 11 28 47 -2 98 -79 70 -106 89 -117 206 -117 50 0 92 3 92 8 0 4 -9 13
-20 20 -25 15 -25 45 0 100 l19 42 70 0 70 0 20 -55 c25 -66 26 -81 6 -89 -36
-14 -11 -26 54 -26 73 0 99 14 58 29 -18 7 -31 26 -45 63 -46 123 -113 295
-127 326 -19 42 -35 33 -60 -36 -124 -329 -143 -366 -185 -355 -23 6 -72 62
-119 137 l-31 50 34 28 c79 65 61 160 -37 197 -36 14 -214 14 -222 1z m220
-45 c19 -18 25 -35 25 -66 0 -53 -44 -99 -96 -99 -19 0 -34 5 -35 10 0 6 -1
42 -1 80 0 39 1 77 1 85 2 26 77 19 106 -10z m394 -115 c12 -30 21 -61 21 -67
0 -14 -95 -19 -103 -5 -8 12 45 144 54 135 4 -4 17 -33 28 -63z"></path>
<path d="M5512 708 c3 -7 14 -14 26 -16 22 -3 22 -6 22 -193 l0 -189 -25 -12
c-44 -20 -27 -28 55 -28 81 0 103 12 55 30 l-25 10 2 187 3 188 38 3 c69 6
116 -51 103 -122 -10 -53 -36 -79 -82 -80 -50 -2 -51 -20 -2 -24 144 -12 205
173 78 238 -32 16 -59 20 -145 20 -81 0 -106 -3 -103 -12z"></path>
<path d="M5875 710 c-3 -6 1 -12 9 -15 9 -3 23 -7 31 -10 13 -4 15 -31 13
-192 -3 -186 -3 -187 -26 -193 -51 -11 -24 -25 56 -28 84 -3 108 9 57 28 -25
10 -26 12 -23 97 l3 88 100 0 100 0 0 -90 c0 -85 -1 -89 -23 -95 -51 -11 -24
-25 56 -28 84 -3 108 9 57 28 l-25 10 0 189 c0 187 0 190 22 193 12 2 23 9 26
16 3 10 -15 12 -80 10 -80 -3 -107 -16 -56 -28 22 -6 23 -11 23 -85 l0 -80
-102 -3 -103 -3 0 81 c0 77 1 81 25 90 14 5 25 14 25 20 0 13 -157 13 -165 0z"></path>
<path d="M6330 710 c0 -6 11 -15 24 -20 30 -11 61 -53 115 -152 40 -73 42 -79
39 -155 -3 -70 -5 -79 -25 -88 -41 -18 -24 -25 57 -25 81 0 98 7 58 25 -21 9
-23 18 -25 90 l-3 80 58 104 c55 100 65 113 105 125 10 3 15 10 12 16 -9 14
-145 13 -145 -1 0 -6 9 -13 20 -16 28 -7 25 -27 -19 -113 l-38 -74 -52 79
c-28 44 -51 85 -51 91 0 7 9 14 20 17 11 3 20 10 20 16 0 7 -30 11 -85 11 -51
0 -85 -4 -85 -10z"></path>
</g>
</svg>