<svg id="svg" version="1.1" width="400" height="399.5861355406105" viewBox="0 0 400 399.5861355406105" xmlns="http://www.w3.org/2000/svg" xmlns:xlink="http://www.w3.org/1999/xlink" ><g id="svgg"><path id="path0" d="M18.210 199.793 L 18.210 381.376 200.000 381.376 L 381.790 381.376 381.790 199.793 L 381.790 18.210 200.000 18.210 L 18.210 18.210 18.210 199.793 M376.617 199.793 L 376.617 376.203 200.000 376.203 L 23.383 376.203 23.383 199.793 L 23.383 23.383 200.000 23.383 L 376.617 23.383 376.617 199.793 M104.295 70.081 C 100.796 71.306,99.459 73.737,99.571 78.674 C 99.649 82.108,99.951 83.000,101.595 84.644 C 102.112 85.161,103.001 85.813,103.570 86.093 L 104.604 86.601 116.710 86.723 C 129.691 86.854,130.268 86.895,135.500 88.068 C 166.926 95.113,187.659 125.990,182.717 158.387 C 179.065 182.325,161.444 202.463,138.690 208.704 C 134.840 209.760,135.383 209.732,119.801 209.645 L 105.406 209.564 104.052 210.210 C 97.473 213.350,97.497 227.001,104.086 230.092 L 105.225 230.626 114.123 230.626 C 122.458 230.626,130.658 230.322,133.264 229.917 C 136.309 229.443,138.758 228.986,138.852 228.873 C 138.908 228.804,139.863 228.573,140.973 228.358 C 142.082 228.144,142.990 227.891,142.990 227.797 C 142.990 227.703,143.186 227.625,143.426 227.625 C 143.890 227.625,148.403 226.158,148.577 225.950 C 148.634 225.882,149.219 225.659,149.877 225.454 C 150.535 225.249,151.121 225.005,151.179 224.911 C 151.237 224.817,151.653 224.640,152.104 224.519 C 152.554 224.398,152.923 224.218,152.923 224.119 C 152.923 224.020,153.435 223.778,154.061 223.581 C 154.687 223.384,155.199 223.150,155.199 223.061 C 155.199 222.971,155.526 222.790,155.925 222.658 C 156.325 222.527,156.771 222.310,156.917 222.177 C 157.064 222.044,157.552 221.740,158.002 221.502 C 159.658 220.627,160.254 220.271,160.658 219.917 C 160.885 219.718,161.193 219.555,161.343 219.555 C 161.492 219.555,161.614 219.473,161.614 219.372 C 161.614 219.271,161.927 219.040,162.310 218.858 C 162.692 218.677,163.123 218.387,163.266 218.214 C 163.410 218.041,163.614 217.900,163.721 217.900 C 163.959 217.900,165.586 216.653,165.815 216.296 C 165.906 216.154,166.074 216.037,166.189 216.037 C 166.394 216.037,167.652 215.098,168.547 214.278 C 168.795 214.051,169.497 213.445,170.108 212.933 C 171.426 211.827,176.099 207.281,176.099 207.105 C 176.099 207.038,176.570 206.489,177.145 205.886 C 177.720 205.283,178.488 204.420,178.852 203.968 C 179.216 203.515,179.751 202.857,180.042 202.504 C 180.332 202.151,181.009 201.257,181.547 200.517 C 182.084 199.778,182.699 198.964,182.914 198.710 C 183.128 198.456,183.428 197.968,183.580 197.624 C 183.732 197.281,183.925 196.999,184.009 196.999 C 184.093 196.999,184.347 196.635,184.575 196.189 C 184.802 195.743,185.247 194.975,185.562 194.482 C 186.571 192.905,186.645 192.777,187.223 191.619 C 187.535 190.993,187.850 190.435,187.921 190.378 C 187.993 190.321,188.535 189.250,189.125 187.998 C 189.716 186.746,190.368 185.396,190.574 184.997 C 190.780 184.599,191.067 183.901,191.212 183.445 C 191.356 182.990,191.591 182.431,191.732 182.204 C 191.874 181.976,192.203 181.092,192.464 180.238 C 192.726 179.384,192.998 178.639,193.069 178.583 C 193.140 178.526,193.417 177.688,193.684 176.720 C 193.951 175.753,194.239 174.868,194.323 174.754 C 194.408 174.640,194.684 173.570,194.936 172.375 C 195.189 171.180,195.468 170.109,195.556 169.995 C 195.645 169.881,195.924 168.438,196.177 166.787 C 196.429 165.137,196.714 163.601,196.810 163.373 C 197.777 161.068,197.775 139.154,196.807 136.886 C 196.710 136.658,196.427 135.169,196.179 133.578 C 195.931 131.986,195.655 130.589,195.566 130.474 C 195.478 130.358,195.244 129.426,195.046 128.401 C 194.849 127.377,194.562 126.260,194.409 125.918 C 194.256 125.577,193.928 124.553,193.680 123.642 C 193.433 122.732,193.159 121.893,193.071 121.780 C 192.984 121.666,192.696 120.874,192.432 120.021 C 192.168 119.167,191.785 118.189,191.580 117.848 C 191.375 117.506,191.207 117.077,191.206 116.894 C 191.206 116.711,190.931 116.012,190.596 115.342 C 190.261 114.672,189.552 113.192,189.020 112.054 C 188.489 110.916,187.995 109.938,187.922 109.881 C 187.850 109.824,187.572 109.359,187.304 108.846 C 186.604 107.508,185.604 105.776,184.946 104.764 C 184.633 104.282,184.377 103.793,184.377 103.677 C 184.377 103.561,184.292 103.466,184.189 103.466 C 184.086 103.466,183.743 103.024,183.427 102.483 C 183.111 101.943,182.752 101.387,182.631 101.249 C 182.510 101.111,182.038 100.478,181.583 99.842 C 179.166 96.468,174.216 91.001,171.000 88.153 C 169.394 86.731,167.802 85.393,167.322 85.062 C 167.085 84.898,166.816 84.642,166.725 84.493 C 166.634 84.343,166.460 84.221,166.339 84.221 C 166.217 84.221,165.780 83.939,165.366 83.593 C 164.257 82.667,164.218 82.639,163.509 82.272 C 163.150 82.087,162.856 81.855,162.856 81.757 C 162.856 81.659,162.693 81.525,162.494 81.459 C 162.294 81.393,161.247 80.773,160.166 80.082 C 159.084 79.391,157.850 78.675,157.424 78.491 C 156.997 78.308,156.648 78.088,156.648 78.003 C 156.648 77.918,156.182 77.681,155.613 77.476 C 155.044 77.271,154.578 77.029,154.578 76.938 C 154.578 76.847,154.472 76.772,154.341 76.772 C 154.211 76.772,153.427 76.446,152.599 76.048 C 151.770 75.649,150.954 75.323,150.784 75.323 C 150.613 75.323,150.443 75.250,150.405 75.160 C 150.325 74.971,148.370 74.208,146.715 73.720 C 146.089 73.536,145.530 73.323,145.473 73.247 C 145.416 73.172,144.671 72.944,143.818 72.740 C 142.964 72.536,142.173 72.298,142.059 72.211 C 141.945 72.123,141.247 71.942,140.507 71.808 C 139.767 71.674,138.976 71.481,138.748 71.380 C 138.278 71.171,134.248 70.564,133.331 70.564 C 132.998 70.564,132.634 70.471,132.520 70.358 C 131.908 69.746,105.981 69.491,104.295 70.081 M259.494 70.081 C 255.995 71.306,254.658 73.737,254.770 78.674 C 254.862 82.748,255.907 84.686,258.769 86.093 L 259.803 86.601 271.909 86.723 C 284.890 86.854,285.467 86.895,290.699 88.068 C 322.125 95.113,342.858 125.990,337.916 158.387 C 334.264 182.325,316.643 202.463,293.889 208.704 C 290.039 209.760,290.583 209.732,275.000 209.645 L 260.606 209.564 259.251 210.210 C 252.673 213.350,252.696 227.001,259.286 230.092 L 260.424 230.626 269.322 230.626 C 277.658 230.626,285.857 230.322,288.464 229.917 C 291.508 229.443,293.957 228.986,294.051 228.873 C 294.108 228.804,295.062 228.573,296.172 228.358 C 297.281 228.144,298.189 227.891,298.189 227.797 C 298.189 227.703,298.385 227.625,298.625 227.625 C 299.089 227.625,303.602 226.158,303.777 225.950 C 303.833 225.882,304.418 225.659,305.076 225.454 C 305.734 225.249,306.320 225.005,306.378 224.911 C 306.437 224.817,306.853 224.640,307.303 224.519 C 307.754 224.398,308.122 224.218,308.122 224.119 C 308.122 224.020,308.634 223.778,309.260 223.581 C 309.886 223.384,310.398 223.150,310.398 223.061 C 310.398 222.971,310.725 222.790,311.124 222.658 C 311.524 222.527,311.970 222.310,312.117 222.177 C 312.263 222.044,312.751 221.740,313.201 221.502 C 314.857 220.627,315.453 220.271,315.857 219.917 C 316.084 219.718,316.393 219.555,316.542 219.555 C 316.691 219.555,316.813 219.473,316.813 219.372 C 316.813 219.271,317.126 219.040,317.509 218.858 C 317.892 218.677,318.322 218.387,318.466 218.214 C 318.609 218.041,318.813 217.900,318.920 217.900 C 319.158 217.900,320.786 216.653,321.014 216.296 C 321.105 216.154,321.273 216.037,321.388 216.037 C 321.593 216.037,322.851 215.098,323.746 214.278 C 323.994 214.051,324.697 213.445,325.307 212.933 C 326.625 211.827,331.298 207.281,331.298 207.105 C 331.298 207.038,331.769 206.489,332.344 205.886 C 332.919 205.283,333.687 204.420,334.051 203.968 C 334.415 203.515,334.950 202.857,335.241 202.504 C 335.531 202.151,336.208 201.257,336.746 200.517 C 337.283 199.778,337.899 198.964,338.113 198.710 C 338.328 198.456,338.628 197.968,338.780 197.624 C 338.932 197.281,339.125 196.999,339.208 196.999 C 339.292 196.999,339.547 196.635,339.774 196.189 C 340.002 195.743,340.446 194.975,340.761 194.482 C 341.770 192.905,341.844 192.777,342.422 191.619 C 342.735 190.993,343.049 190.435,343.120 190.378 C 343.192 190.321,343.734 189.250,344.325 187.998 C 344.915 186.746,345.567 185.396,345.773 184.997 C 345.979 184.599,346.266 183.901,346.411 183.445 C 346.556 182.990,346.790 182.431,346.931 182.204 C 347.073 181.976,347.402 181.092,347.664 180.238 C 347.925 179.384,348.197 178.639,348.268 178.583 C 348.339 178.526,348.616 177.688,348.883 176.720 C 349.150 175.753,349.438 174.868,349.522 174.754 C 349.607 174.640,349.883 173.570,350.136 172.375 C 350.388 171.180,350.667 170.109,350.756 169.995 C 350.844 169.881,351.123 168.438,351.376 166.787 C 351.628 165.137,351.913 163.601,352.009 163.373 C 352.976 161.068,352.974 139.154,352.006 136.886 C 351.909 136.658,351.626 135.169,351.378 133.578 C 351.130 131.986,350.854 130.589,350.765 130.474 C 350.677 130.358,350.443 129.426,350.245 128.401 C 350.048 127.377,349.761 126.260,349.608 125.918 C 349.455 125.577,349.127 124.553,348.879 123.642 C 348.632 122.732,348.358 121.893,348.270 121.780 C 348.183 121.666,347.895 120.874,347.631 120.021 C 347.367 119.167,346.984 118.189,346.779 117.848 C 346.574 117.506,346.406 117.077,346.405 116.894 C 346.405 116.711,346.130 116.012,345.795 115.342 C 345.460 114.672,344.751 113.192,344.220 112.054 C 343.688 110.916,343.194 109.938,343.121 109.881 C 343.049 109.824,342.771 109.359,342.503 108.846 C 341.803 107.508,340.803 105.776,340.145 104.764 C 339.832 104.282,339.576 103.793,339.576 103.677 C 339.576 103.561,339.492 103.466,339.389 103.466 C 339.286 103.466,338.942 103.024,338.626 102.483 C 338.310 101.943,337.952 101.387,337.830 101.249 C 337.709 101.111,337.237 100.478,336.782 99.842 C 334.366 96.468,329.416 91.001,326.199 88.153 C 324.593 86.731,323.001 85.393,322.522 85.062 C 322.284 84.898,322.016 84.642,321.925 84.493 C 321.834 84.343,321.660 84.221,321.538 84.221 C 321.416 84.221,320.979 83.939,320.565 83.593 C 319.457 82.667,319.418 82.639,318.708 82.272 C 318.349 82.087,318.055 81.855,318.055 81.757 C 318.055 81.659,317.892 81.525,317.693 81.459 C 317.494 81.393,316.446 80.773,315.365 80.082 C 314.283 79.391,313.050 78.675,312.623 78.491 C 312.196 78.308,311.847 78.088,311.847 78.003 C 311.847 77.918,311.381 77.681,310.812 77.476 C 310.243 77.271,309.778 77.029,309.778 76.938 C 309.778 76.847,309.671 76.772,309.541 76.772 C 309.410 76.772,308.626 76.446,307.798 76.048 C 306.970 75.649,306.153 75.323,305.983 75.323 C 305.813 75.323,305.642 75.250,305.604 75.160 C 305.525 74.971,303.569 74.208,301.914 73.720 C 301.288 73.536,300.729 73.323,300.673 73.247 C 300.616 73.172,299.871 72.944,299.017 72.740 C 298.163 72.536,297.372 72.298,297.258 72.211 C 297.144 72.123,296.446 71.942,295.706 71.808 C 294.966 71.674,294.175 71.481,293.947 71.380 C 293.477 71.171,289.447 70.564,288.530 70.564 C 288.198 70.564,287.833 70.471,287.720 70.358 C 287.107 69.746,261.180 69.491,259.494 70.081 M62.909 72.973 C 60.819 73.716,59.108 75.459,58.469 77.496 C 58.176 78.429,58.149 85.773,58.198 152.406 L 58.251 226.280 58.760 227.315 C 59.410 228.637,60.861 230.088,62.183 230.738 L 63.218 231.247 70.357 231.247 L 77.496 231.247 78.531 230.738 C 79.853 230.088,81.304 228.637,81.954 227.315 L 82.462 226.280 82.462 151.992 L 82.462 77.703 81.952 76.668 C 80.221 73.163,79.043 72.747,70.667 72.689 C 64.853 72.649,63.700 72.691,62.909 72.973 M218.108 72.973 C 216.018 73.716,214.307 75.459,213.668 77.496 C 213.375 78.432,213.349 90.930,213.397 208.381 L 213.451 338.231 213.959 339.265 C 214.609 340.588,216.060 342.039,217.382 342.689 L 218.417 343.197 225.556 343.197 L 232.695 343.197 233.730 342.689 C 235.052 342.039,236.503 340.588,237.153 339.265 L 237.662 338.231 237.662 207.967 L 237.662 77.703 237.151 76.668 C 236.498 75.346,235.052 73.900,233.730 73.247 C 232.375 72.579,219.836 72.358,218.108 72.973 " stroke="none" fill="#000000" fill-rule="evenodd"></path><path id="path1" d="M106.425 279.537 C 102.400 280.928,100.483 285.832,102.202 290.342 C 103.961 294.961,110.562 296.274,115.001 292.888 L 115.675 292.374 115.675 289.456 L 115.675 286.538 113.470 286.673 C 112.257 286.747,110.767 286.808,110.159 286.808 L 109.053 286.808 109.053 287.739 L 109.053 288.670 111.339 288.670 L 113.625 288.670 113.564 290.062 L 113.502 291.454 112.261 292.080 C 107.154 294.653,102.522 290.373,104.185 284.616 C 105.374 280.498,111.433 279.618,113.103 283.322 C 113.471 284.138,113.499 284.155,114.299 284.027 C 115.478 283.838,115.501 283.795,115.057 282.608 C 113.981 279.729,109.984 278.307,106.425 279.537 M57.734 286.896 L 57.734 294.465 61.421 294.465 C 68.483 294.465,70.673 292.379,70.309 286.000 C 70.024 280.991,68.092 279.506,61.718 279.396 L 57.734 279.327 57.734 286.896 M73.047 286.894 L 73.047 294.465 74.082 294.465 L 75.116 294.465 75.116 291.154 L 75.116 287.843 76.561 287.843 C 79.210 287.843,79.841 288.345,82.472 292.550 L 83.670 294.465 84.980 294.465 C 85.701 294.465,86.291 294.417,86.291 294.359 C 86.291 293.975,83.310 289.616,82.458 288.754 L 81.416 287.700 82.353 287.365 C 84.889 286.456,85.913 283.663,84.557 281.349 C 83.547 279.625,83.024 279.477,77.651 279.395 L 73.047 279.324 73.047 286.894 M92.207 279.534 C 92.076 279.747,86.498 294.245,86.498 294.374 C 86.498 294.424,87.003 294.465,87.621 294.465 L 88.744 294.465 89.148 293.378 C 89.371 292.781,89.725 291.803,89.936 291.205 L 90.320 290.119 93.434 290.119 L 96.549 290.119 97.367 292.292 L 98.184 294.465 99.377 294.465 C 100.860 294.465,101.080 295.388,97.542 286.756 L 94.510 279.359 93.413 279.359 C 92.810 279.359,92.267 279.438,92.207 279.534 M122.217 280.188 C 122.030 280.655,120.909 283.569,119.726 286.664 C 118.543 289.759,117.382 292.781,117.145 293.378 L 116.716 294.465 117.903 294.464 L 119.089 294.464 119.836 292.343 L 120.583 290.222 123.737 290.222 L 126.891 290.222 127.676 292.292 L 128.462 294.361 129.727 294.423 L 130.993 294.484 130.638 293.595 C 130.443 293.106,129.061 289.726,127.566 286.084 L 124.848 279.462 123.702 279.401 L 122.556 279.339 122.217 280.188 M132.437 286.912 L 132.437 294.465 133.468 294.465 L 134.499 294.465 134.554 288.847 L 134.609 283.230 138.334 288.842 L 142.059 294.454 143.249 294.459 L 144.439 294.465 144.439 286.912 L 144.439 279.359 143.404 279.359 L 142.369 279.359 142.369 285.204 L 142.368 291.050 138.489 285.210 L 134.609 279.369 133.523 279.364 L 132.437 279.359 132.437 286.912 M151.492 279.814 C 151.389 280.076,150.141 283.316,148.719 287.015 C 147.297 290.714,146.066 293.908,145.984 294.114 C 145.849 294.451,145.948 294.481,147.026 294.424 L 148.218 294.361 148.972 292.292 L 149.725 290.222 152.845 290.165 L 155.965 290.109 156.783 292.235 L 157.600 294.361 158.873 294.422 L 160.145 294.484 158.882 291.422 C 158.188 289.738,156.804 286.358,155.806 283.911 L 153.991 279.462 152.835 279.400 C 151.792 279.344,151.661 279.384,151.492 279.814 M65.525 281.646 C 67.190 282.277,68.076 284.036,68.079 286.719 C 68.084 291.300,66.758 292.602,62.092 292.602 L 60.010 292.602 60.010 286.880 L 60.010 281.157 62.472 281.290 C 63.827 281.363,65.200 281.523,65.525 281.646 M81.879 281.757 C 82.830 282.462,83.099 283.212,82.752 284.192 C 82.227 285.677,81.735 285.867,78.206 285.948 L 75.116 286.018 75.116 283.605 L 75.116 281.191 78.206 281.258 C 80.955 281.317,81.360 281.372,81.879 281.757 M125.963 287.894 C 126.061 288.225,125.859 288.257,123.676 288.257 L 121.281 288.257 121.783 286.963 C 122.059 286.252,122.590 284.736,122.963 283.596 L 123.642 281.521 124.749 284.527 C 125.358 286.180,125.905 287.695,125.963 287.894 M95.707 287.894 C 95.842 288.227,95.657 288.257,93.430 288.257 C 91.206 288.257,91.017 288.227,91.145 287.894 C 91.921 285.874,93.120 282.411,93.120 282.190 C 93.120 281.269,93.522 281.979,94.478 284.583 C 95.073 286.205,95.626 287.695,95.707 287.894 M155.199 288.192 C 155.199 288.228,154.118 288.257,152.797 288.257 C 150.593 288.257,150.407 288.227,150.538 287.894 C 151.316 285.919,152.343 283.078,152.526 282.398 L 152.754 281.554 153.976 284.841 C 154.649 286.649,155.199 288.157,155.199 288.192 M57.734 311.123 L 57.734 318.676 58.872 318.676 L 60.010 318.676 60.010 315.698 L 60.010 312.720 63.063 312.633 C 67.579 312.504,68.834 311.729,69.397 308.720 C 70.086 305.042,67.836 303.570,61.525 303.570 L 57.734 303.570 57.734 311.123 M72.219 311.123 L 72.219 318.676 73.254 318.676 L 74.289 318.676 74.289 311.123 L 74.289 303.570 73.254 303.570 L 72.219 303.570 72.219 311.123 M82.773 309.690 L 82.773 315.810 82.168 316.415 C 80.748 317.836,78.634 316.761,78.634 314.619 C 78.634 314.081,78.610 314.070,77.668 314.199 C 76.455 314.366,76.495 314.311,76.666 315.556 C 77.111 318.792,81.054 320.185,83.668 318.030 C 84.921 316.998,85.049 316.200,85.049 309.430 L 85.049 303.570 83.911 303.570 L 82.773 303.570 82.773 309.690 M88.153 311.123 L 88.153 318.676 89.184 318.676 L 90.216 318.676 90.271 313.058 L 90.326 307.441 94.051 313.053 L 97.775 318.665 98.965 318.670 L 100.155 318.676 100.155 311.123 L 100.155 303.570 99.121 303.570 L 98.086 303.570 98.085 309.415 L 98.085 315.261 94.205 309.421 L 90.326 303.580 89.240 303.575 L 88.153 303.570 88.153 311.123 M107.213 304.025 C 106.645 305.510,101.752 318.203,101.660 318.428 C 101.576 318.635,101.828 318.683,102.749 318.635 L 103.947 318.572 104.708 316.503 L 105.470 314.434 108.576 314.377 L 111.682 314.320 112.499 316.446 L 113.317 318.572 114.589 318.633 L 115.861 318.695 114.228 314.702 C 113.329 312.506,111.945 309.126,111.151 307.191 L 109.708 303.673 108.552 303.611 C 107.508 303.555,107.378 303.595,107.213 304.025 M117.331 311.104 L 117.331 318.676 118.365 318.676 L 119.400 318.676 119.400 315.698 L 119.400 312.720 122.458 312.645 C 127.228 312.529,128.789 311.391,128.807 308.015 C 128.826 304.587,127.362 303.701,121.521 303.603 L 117.331 303.533 117.331 311.104 M131.195 311.107 L 131.195 318.676 132.333 318.676 L 133.471 318.676 133.471 315.698 L 133.471 312.720 136.524 312.636 C 141.363 312.503,142.975 311.201,142.746 307.608 C 142.541 304.394,141.264 303.700,135.385 303.606 L 131.195 303.539 131.195 311.107 M145.266 311.123 L 145.266 318.676 150.957 318.676 L 156.648 318.676 156.648 317.744 L 156.648 316.813 151.992 316.813 L 147.336 316.813 147.336 314.330 L 147.336 311.847 151.578 311.847 L 155.820 311.847 155.820 310.916 L 155.820 309.984 151.578 309.984 L 147.336 309.984 147.336 307.708 L 147.336 305.432 151.785 305.432 L 156.234 305.432 156.234 304.501 L 156.234 303.570 150.750 303.570 L 145.266 303.570 145.266 311.123 M159.131 311.123 L 159.131 318.676 163.890 318.676 L 168.650 318.676 168.650 317.744 L 168.650 316.813 164.925 316.813 L 161.200 316.813 161.200 310.191 L 161.200 303.570 160.166 303.570 L 159.131 303.570 159.131 311.123 M66.169 305.966 C 67.147 306.606,67.486 308.085,66.927 309.265 C 66.406 310.362,65.623 310.605,62.617 310.605 L 60.010 310.605 60.010 307.987 L 60.010 305.368 62.841 305.504 C 64.885 305.602,65.809 305.730,66.169 305.966 M125.408 305.850 C 126.497 306.433,126.946 308.177,126.318 309.390 C 125.815 310.363,124.953 310.605,121.993 310.605 L 119.400 310.605 119.400 307.987 L 119.400 305.368 122.190 305.494 C 123.724 305.564,125.173 305.724,125.408 305.850 M139.455 305.836 C 140.528 306.411,140.916 308.507,140.142 309.550 C 139.466 310.461,138.939 310.599,136.110 310.602 L 133.471 310.605 133.471 307.987 L 133.471 305.368 136.277 305.502 C 137.820 305.576,139.250 305.727,139.455 305.836 M110.825 312.093 C 110.935 312.440,110.766 312.468,108.555 312.468 L 106.167 312.468 106.810 310.760 C 107.163 309.822,107.686 308.328,107.970 307.442 L 108.488 305.830 109.597 308.774 C 110.207 310.394,110.759 311.887,110.825 312.093 M91.464 327.549 C 86.940 329.031,84.953 334.718,87.330 339.377 C 88.992 342.635,93.327 343.946,96.892 342.270 C 102.131 339.808,102.129 330.617,96.889 328.053 C 95.659 327.451,92.623 327.169,91.464 327.549 M120.228 327.560 C 113.577 329.591,113.314 340.378,119.861 342.600 C 123.780 343.930,127.896 341.952,129.118 338.151 C 131.178 331.744,126.148 325.753,120.228 327.560 M136.245 327.790 C 131.209 329.387,129.799 337.415,133.906 341.107 C 136.575 343.507,141.007 343.640,144.459 341.425 L 145.473 340.774 145.473 337.764 L 145.473 334.754 143.579 334.889 C 142.537 334.963,141.094 335.023,140.372 335.023 L 139.058 335.023 139.058 335.954 L 139.058 336.886 141.241 336.886 L 143.423 336.886 143.362 338.282 L 143.301 339.679 142.089 340.285 C 137.263 342.696,132.857 339.130,133.891 333.650 C 134.768 329.001,141.083 327.404,142.899 331.371 L 143.413 332.494 144.288 332.230 C 145.356 331.909,145.405 331.347,144.492 329.870 C 143.102 327.622,139.578 326.733,136.245 327.790 M57.734 335.127 L 57.734 342.680 58.872 342.680 L 60.010 342.680 60.010 339.702 L 60.010 336.724 63.063 336.637 C 67.579 336.508,68.834 335.733,69.397 332.724 C 70.086 329.046,67.836 327.574,61.525 327.574 L 57.734 327.574 57.734 335.127 M71.805 335.127 L 71.805 342.680 72.944 342.680 L 74.082 342.680 74.082 339.162 L 74.082 335.644 77.807 335.644 L 81.531 335.644 81.531 339.162 L 81.531 342.680 82.669 342.680 L 83.808 342.680 83.808 335.127 L 83.808 327.574 82.669 327.574 L 81.531 327.574 81.531 330.678 L 81.531 333.782 77.807 333.782 L 74.082 333.782 74.082 330.678 L 74.082 327.574 72.944 327.574 L 71.805 327.574 71.805 335.127 M102.018 328.505 L 102.018 329.436 104.501 329.436 L 106.984 329.436 106.984 336.058 L 106.984 342.680 108.122 342.680 L 109.260 342.680 109.260 336.058 L 109.260 329.436 111.743 329.436 L 114.227 329.436 114.227 328.505 L 114.227 327.574 108.122 327.574 L 102.018 327.574 102.018 328.505 M148.370 335.110 L 148.370 342.680 149.405 342.680 L 150.440 342.680 150.440 339.344 L 150.440 336.007 152.303 336.096 C 154.708 336.211,154.842 336.314,157.165 339.839 L 159.027 342.666 160.343 342.673 C 161.413 342.678,161.637 342.623,161.542 342.378 C 161.219 341.535,158.229 337.281,157.493 336.615 C 157.027 336.195,156.768 335.851,156.917 335.851 C 159.492 335.851,161.319 332.115,159.951 329.646 C 158.968 327.872,158.341 327.689,152.975 327.608 L 148.370 327.539 148.370 335.110 M167.547 327.729 C 167.497 327.814,166.241 331.050,164.758 334.920 C 163.274 338.789,161.994 342.123,161.914 342.329 C 161.782 342.666,161.883 342.696,162.969 342.639 L 164.171 342.576 164.910 340.456 L 165.649 338.337 168.774 338.335 L 171.899 338.334 172.709 340.455 L 173.518 342.576 174.806 342.638 L 176.093 342.699 175.667 341.707 C 175.432 341.161,174.308 338.432,173.168 335.644 C 172.028 332.856,170.816 329.899,170.474 329.074 L 169.853 327.574 168.746 327.574 C 168.138 327.574,167.598 327.644,167.547 327.729 M177.341 335.127 L 177.341 342.680 178.479 342.680 L 179.617 342.680 179.617 339.702 L 179.617 336.724 182.669 336.646 C 187.034 336.534,188.346 335.771,188.940 332.998 C 189.780 329.071,187.625 327.574,181.132 327.574 L 177.341 327.574 177.341 335.127 M190.029 327.860 C 190.094 328.029,191.363 329.987,192.849 332.212 L 195.551 336.257 195.551 339.468 L 195.551 342.680 196.689 342.680 L 197.827 342.680 197.827 339.511 L 197.827 336.343 200.828 332.026 C 202.478 329.652,203.828 327.679,203.828 327.642 C 203.828 327.604,203.266 327.574,202.578 327.574 L 201.327 327.574 199.319 330.664 C 198.214 332.364,197.214 333.913,197.096 334.106 C 196.918 334.397,196.512 333.882,194.699 331.067 L 192.517 327.677 191.214 327.615 C 190.131 327.563,189.931 327.604,190.029 327.860 M95.241 329.524 C 99.628 331.090,99.821 338.922,95.518 340.720 C 91.901 342.230,88.662 339.631,88.677 335.230 C 88.693 330.777,91.620 328.232,95.241 329.524 M124.838 329.916 C 128.442 332.028,128.079 339.133,124.286 340.718 C 119.779 342.601,115.812 337.467,117.798 332.322 C 118.850 329.596,122.288 328.421,124.838 329.916 M66.169 329.970 C 67.147 330.610,67.486 332.089,66.927 333.269 C 66.406 334.366,65.623 334.609,62.617 334.609 L 60.010 334.609 60.010 331.991 L 60.010 329.372 62.841 329.508 C 64.885 329.606,65.809 329.734,66.169 329.970 M156.858 329.772 C 158.275 330.339,158.688 331.699,157.830 332.975 C 157.168 333.960,156.358 334.170,153.182 334.184 L 150.440 334.196 150.440 331.816 L 150.440 329.436 153.229 329.436 C 155.320 329.436,156.229 329.520,156.858 329.772 M185.641 329.862 C 186.687 330.422,187.111 331.952,186.575 333.235 C 186.113 334.342,185.266 334.609,182.224 334.609 L 179.617 334.609 179.617 331.991 L 179.617 329.372 182.422 329.506 C 183.965 329.580,185.414 329.741,185.641 329.862 M170.019 333.346 C 170.632 334.984,171.133 336.357,171.133 336.398 C 171.133 336.439,170.052 336.472,168.731 336.472 C 166.527 336.472,166.341 336.442,166.472 336.110 C 167.229 334.186,168.279 331.292,168.469 330.602 C 168.603 330.117,168.749 329.881,168.805 330.057 C 168.860 330.228,169.406 331.708,170.019 333.346 " stroke="none" fill="#808080" fill-rule="evenodd"></path><path id="path2" d="M117.217 311.123 C 117.217 315.334,117.245 317.027,117.279 314.886 C 117.312 312.744,117.312 309.299,117.278 307.229 C 117.245 305.159,117.217 306.912,117.217 311.123 M145.555 337.817 C 145.555 339.410,145.588 340.035,145.627 339.205 C 145.667 338.374,145.666 337.071,145.627 336.308 C 145.587 335.544,145.555 336.223,145.555 337.817 " stroke="none" fill="#ffffff" fill-rule="evenodd"></path></g></svg>