<svg id="svg" version="1.1" viewBox="0 -25 500 140" xmlns="http://www.w3.org/2000/svg" xmlns:xlink="http://www.w3.org/1999/xlink" style="display: block;"><g id="svgg"><path id="path0" d="M41.379 9.874 C 41.289 9.989,40.183 12.165,38.922 14.708 L 36.630 19.333 27.982 19.333 L 19.333 19.333 19.333 16.917 L 19.333 14.500 13.250 14.500 L 7.167 14.500 7.167 16.896 L 7.167 19.293 4.578 19.362 L 1.988 19.432 1.036 20.384 L 0.083 21.337 0.083 43.500 L 0.083 65.663 1.043 66.623 L 2.004 67.583 38.663 67.583 L 75.322 67.583 76.222 66.694 C 77.592 65.342,77.500 67.005,77.500 43.500 C 77.500 19.995,77.592 21.658,76.222 20.306 L 75.322 19.417 70.040 19.333 L 64.758 19.250 64.593 18.750 C 64.503 18.475,64.070 17.602,63.631 16.810 C 63.192 16.019,62.833 15.297,62.833 15.206 C 62.833 15.115,62.496 14.430,62.083 13.685 C 61.671 12.939,61.329 12.236,61.324 12.123 C 61.319 12.009,61.034 11.429,60.691 10.833 L 60.067 9.750 50.805 9.707 C 43.520 9.673,41.508 9.709,41.379 9.874 M59.108 13.562 C 59.507 14.284,59.833 14.948,59.833 15.038 C 59.833 15.128,60.171 15.802,60.583 16.536 C 60.996 17.269,61.333 17.943,61.333 18.034 C 61.333 18.125,61.690 18.847,62.125 19.640 C 62.560 20.432,62.958 21.231,63.007 21.415 C 63.096 21.741,63.250 21.751,68.583 21.794 C 73.943 21.837,74.075 21.846,74.450 22.198 L 74.833 22.558 74.833 43.477 L 74.833 64.395 74.471 64.781 L 74.109 65.167 38.690 65.167 L 3.271 65.167 2.886 64.804 L 2.500 64.442 2.500 43.523 L 2.500 22.605 2.862 22.219 L 3.225 21.833 20.761 21.833 L 38.297 21.833 40.512 17.375 C 41.730 14.923,42.835 12.747,42.967 12.540 L 43.207 12.163 50.795 12.207 L 58.382 12.250 59.108 13.562 M152.833 16.661 C 152.421 16.824,151.508 17.192,150.806 17.478 C 150.103 17.765,149.456 18.000,149.368 18.000 C 149.227 18.000,148.779 18.185,146.750 19.083 C 146.475 19.204,145.856 19.429,145.375 19.582 L 144.500 19.860 144.500 20.680 C 144.500 21.517,144.710 21.724,145.131 21.302 C 145.546 20.887,147.752 21.032,148.143 21.500 C 148.678 22.138,148.621 48.842,148.083 49.914 C 147.656 50.766,146.522 51.474,145.366 51.611 L 144.500 51.713 144.500 52.440 L 144.500 53.167 150.583 53.167 L 156.667 53.167 156.667 52.417 L 156.667 51.667 155.825 51.667 C 152.660 51.667,151.847 48.551,153.152 41.417 C 153.500 39.516,155.885 35.018,157.157 33.864 C 159.786 31.479,162.324 31.206,163.255 33.207 L 163.663 34.083 163.665 42.436 C 163.667 51.462,163.646 51.667,162.738 51.667 C 162.567 51.667,162.500 51.878,162.500 52.417 L 162.500 53.167 167.250 53.167 L 172.000 53.167 172.000 52.417 C 172.000 51.671,171.996 51.667,171.420 51.667 C 170.111 51.667,168.836 50.880,168.315 49.750 C 168.030 49.132,168.007 48.509,168.004 41.250 C 168.000 34.833,167.953 33.193,167.742 32.180 C 166.492 26.187,159.141 27.908,153.667 35.475 L 152.917 36.511 152.868 27.881 C 152.817 18.852,152.866 18.118,153.522 17.946 C 153.769 17.881,153.833 17.706,153.833 17.099 C 153.833 16.242,153.863 16.255,152.833 16.661 M351.250 16.949 C 350.517 17.274,349.504 17.673,349.000 17.835 C 348.496 17.998,347.296 18.449,346.333 18.838 C 345.371 19.227,344.377 19.619,344.125 19.709 C 343.708 19.859,343.667 19.949,343.667 20.705 C 343.667 21.433,343.703 21.520,343.958 21.408 C 345.318 20.815,346.871 20.934,347.247 21.661 C 347.633 22.407,347.627 48.178,347.241 49.479 C 346.868 50.734,345.617 51.633,344.208 51.657 C 343.679 51.666,343.667 51.684,343.667 52.417 L 343.667 53.167 349.750 53.167 L 355.833 53.167 355.833 52.417 L 355.833 51.667 354.908 51.667 C 351.531 51.667,350.423 45.616,352.756 39.917 C 352.869 39.642,353.055 39.120,353.171 38.758 C 354.254 35.366,357.458 32.162,359.893 32.034 C 362.793 31.882,362.833 32.028,362.833 42.591 C 362.833 51.573,362.823 51.667,361.812 51.667 C 361.526 51.667,361.488 51.762,361.532 52.375 L 361.583 53.083 366.292 53.128 L 371.000 53.172 371.000 52.419 L 371.000 51.667 370.363 51.667 C 369.447 51.667,368.000 50.885,367.586 50.167 C 367.265 49.610,367.245 49.199,367.146 41.167 C 367.088 36.537,366.967 32.450,366.877 32.083 C 366.065 28.794,363.918 27.889,359.889 29.138 C 359.287 29.325,357.667 30.346,357.667 30.539 C 357.667 30.609,357.580 30.667,357.473 30.667 C 357.125 30.667,354.317 33.478,353.041 35.105 C 352.834 35.368,352.477 35.808,352.247 36.083 L 351.830 36.583 351.873 27.611 L 351.917 18.639 352.468 18.147 C 352.931 17.733,353.011 17.557,352.968 17.048 C 352.901 16.257,352.821 16.252,351.250 16.949 M16.833 18.167 L 16.833 19.333 13.250 19.333 L 9.667 19.333 9.667 18.167 L 9.667 17.000 13.250 17.000 L 16.833 17.000 16.833 18.167 M81.278 19.944 C 81.217 20.006,81.167 20.371,81.167 20.756 L 81.167 21.457 82.196 21.573 C 84.141 21.793,84.849 22.392,85.154 24.072 C 85.406 25.463,85.400 47.832,85.147 49.033 C 84.786 50.746,83.671 51.667,81.958 51.667 L 81.148 51.667 81.199 52.375 L 81.250 53.083 90.083 53.083 C 100.290 53.083,99.752 53.142,104.167 51.543 C 105.600 51.024,107.233 50.050,108.667 48.861 C 109.636 48.057,111.331 46.358,111.337 46.186 C 111.338 46.129,111.603 45.783,111.926 45.417 C 112.248 45.050,112.705 44.413,112.942 44.000 C 113.178 43.587,113.550 42.936,113.768 42.553 C 114.117 41.941,114.657 40.516,115.323 38.451 C 117.700 31.082,114.461 22.659,108.583 20.927 C 108.033 20.765,107.358 20.561,107.083 20.475 C 105.300 19.914,81.791 19.431,81.278 19.944 M119.167 20.655 L 119.167 21.476 120.125 21.593 C 121.909 21.810,122.531 22.288,122.825 23.667 C 123.144 25.158,122.999 49.196,122.667 50.083 C 122.356 50.912,121.031 51.667,119.887 51.667 L 119.167 51.667 119.167 52.419 L 119.167 53.171 125.708 53.127 L 132.250 53.083 132.250 52.421 C 132.250 51.779,132.230 51.756,131.583 51.642 C 130.219 51.403,128.836 50.504,128.603 49.706 C 128.087 47.939,127.928 36.873,128.422 37.062 C 132.128 38.484,135.455 37.894,139.000 35.184 C 145.124 30.502,146.079 23.162,140.872 20.801 C 138.976 19.941,137.555 19.835,127.875 19.834 L 119.167 19.833 119.167 20.655 M207.627 21.830 C 206.826 22.184,205.888 22.563,205.543 22.673 C 205.199 22.783,204.680 22.981,204.391 23.114 L 203.866 23.356 203.801 26.220 C 203.709 30.271,203.385 30.802,200.805 31.120 L 199.750 31.250 199.750 32.000 L 199.750 32.750 201.703 32.797 L 203.656 32.844 203.703 42.380 C 203.755 52.942,203.715 52.557,204.856 53.475 C 206.329 54.660,209.638 53.458,212.772 50.601 C 213.666 49.786,214.133 48.167,213.473 48.167 C 213.290 48.167,211.509 49.427,211.333 49.682 C 210.950 50.235,208.981 50.604,208.411 50.231 L 208.000 49.962 208.000 41.401 L 208.000 32.841 211.208 32.795 L 214.417 32.750 214.417 32.000 L 214.417 31.250 212.417 31.162 C 208.917 31.008,208.117 30.215,208.029 26.810 C 207.967 24.428,208.228 23.567,209.176 23.028 C 209.608 22.782,209.665 22.659,209.666 21.958 C 209.667 20.972,209.582 20.967,207.627 21.830 M99.368 21.510 C 104.866 22.078,108.860 25.358,109.836 30.106 C 111.079 36.154,110.845 40.672,109.113 44.078 C 108.133 46.003,107.856 46.413,106.801 47.502 C 102.779 51.655,97.225 52.298,91.376 49.286 L 90.335 48.750 90.334 36.072 L 90.333 23.395 91.042 22.989 C 92.088 22.390,93.886 21.836,95.583 21.590 C 97.561 21.304,97.404 21.308,99.368 21.510 M135.298 22.097 C 138.549 23.891,139.927 29.774,137.932 33.342 C 136.335 36.199,132.419 36.248,128.645 33.458 L 128.167 33.104 128.167 28.058 L 128.167 23.013 129.458 22.389 C 131.582 21.364,133.772 21.254,135.298 22.097 M16.833 43.500 L 16.833 62.833 18.083 62.833 L 19.333 62.833 19.333 43.500 L 19.333 24.167 18.083 24.167 L 16.833 24.167 16.833 43.500 M30.398 24.272 C 28.960 24.594,28.504 27.328,29.706 28.429 C 31.997 30.529,35.388 27.191,33.290 24.902 C 32.737 24.299,31.489 24.027,30.398 24.272 M47.750 24.337 C 46.524 24.450,44.375 25.070,43.343 25.609 C 43.108 25.731,42.818 25.832,42.696 25.832 C 42.421 25.834,41.073 26.602,40.446 27.115 C 40.186 27.327,39.880 27.500,39.765 27.500 C 39.440 27.500,35.667 30.969,35.667 31.269 C 35.667 31.331,35.397 31.712,35.066 32.115 C 34.736 32.518,34.277 33.201,34.047 33.632 C 32.957 35.672,32.507 36.637,32.359 37.250 C 32.271 37.617,32.027 38.554,31.818 39.333 C 31.264 41.395,31.264 45.605,31.818 47.667 C 32.027 48.446,32.271 49.383,32.359 49.749 C 32.658 50.986,34.383 54.177,35.287 55.165 C 35.496 55.393,35.667 55.638,35.667 55.710 C 35.667 55.850,37.488 57.675,38.683 58.732 C 39.086 59.089,39.655 59.482,39.947 59.605 C 40.239 59.728,40.520 59.897,40.572 59.982 C 40.705 60.196,42.450 61.166,42.706 61.168 C 42.822 61.168,43.104 61.265,43.333 61.383 C 45.350 62.420,47.441 62.828,50.750 62.830 C 54.173 62.831,55.582 62.559,58.109 61.406 C 58.397 61.274,58.725 61.167,58.837 61.167 C 59.159 61.167,62.167 59.320,62.901 58.672 C 63.976 57.722,66.167 55.479,66.167 55.329 C 66.167 55.253,66.263 55.091,66.380 54.970 C 69.799 51.449,71.070 43.263,69.143 37.167 C 68.854 36.250,67.363 33.311,66.861 32.667 C 66.611 32.346,66.268 31.865,66.098 31.598 C 65.817 31.155,64.758 30.066,63.063 28.478 C 62.707 28.145,62.183 27.732,61.898 27.561 C 61.612 27.390,60.849 26.931,60.202 26.542 C 59.555 26.152,58.926 25.833,58.804 25.832 C 58.683 25.832,58.378 25.724,58.126 25.593 C 55.811 24.385,52.105 23.937,47.750 24.337 M54.621 27.144 C 55.870 27.400,56.705 27.694,57.753 28.247 C 58.538 28.661,59.255 29.000,59.345 29.000 C 59.890 29.000,63.047 31.881,64.331 33.551 C 68.222 38.607,68.643 46.346,65.326 51.843 C 64.963 52.445,64.667 53.020,64.667 53.121 C 64.667 53.223,64.604 53.331,64.527 53.361 C 64.451 53.392,63.933 53.948,63.376 54.598 C 62.430 55.703,59.445 58.167,59.053 58.167 C 58.956 58.167,58.300 58.469,57.595 58.838 C 56.135 59.602,53.860 60.132,51.417 60.278 C 49.999 60.362,49.562 60.313,46.060 59.683 C 45.680 59.614,44.752 59.245,43.998 58.862 C 43.244 58.480,42.554 58.167,42.464 58.167 C 41.213 58.167,35.500 51.885,35.500 50.508 C 35.500 50.357,35.433 50.162,35.351 50.075 C 34.736 49.422,33.833 45.511,33.833 43.500 C 33.833 41.489,34.736 37.578,35.351 36.925 C 35.433 36.838,35.500 36.629,35.500 36.462 C 35.500 35.653,38.394 31.915,40.145 30.462 C 41.564 29.285,45.068 27.453,46.250 27.271 C 46.617 27.214,47.442 27.059,48.083 26.926 C 49.635 26.605,52.449 26.699,54.621 27.144 M275.383 28.734 C 275.090 28.841,274.796 28.982,274.730 29.047 C 274.665 29.113,274.475 29.167,274.309 29.167 C 274.043 29.167,272.611 29.774,271.308 30.441 C 271.064 30.565,270.767 30.667,270.647 30.667 C 269.659 30.667,269.000 31.209,269.000 32.023 C 269.000 32.912,269.064 32.950,269.942 32.583 C 271.235 32.043,272.313 32.320,272.681 33.287 C 272.853 33.740,272.893 48.020,272.725 49.243 C 272.552 50.506,270.983 51.670,269.458 51.667 C 269.026 51.667,269.000 51.709,269.000 52.417 L 269.000 53.167 275.917 53.167 L 282.833 53.167 282.833 52.417 L 282.833 51.667 281.780 51.667 C 280.259 51.667,278.667 51.144,277.870 50.384 C 276.534 49.110,276.868 42.159,278.448 38.333 C 278.915 37.203,279.047 36.910,279.388 36.250 C 281.853 31.468,286.167 31.487,286.167 36.280 L 286.167 37.167 287.333 37.167 L 288.500 37.167 288.500 33.091 L 288.500 29.015 287.875 28.883 C 285.758 28.434,283.557 28.940,282.136 30.204 C 281.798 30.504,281.386 30.872,281.219 31.020 C 280.793 31.401,279.619 32.821,279.239 33.417 C 279.063 33.692,278.783 34.067,278.616 34.250 C 278.449 34.433,278.073 34.996,277.781 35.500 L 277.250 36.417 277.205 32.458 L 277.161 28.500 276.539 28.520 C 276.197 28.531,275.677 28.627,275.383 28.734 M185.000 28.832 C 182.991 29.217,182.423 29.418,181.250 30.159 C 180.883 30.391,180.422 30.656,180.224 30.749 C 179.907 30.897,178.590 31.963,177.850 32.671 C 174.733 35.652,173.319 40.309,174.085 45.070 C 174.426 47.186,174.648 47.785,175.733 49.500 C 176.673 50.988,178.737 52.680,180.146 53.119 C 183.055 54.024,184.608 54.176,186.673 53.760 C 188.508 53.391,189.603 53.033,190.372 52.554 C 190.714 52.341,191.026 52.167,191.065 52.167 C 191.540 52.167,194.106 49.977,195.182 48.653 C 199.162 43.759,199.170 36.030,195.199 31.816 C 194.603 31.184,194.047 30.667,193.964 30.667 C 193.880 30.667,193.572 30.490,193.281 30.273 C 191.603 29.030,187.599 28.333,185.000 28.832 M226.833 28.832 C 224.798 29.222,223.779 29.592,222.886 30.266 C 222.594 30.487,222.301 30.667,222.235 30.667 C 221.902 30.667,219.946 32.347,218.796 33.622 C 217.782 34.745,216.411 37.272,216.239 38.333 C 216.187 38.654,216.037 39.419,215.905 40.033 C 215.600 41.461,215.604 43.801,215.913 45.083 C 216.046 45.633,216.157 46.257,216.161 46.469 C 216.184 47.982,218.368 50.925,220.619 52.478 C 223.218 54.271,229.102 54.350,232.126 52.633 C 239.047 48.704,241.681 41.790,238.932 34.766 C 238.430 33.482,236.290 30.667,235.816 30.667 C 235.722 30.667,235.406 30.490,235.114 30.273 C 233.436 29.030,229.432 28.333,226.833 28.832 M253.000 28.773 C 251.904 28.934,250.702 29.214,250.250 29.414 C 249.975 29.535,249.637 29.680,249.500 29.736 C 249.362 29.791,249.025 29.983,248.750 30.161 C 248.475 30.339,248.013 30.607,247.722 30.755 C 243.350 32.990,241.797 39.239,244.876 42.208 C 246.750 44.015,250.334 44.807,253.333 44.077 C 253.662 43.997,253.548 44.162,252.788 44.863 C 250.662 46.823,250.246 48.405,251.431 50.019 C 251.760 50.467,252.097 50.833,252.181 50.833 C 252.265 50.833,252.333 50.908,252.333 51.000 C 252.333 51.092,252.155 51.167,251.938 51.167 C 251.720 51.167,251.223 51.279,250.833 51.417 C 250.444 51.554,249.955 51.667,249.748 51.667 C 249.317 51.667,246.997 52.414,246.250 52.794 C 245.279 53.287,245.169 53.333,244.975 53.333 C 244.099 53.333,241.023 55.825,240.403 57.036 C 237.636 62.438,245.579 66.210,256.083 64.482 C 259.748 63.879,265.395 60.864,266.188 59.086 C 266.270 58.901,266.541 58.413,266.791 58.000 C 267.202 57.318,267.244 57.098,267.247 55.583 L 267.250 53.917 266.618 53.083 C 265.995 52.262,265.388 51.833,263.417 50.824 C 262.513 50.361,261.508 49.980,258.167 48.834 C 253.621 47.275,253.604 46.327,258.056 42.417 C 259.543 41.111,260.854 39.754,261.167 39.196 C 261.304 38.951,261.472 38.709,261.540 38.658 C 262.310 38.082,262.779 34.658,262.259 33.411 L 262.017 32.833 264.592 32.833 L 267.167 32.833 267.167 32.107 L 267.167 31.381 265.375 31.281 C 263.362 31.169,261.902 30.812,259.851 29.928 C 257.321 28.838,255.103 28.464,253.000 28.773 M301.667 28.828 C 300.030 29.125,299.220 29.316,298.568 29.560 C 297.374 30.004,294.269 31.534,293.734 31.941 C 293.451 32.157,293.132 32.333,293.026 32.333 C 292.887 32.333,292.833 33.256,292.833 35.667 L 292.833 39.000 293.816 39.000 C 294.933 39.000,294.944 38.987,295.104 37.527 C 295.728 31.839,302.574 28.040,304.581 32.269 C 305.047 33.252,304.873 36.290,304.333 36.576 C 304.104 36.697,302.867 37.307,301.583 37.931 C 300.300 38.555,298.875 39.301,298.417 39.590 C 297.958 39.878,297.246 40.306,296.833 40.540 C 296.421 40.775,295.892 41.143,295.658 41.358 C 295.424 41.574,295.048 41.847,294.822 41.966 C 294.350 42.213,292.103 44.346,291.534 45.086 C 289.863 47.258,289.912 50.387,291.648 52.356 C 294.280 55.344,298.282 54.210,303.735 48.934 L 304.750 47.951 304.833 50.411 L 304.917 52.870 305.492 53.351 C 307.098 54.690,309.628 53.832,313.042 50.791 C 313.813 50.104,313.833 50.060,313.833 49.126 C 313.833 47.949,313.850 47.949,312.405 49.130 C 310.939 50.328,309.991 50.694,309.501 50.251 C 309.174 49.955,309.167 49.743,309.167 41.084 C 309.167 30.461,309.090 30.003,307.167 29.126 C 306.332 28.745,303.091 28.570,301.667 28.828 M320.333 29.107 C 319.737 29.336,319.063 29.586,318.833 29.662 C 318.604 29.738,318.154 29.936,317.833 30.101 C 317.512 30.266,316.688 30.594,316.000 30.830 L 314.750 31.258 314.699 32.045 C 314.643 32.909,314.918 33.069,315.719 32.637 C 316.811 32.050,317.977 32.133,318.387 32.828 C 318.704 33.365,318.816 58.906,318.507 60.237 C 318.201 61.557,317.318 62.264,315.729 62.462 L 314.750 62.585 314.750 63.334 L 314.750 64.083 320.917 64.083 L 327.083 64.083 327.083 63.334 L 327.083 62.584 326.022 62.453 C 323.454 62.136,323.000 61.248,322.876 56.310 L 322.790 52.871 323.686 53.117 C 327.457 54.150,328.627 54.196,331.167 53.412 C 332.528 52.991,334.333 52.072,334.333 51.798 C 334.333 51.726,334.442 51.667,334.574 51.667 C 334.984 51.667,338.439 48.091,338.649 47.450 C 338.685 47.340,338.845 47.063,339.004 46.833 C 341.314 43.515,342.179 36.913,340.701 33.884 C 340.620 33.719,340.350 33.161,340.100 32.644 C 339.692 31.800,337.761 29.667,337.405 29.667 C 337.334 29.667,337.158 29.567,337.013 29.446 C 335.601 28.263,330.354 28.637,329.167 30.005 C 329.121 30.058,328.783 30.322,328.417 30.592 C 327.267 31.437,325.322 33.538,323.755 35.625 C 322.830 36.857,322.819 36.832,322.834 33.542 C 322.841 31.915,322.844 30.152,322.840 29.625 L 322.833 28.667 322.125 28.679 C 321.735 28.686,320.929 28.878,320.333 29.107 M371.833 29.976 L 371.833 30.791 372.512 30.899 C 373.551 31.065,374.912 32.113,375.349 33.083 C 375.432 33.267,375.572 33.529,375.660 33.667 C 375.748 33.804,376.015 34.367,376.253 34.917 C 376.490 35.467,376.868 36.312,377.092 36.795 C 377.317 37.279,377.500 37.761,377.500 37.868 C 377.500 37.974,377.656 38.404,377.847 38.822 C 378.037 39.241,378.342 39.921,378.524 40.333 C 378.706 40.746,378.925 41.214,379.010 41.373 C 379.096 41.532,379.167 41.780,379.167 41.925 C 379.167 42.069,379.362 42.614,379.600 43.135 C 380.361 44.802,380.507 45.146,380.750 45.833 C 381.015 46.584,381.420 47.536,381.743 48.167 C 381.861 48.396,382.050 48.883,382.164 49.250 C 382.370 49.915,383.375 52.323,383.677 52.875 C 383.779 53.062,383.778 53.272,383.673 53.458 C 383.441 53.875,382.520 56.114,382.217 57.000 C 381.663 58.618,380.298 60.127,378.784 60.794 C 377.495 61.363,375.292 60.657,373.907 59.231 C 373.059 58.359,373.152 58.370,372.236 59.028 C 371.281 59.714,371.271 59.676,372.875 61.514 C 373.631 62.380,374.536 63.444,374.886 63.878 C 375.968 65.219,378.395 64.863,380.931 62.989 C 382.030 62.178,383.833 59.651,383.833 58.924 C 383.833 58.818,384.208 57.874,384.665 56.824 C 385.123 55.775,385.498 54.827,385.498 54.717 C 385.499 54.607,385.803 53.819,386.172 52.967 C 386.542 52.114,386.949 51.079,387.075 50.667 C 387.202 50.254,387.612 49.219,387.986 48.367 C 388.360 47.514,388.667 46.719,388.667 46.599 C 388.667 46.479,388.991 45.639,389.388 44.731 C 389.785 43.823,390.166 42.856,390.235 42.582 C 390.303 42.308,390.623 41.483,390.945 40.750 C 391.267 40.017,391.640 39.079,391.774 38.667 C 392.104 37.650,393.012 35.492,393.281 35.088 C 393.402 34.907,393.500 34.645,393.501 34.505 C 393.505 33.395,395.736 31.099,397.008 30.896 L 397.667 30.791 397.667 29.976 L 397.667 29.162 392.042 29.206 L 386.417 29.250 386.367 30.019 L 386.317 30.789 387.480 30.903 C 390.912 31.241,391.016 34.738,387.831 42.667 C 387.444 43.629,386.898 44.998,386.617 45.708 C 385.981 47.317,385.797 47.304,385.404 45.623 C 385.345 45.370,385.230 45.122,385.148 45.072 C 385.067 45.022,385.000 44.870,385.000 44.736 C 385.000 44.601,384.738 43.960,384.417 43.310 C 384.096 42.661,383.833 42.021,383.833 41.888 C 383.833 41.672,383.439 40.716,382.746 39.250 C 382.616 38.975,382.386 38.375,382.234 37.917 C 382.083 37.458,381.737 36.596,381.466 36.000 C 380.864 34.676,380.779 34.469,380.409 33.417 C 380.248 32.958,380.015 32.435,379.891 32.255 C 379.483 31.657,379.605 31.054,380.177 30.855 C 380.651 30.689,380.683 30.628,380.635 29.964 L 380.583 29.250 376.208 29.206 L 371.833 29.161 371.833 29.976 M255.616 31.354 C 260.884 35.270,257.047 44.587,251.103 42.312 C 246.212 40.440,246.850 31.300,251.917 30.659 C 253.599 30.447,254.665 30.647,255.616 31.354 M187.878 31.746 C 192.344 34.024,195.313 40.668,193.918 45.265 C 193.782 45.715,193.669 46.213,193.668 46.372 C 193.667 46.646,192.888 48.030,192.336 48.743 C 188.659 53.488,181.409 51.098,178.645 44.229 C 175.367 36.085,181.124 28.302,187.878 31.746 M228.667 31.297 C 231.470 32.405,233.216 34.108,234.754 37.235 C 235.590 38.934,235.751 39.579,235.940 41.974 C 236.660 51.126,227.730 54.575,222.188 47.286 C 221.418 46.272,221.235 45.945,220.492 44.250 C 217.299 36.967,222.433 28.832,228.667 31.297 M48.484 31.561 C 47.971 31.680,47.238 31.902,46.855 32.055 C 46.473 32.208,46.045 32.333,45.905 32.333 C 45.677 32.333,43.872 33.393,43.667 33.648 C 43.621 33.704,43.260 33.970,42.865 34.238 C 42.470 34.506,42.064 34.881,41.964 35.071 C 41.863 35.261,41.644 35.514,41.477 35.632 C 41.063 35.926,39.911 37.896,39.290 39.371 C 38.557 41.114,38.516 45.759,39.219 47.470 C 39.807 48.903,40.777 50.609,41.401 51.308 C 42.280 52.293,43.241 53.167,43.444 53.167 C 43.551 53.167,43.664 53.232,43.694 53.312 C 43.800 53.588,45.744 54.726,46.329 54.854 C 46.652 54.925,47.329 55.105,47.833 55.255 C 50.626 56.085,54.667 55.488,57.079 53.890 C 58.678 52.831,59.667 52.005,59.667 51.730 C 59.667 51.603,59.742 51.500,59.834 51.500 C 60.255 51.500,61.550 49.305,62.390 47.167 C 62.942 45.761,62.925 41.201,62.362 39.750 C 61.767 38.217,60.828 36.518,60.217 35.871 C 59.915 35.550,59.667 35.222,59.667 35.142 C 59.667 34.963,56.939 32.933,56.252 32.600 C 54.097 31.558,50.549 31.084,48.484 31.561 M333.183 32.169 C 337.449 33.354,338.579 44.718,334.828 48.707 C 334.633 48.914,334.361 49.273,334.223 49.505 C 334.085 49.736,333.466 50.303,332.848 50.764 C 330.205 52.735,327.206 52.319,323.474 49.463 L 322.865 48.997 322.748 47.274 C 322.630 45.551,322.850 42.562,323.149 41.804 C 323.233 41.591,323.507 40.779,323.757 40.000 C 324.269 38.408,324.599 37.698,325.330 36.614 C 325.607 36.204,325.833 35.818,325.833 35.756 C 325.833 35.695,326.095 35.368,326.415 35.031 C 326.735 34.693,326.998 34.362,326.999 34.294 C 327.001 34.053,329.240 32.412,329.822 32.226 C 330.579 31.983,332.403 31.952,333.183 32.169 M53.500 34.305 C 54.856 34.785,56.233 35.560,57.009 36.280 C 57.387 36.630,57.802 36.977,57.931 37.050 C 58.061 37.123,58.167 37.262,58.167 37.359 C 58.167 37.456,58.381 37.809,58.644 38.143 C 59.371 39.068,59.691 39.790,60.022 41.250 C 60.658 44.055,60.131 46.964,58.644 48.857 C 58.381 49.191,58.167 49.544,58.167 49.641 C 58.167 49.738,58.061 49.877,57.931 49.950 C 57.802 50.023,57.373 50.383,56.977 50.750 C 54.214 53.314,50.175 53.810,46.517 52.034 C 39.461 48.610,39.460 38.464,46.516 34.972 C 48.504 33.989,49.193 33.832,51.167 33.919 C 51.993 33.955,52.965 34.116,53.500 34.305 M304.948 40.629 C 304.836 42.583,304.570 43.685,303.820 45.295 C 303.552 45.869,303.333 46.437,303.333 46.555 C 303.333 46.948,301.065 49.242,300.298 49.625 C 295.463 52.039,292.517 46.715,296.610 42.962 C 297.036 42.570,297.481 42.156,297.598 42.042 C 297.714 41.927,297.844 41.833,297.886 41.833 C 297.928 41.833,298.403 41.539,298.941 41.180 C 299.479 40.820,300.219 40.415,300.585 40.279 C 302.531 39.556,304.538 38.891,304.900 38.850 C 304.987 38.841,305.008 39.592,304.948 40.629 M255.797 52.481 C 256.505 52.746,257.496 53.090,258.000 53.246 C 261.103 54.204,263.140 55.464,263.190 56.456 C 263.335 59.322,261.567 61.167,257.341 62.558 C 255.648 63.115,249.384 63.098,247.927 62.532 C 243.791 60.926,242.771 58.252,245.395 55.893 C 246.813 54.618,252.173 52.306,254.380 52.017 C 254.452 52.008,255.090 52.217,255.797 52.481 " stroke="none" fill="#000000" fill-rule="evenodd"></path><path id="path1" d="M41.379 9.874 C 41.289 9.989,40.183 12.165,38.922 14.708 L 36.630 19.333 27.982 19.333 L 19.333 19.333 19.333 16.917 L 19.333 14.500 13.250 14.500 L 7.167 14.500 7.167 16.896 L 7.167 19.293 4.578 19.362 L 1.988 19.432 1.036 20.384 L 0.083 21.337 0.083 43.500 L 0.083 65.663 1.043 66.623 L 2.004 67.583 38.663 67.583 L 75.322 67.583 76.222 66.694 C 77.592 65.342,77.500 67.005,77.500 43.500 C 77.500 19.995,77.592 21.658,76.222 20.306 L 75.322 19.417 70.040 19.333 L 64.758 19.250 64.593 18.750 C 64.503 18.475,64.070 17.602,63.631 16.810 C 63.192 16.019,62.833 15.297,62.833 15.206 C 62.833 15.115,62.496 14.430,62.083 13.685 C 61.671 12.939,61.329 12.236,61.324 12.123 C 61.319 12.009,61.034 11.429,60.691 10.833 L 60.067 9.750 50.805 9.707 C 43.520 9.673,41.508 9.709,41.379 9.874 M59.108 13.562 C 59.507 14.284,59.833 14.948,59.833 15.038 C 59.833 15.128,60.171 15.802,60.583 16.536 C 60.996 17.269,61.333 17.943,61.333 18.034 C 61.333 18.125,61.690 18.847,62.125 19.640 C 62.560 20.432,62.958 21.231,63.007 21.415 C 63.096 21.741,63.250 21.751,68.583 21.794 C 73.943 21.837,74.075 21.846,74.450 22.198 L 74.833 22.558 74.833 43.477 L 74.833 64.395 74.471 64.781 L 74.109 65.167 38.690 65.167 L 3.271 65.167 2.886 64.804 L 2.500 64.442 2.500 43.523 L 2.500 22.605 2.862 22.219 L 3.225 21.833 20.761 21.833 L 38.297 21.833 40.512 17.375 C 41.730 14.923,42.835 12.747,42.967 12.540 L 43.207 12.163 50.795 12.207 L 58.382 12.250 59.108 13.562 M152.833 16.661 C 152.421 16.824,151.508 17.192,150.806 17.478 C 150.103 17.765,149.456 18.000,149.368 18.000 C 149.227 18.000,148.779 18.185,146.750 19.083 C 146.475 19.204,145.856 19.429,145.375 19.582 L 144.500 19.860 144.500 20.680 C 144.500 21.517,144.710 21.724,145.131 21.302 C 145.546 20.887,147.752 21.032,148.143 21.500 C 148.678 22.138,148.621 48.842,148.083 49.914 C 147.656 50.766,146.522 51.474,145.366 51.611 L 144.500 51.713 144.500 52.440 L 144.500 53.167 150.583 53.167 L 156.667 53.167 156.667 52.417 L 156.667 51.667 155.825 51.667 C 152.660 51.667,151.847 48.551,153.152 41.417 C 153.500 39.516,155.885 35.018,157.157 33.864 C 159.786 31.479,162.324 31.206,163.255 33.207 L 163.663 34.083 163.665 42.436 C 163.667 51.462,163.646 51.667,162.738 51.667 C 162.567 51.667,162.500 51.878,162.500 52.417 L 162.500 53.167 167.250 53.167 L 172.000 53.167 172.000 52.417 C 172.000 51.671,171.996 51.667,171.420 51.667 C 170.111 51.667,168.836 50.880,168.315 49.750 C 168.030 49.132,168.007 48.509,168.004 41.250 C 168.000 34.833,167.953 33.193,167.742 32.180 C 166.492 26.187,159.141 27.908,153.667 35.475 L 152.917 36.511 152.868 27.881 C 152.817 18.852,152.866 18.118,153.522 17.946 C 153.769 17.881,153.833 17.706,153.833 17.099 C 153.833 16.242,153.863 16.255,152.833 16.661 M351.250 16.949 C 350.517 17.274,349.504 17.673,349.000 17.835 C 348.496 17.998,347.296 18.449,346.333 18.838 C 345.371 19.227,344.377 19.619,344.125 19.709 C 343.708 19.859,343.667 19.949,343.667 20.705 C 343.667 21.433,343.703 21.520,343.958 21.408 C 345.318 20.815,346.871 20.934,347.247 21.661 C 347.633 22.407,347.627 48.178,347.241 49.479 C 346.868 50.734,345.617 51.633,344.208 51.657 C 343.679 51.666,343.667 51.684,343.667 52.417 L 343.667 53.167 349.750 53.167 L 355.833 53.167 355.833 52.417 L 355.833 51.667 354.908 51.667 C 351.531 51.667,350.423 45.616,352.756 39.917 C 352.869 39.642,353.055 39.120,353.171 38.758 C 354.254 35.366,357.458 32.162,359.893 32.034 C 362.793 31.882,362.833 32.028,362.833 42.591 C 362.833 51.573,362.823 51.667,361.812 51.667 C 361.526 51.667,361.488 51.762,361.532 52.375 L 361.583 53.083 366.292 53.128 L 371.000 53.172 371.000 52.419 L 371.000 51.667 370.363 51.667 C 369.447 51.667,368.000 50.885,367.586 50.167 C 367.265 49.610,367.245 49.199,367.146 41.167 C 367.088 36.537,366.967 32.450,366.877 32.083 C 366.065 28.794,363.918 27.889,359.889 29.138 C 359.287 29.325,357.667 30.346,357.667 30.539 C 357.667 30.609,357.580 30.667,357.473 30.667 C 357.125 30.667,354.317 33.478,353.041 35.105 C 352.834 35.368,352.477 35.808,352.247 36.083 L 351.830 36.583 351.873 27.611 L 351.917 18.639 352.468 18.147 C 352.931 17.733,353.011 17.557,352.968 17.048 C 352.901 16.257,352.821 16.252,351.250 16.949 M16.833 18.167 L 16.833 19.333 13.250 19.333 L 9.667 19.333 9.667 18.167 L 9.667 17.000 13.250 17.000 L 16.833 17.000 16.833 18.167 M81.278 19.944 C 81.217 20.006,81.167 20.371,81.167 20.756 L 81.167 21.457 82.196 21.573 C 84.141 21.793,84.849 22.392,85.154 24.072 C 85.406 25.463,85.400 47.832,85.147 49.033 C 84.786 50.746,83.671 51.667,81.958 51.667 L 81.148 51.667 81.199 52.375 L 81.250 53.083 90.083 53.083 C 100.290 53.083,99.752 53.142,104.167 51.543 C 105.600 51.024,107.233 50.050,108.667 48.861 C 109.636 48.057,111.331 46.358,111.337 46.186 C 111.338 46.129,111.603 45.783,111.926 45.417 C 112.248 45.050,112.705 44.413,112.942 44.000 C 113.178 43.587,113.550 42.936,113.768 42.553 C 114.117 41.941,114.657 40.516,115.323 38.451 C 117.700 31.082,114.461 22.659,108.583 20.927 C 108.033 20.765,107.358 20.561,107.083 20.475 C 105.300 19.914,81.791 19.431,81.278 19.944 M119.167 20.655 L 119.167 21.476 120.125 21.593 C 121.909 21.810,122.531 22.288,122.825 23.667 C 123.144 25.158,122.999 49.196,122.667 50.083 C 122.356 50.912,121.031 51.667,119.887 51.667 L 119.167 51.667 119.167 52.419 L 119.167 53.171 125.708 53.127 L 132.250 53.083 132.250 52.421 C 132.250 51.779,132.230 51.756,131.583 51.642 C 130.219 51.403,128.836 50.504,128.603 49.706 C 128.087 47.939,127.928 36.873,128.422 37.062 C 132.128 38.484,135.455 37.894,139.000 35.184 C 145.124 30.502,146.079 23.162,140.872 20.801 C 138.976 19.941,137.555 19.835,127.875 19.834 L 119.167 19.833 119.167 20.655 M207.627 21.830 C 206.826 22.184,205.888 22.563,205.543 22.673 C 205.199 22.783,204.680 22.981,204.391 23.114 L 203.866 23.356 203.801 26.220 C 203.709 30.271,203.385 30.802,200.805 31.120 L 199.750 31.250 199.750 32.000 L 199.750 32.750 201.703 32.797 L 203.656 32.844 203.703 42.380 C 203.755 52.942,203.715 52.557,204.856 53.475 C 206.329 54.660,209.638 53.458,212.772 50.601 C 213.666 49.786,214.133 48.167,213.473 48.167 C 213.290 48.167,211.509 49.427,211.333 49.682 C 210.950 50.235,208.981 50.604,208.411 50.231 L 208.000 49.962 208.000 41.401 L 208.000 32.841 211.208 32.795 L 214.417 32.750 214.417 32.000 L 214.417 31.250 212.417 31.162 C 208.917 31.008,208.117 30.215,208.029 26.810 C 207.967 24.428,208.228 23.567,209.176 23.028 C 209.608 22.782,209.665 22.659,209.666 21.958 C 209.667 20.972,209.582 20.967,207.627 21.830 M99.368 21.510 C 104.866 22.078,108.860 25.358,109.836 30.106 C 111.079 36.154,110.845 40.672,109.113 44.078 C 108.133 46.003,107.856 46.413,106.801 47.502 C 102.779 51.655,97.225 52.298,91.376 49.286 L 90.335 48.750 90.334 36.072 L 90.333 23.395 91.042 22.989 C 92.088 22.390,93.886 21.836,95.583 21.590 C 97.561 21.304,97.404 21.308,99.368 21.510 M135.298 22.097 C 138.549 23.891,139.927 29.774,137.932 33.342 C 136.335 36.199,132.419 36.248,128.645 33.458 L 128.167 33.104 128.167 28.058 L 128.167 23.013 129.458 22.389 C 131.582 21.364,133.772 21.254,135.298 22.097 M16.833 43.500 L 16.833 62.833 18.083 62.833 L 19.333 62.833 19.333 43.500 L 19.333 24.167 18.083 24.167 L 16.833 24.167 16.833 43.500 M30.398 24.272 C 28.960 24.594,28.504 27.328,29.706 28.429 C 31.997 30.529,35.388 27.191,33.290 24.902 C 32.737 24.299,31.489 24.027,30.398 24.272 M47.750 24.337 C 46.524 24.450,44.375 25.070,43.343 25.609 C 43.108 25.731,42.818 25.832,42.696 25.832 C 42.421 25.834,41.073 26.602,40.446 27.115 C 40.186 27.327,39.880 27.500,39.765 27.500 C 39.440 27.500,35.667 30.969,35.667 31.269 C 35.667 31.331,35.397 31.712,35.066 32.115 C 34.736 32.518,34.277 33.201,34.047 33.632 C 32.957 35.672,32.507 36.637,32.359 37.250 C 32.271 37.617,32.027 38.554,31.818 39.333 C 31.264 41.395,31.264 45.605,31.818 47.667 C 32.027 48.446,32.271 49.383,32.359 49.749 C 32.658 50.986,34.383 54.177,35.287 55.165 C 35.496 55.393,35.667 55.638,35.667 55.710 C 35.667 55.850,37.488 57.675,38.683 58.732 C 39.086 59.089,39.655 59.482,39.947 59.605 C 40.239 59.728,40.520 59.897,40.572 59.982 C 40.705 60.196,42.450 61.166,42.706 61.168 C 42.822 61.168,43.104 61.265,43.333 61.383 C 45.350 62.420,47.441 62.828,50.750 62.830 C 54.173 62.831,55.582 62.559,58.109 61.406 C 58.397 61.274,58.725 61.167,58.837 61.167 C 59.159 61.167,62.167 59.320,62.901 58.672 C 63.976 57.722,66.167 55.479,66.167 55.329 C 66.167 55.253,66.263 55.091,66.380 54.970 C 69.799 51.449,71.070 43.263,69.143 37.167 C 68.854 36.250,67.363 33.311,66.861 32.667 C 66.611 32.346,66.268 31.865,66.098 31.598 C 65.817 31.155,64.758 30.066,63.063 28.478 C 62.707 28.145,62.183 27.732,61.898 27.561 C 61.612 27.390,60.849 26.931,60.202 26.542 C 59.555 26.152,58.926 25.833,58.804 25.832 C 58.683 25.832,58.378 25.724,58.126 25.593 C 55.811 24.385,52.105 23.937,47.750 24.337 M54.621 27.144 C 55.870 27.400,56.705 27.694,57.753 28.247 C 58.538 28.661,59.255 29.000,59.345 29.000 C 59.890 29.000,63.047 31.881,64.331 33.551 C 68.222 38.607,68.643 46.346,65.326 51.843 C 64.963 52.445,64.667 53.020,64.667 53.121 C 64.667 53.223,64.604 53.331,64.527 53.361 C 64.451 53.392,63.933 53.948,63.376 54.598 C 62.430 55.703,59.445 58.167,59.053 58.167 C 58.956 58.167,58.300 58.469,57.595 58.838 C 56.135 59.602,53.860 60.132,51.417 60.278 C 49.999 60.362,49.562 60.313,46.060 59.683 C 45.680 59.614,44.752 59.245,43.998 58.862 C 43.244 58.480,42.554 58.167,42.464 58.167 C 41.213 58.167,35.500 51.885,35.500 50.508 C 35.500 50.357,35.433 50.162,35.351 50.075 C 34.736 49.422,33.833 45.511,33.833 43.500 C 33.833 41.489,34.736 37.578,35.351 36.925 C 35.433 36.838,35.500 36.629,35.500 36.462 C 35.500 35.653,38.394 31.915,40.145 30.462 C 41.564 29.285,45.068 27.453,46.250 27.271 C 46.617 27.214,47.442 27.059,48.083 26.926 C 49.635 26.605,52.449 26.699,54.621 27.144 M275.383 28.734 C 275.090 28.841,274.796 28.982,274.730 29.047 C 274.665 29.113,274.475 29.167,274.309 29.167 C 274.043 29.167,272.611 29.774,271.308 30.441 C 271.064 30.565,270.767 30.667,270.647 30.667 C 269.659 30.667,269.000 31.209,269.000 32.023 C 269.000 32.912,269.064 32.950,269.942 32.583 C 271.235 32.043,272.313 32.320,272.681 33.287 C 272.853 33.740,272.893 48.020,272.725 49.243 C 272.552 50.506,270.983 51.670,269.458 51.667 C 269.026 51.667,269.000 51.709,269.000 52.417 L 269.000 53.167 275.917 53.167 L 282.833 53.167 282.833 52.417 L 282.833 51.667 281.780 51.667 C 280.259 51.667,278.667 51.144,277.870 50.384 C 276.534 49.110,276.868 42.159,278.448 38.333 C 278.915 37.203,279.047 36.910,279.388 36.250 C 281.853 31.468,286.167 31.487,286.167 36.280 L 286.167 37.167 287.333 37.167 L 288.500 37.167 288.500 33.091 L 288.500 29.015 287.875 28.883 C 285.758 28.434,283.557 28.940,282.136 30.204 C 281.798 30.504,281.386 30.872,281.219 31.020 C 280.793 31.401,279.619 32.821,279.239 33.417 C 279.063 33.692,278.783 34.067,278.616 34.250 C 278.449 34.433,278.073 34.996,277.781 35.500 L 277.250 36.417 277.205 32.458 L 277.161 28.500 276.539 28.520 C 276.197 28.531,275.677 28.627,275.383 28.734 M185.000 28.832 C 182.991 29.217,182.423 29.418,181.250 30.159 C 180.883 30.391,180.422 30.656,180.224 30.749 C 179.907 30.897,178.590 31.963,177.850 32.671 C 174.733 35.652,173.319 40.309,174.085 45.070 C 174.426 47.186,174.648 47.785,175.733 49.500 C 176.673 50.988,178.737 52.680,180.146 53.119 C 183.055 54.024,184.608 54.176,186.673 53.760 C 188.508 53.391,189.603 53.033,190.372 52.554 C 190.714 52.341,191.026 52.167,191.065 52.167 C 191.540 52.167,194.106 49.977,195.182 48.653 C 199.162 43.759,199.170 36.030,195.199 31.816 C 194.603 31.184,194.047 30.667,193.964 30.667 C 193.880 30.667,193.572 30.490,193.281 30.273 C 191.603 29.030,187.599 28.333,185.000 28.832 M226.833 28.832 C 224.798 29.222,223.779 29.592,222.886 30.266 C 222.594 30.487,222.301 30.667,222.235 30.667 C 221.902 30.667,219.946 32.347,218.796 33.622 C 217.782 34.745,216.411 37.272,216.239 38.333 C 216.187 38.654,216.037 39.419,215.905 40.033 C 215.600 41.461,215.604 43.801,215.913 45.083 C 216.046 45.633,216.157 46.257,216.161 46.469 C 216.184 47.982,218.368 50.925,220.619 52.478 C 223.218 54.271,229.102 54.350,232.126 52.633 C 239.047 48.704,241.681 41.790,238.932 34.766 C 238.430 33.482,236.290 30.667,235.816 30.667 C 235.722 30.667,235.406 30.490,235.114 30.273 C 233.436 29.030,229.432 28.333,226.833 28.832 M253.000 28.773 C 251.904 28.934,250.702 29.214,250.250 29.414 C 249.975 29.535,249.637 29.680,249.500 29.736 C 249.362 29.791,249.025 29.983,248.750 30.161 C 248.475 30.339,248.013 30.607,247.722 30.755 C 243.350 32.990,241.797 39.239,244.876 42.208 C 246.750 44.015,250.334 44.807,253.333 44.077 C 253.662 43.997,253.548 44.162,252.788 44.863 C 250.662 46.823,250.246 48.405,251.431 50.019 C 251.760 50.467,252.097 50.833,252.181 50.833 C 252.265 50.833,252.333 50.908,252.333 51.000 C 252.333 51.092,252.155 51.167,251.938 51.167 C 251.720 51.167,251.223 51.279,250.833 51.417 C 250.444 51.554,249.955 51.667,249.748 51.667 C 249.317 51.667,246.997 52.414,246.250 52.794 C 245.279 53.287,245.169 53.333,244.975 53.333 C 244.099 53.333,241.023 55.825,240.403 57.036 C 237.636 62.438,245.579 66.210,256.083 64.482 C 259.748 63.879,265.395 60.864,266.188 59.086 C 266.270 58.901,266.541 58.413,266.791 58.000 C 267.202 57.318,267.244 57.098,267.247 55.583 L 267.250 53.917 266.618 53.083 C 265.995 52.262,265.388 51.833,263.417 50.824 C 262.513 50.361,261.508 49.980,258.167 48.834 C 253.621 47.275,253.604 46.327,258.056 42.417 C 259.543 41.111,260.854 39.754,261.167 39.196 C 261.304 38.951,261.472 38.709,261.540 38.658 C 262.310 38.082,262.779 34.658,262.259 33.411 L 262.017 32.833 264.592 32.833 L 267.167 32.833 267.167 32.107 L 267.167 31.381 265.375 31.281 C 263.362 31.169,261.902 30.812,259.851 29.928 C 257.321 28.838,255.103 28.464,253.000 28.773 M301.667 28.828 C 300.030 29.125,299.220 29.316,298.568 29.560 C 297.374 30.004,294.269 31.534,293.734 31.941 C 293.451 32.157,293.132 32.333,293.026 32.333 C 292.887 32.333,292.833 33.256,292.833 35.667 L 292.833 39.000 293.816 39.000 C 294.933 39.000,294.944 38.987,295.104 37.527 C 295.728 31.839,302.574 28.040,304.581 32.269 C 305.047 33.252,304.873 36.290,304.333 36.576 C 304.104 36.697,302.867 37.307,301.583 37.931 C 300.300 38.555,298.875 39.301,298.417 39.590 C 297.958 39.878,297.246 40.306,296.833 40.540 C 296.421 40.775,295.892 41.143,295.658 41.358 C 295.424 41.574,295.048 41.847,294.822 41.966 C 294.350 42.213,292.103 44.346,291.534 45.086 C 289.863 47.258,289.912 50.387,291.648 52.356 C 294.280 55.344,298.282 54.210,303.735 48.934 L 304.750 47.951 304.833 50.411 L 304.917 52.870 305.492 53.351 C 307.098 54.690,309.628 53.832,313.042 50.791 C 313.813 50.104,313.833 50.060,313.833 49.126 C 313.833 47.949,313.850 47.949,312.405 49.130 C 310.939 50.328,309.991 50.694,309.501 50.251 C 309.174 49.955,309.167 49.743,309.167 41.084 C 309.167 30.461,309.090 30.003,307.167 29.126 C 306.332 28.745,303.091 28.570,301.667 28.828 M320.333 29.107 C 319.737 29.336,319.063 29.586,318.833 29.662 C 318.604 29.738,318.154 29.936,317.833 30.101 C 317.512 30.266,316.688 30.594,316.000 30.830 L 314.750 31.258 314.699 32.045 C 314.643 32.909,314.918 33.069,315.719 32.637 C 316.811 32.050,317.977 32.133,318.387 32.828 C 318.704 33.365,318.816 58.906,318.507 60.237 C 318.201 61.557,317.318 62.264,315.729 62.462 L 314.750 62.585 314.750 63.334 L 314.750 64.083 320.917 64.083 L 327.083 64.083 327.083 63.334 L 327.083 62.584 326.022 62.453 C 323.454 62.136,323.000 61.248,322.876 56.310 L 322.790 52.871 323.686 53.117 C 327.457 54.150,328.627 54.196,331.167 53.412 C 332.528 52.991,334.333 52.072,334.333 51.798 C 334.333 51.726,334.442 51.667,334.574 51.667 C 334.984 51.667,338.439 48.091,338.649 47.450 C 338.685 47.340,338.845 47.063,339.004 46.833 C 341.314 43.515,342.179 36.913,340.701 33.884 C 340.620 33.719,340.350 33.161,340.100 32.644 C 339.692 31.800,337.761 29.667,337.405 29.667 C 337.334 29.667,337.158 29.567,337.013 29.446 C 335.601 28.263,330.354 28.637,329.167 30.005 C 329.121 30.058,328.783 30.322,328.417 30.592 C 327.267 31.437,325.322 33.538,323.755 35.625 C 322.830 36.857,322.819 36.832,322.834 33.542 C 322.841 31.915,322.844 30.152,322.840 29.625 L 322.833 28.667 322.125 28.679 C 321.735 28.686,320.929 28.878,320.333 29.107 M371.833 29.976 L 371.833 30.791 372.512 30.899 C 373.551 31.065,374.912 32.113,375.349 33.083 C 375.432 33.267,375.572 33.529,375.660 33.667 C 375.748 33.804,376.015 34.367,376.253 34.917 C 376.490 35.467,376.868 36.312,377.092 36.795 C 377.317 37.279,377.500 37.761,377.500 37.868 C 377.500 37.974,377.656 38.404,377.847 38.822 C 378.037 39.241,378.342 39.921,378.524 40.333 C 378.706 40.746,378.925 41.214,379.010 41.373 C 379.096 41.532,379.167 41.780,379.167 41.925 C 379.167 42.069,379.362 42.614,379.600 43.135 C 380.361 44.802,380.507 45.146,380.750 45.833 C 381.015 46.584,381.420 47.536,381.743 48.167 C 381.861 48.396,382.050 48.883,382.164 49.250 C 382.370 49.915,383.375 52.323,383.677 52.875 C 383.779 53.062,383.778 53.272,383.673 53.458 C 383.441 53.875,382.520 56.114,382.217 57.000 C 381.663 58.618,380.298 60.127,378.784 60.794 C 377.495 61.363,375.292 60.657,373.907 59.231 C 373.059 58.359,373.152 58.370,372.236 59.028 C 371.281 59.714,371.271 59.676,372.875 61.514 C 373.631 62.380,374.536 63.444,374.886 63.878 C 375.968 65.219,378.395 64.863,380.931 62.989 C 382.030 62.178,383.833 59.651,383.833 58.924 C 383.833 58.818,384.208 57.874,384.665 56.824 C 385.123 55.775,385.498 54.827,385.498 54.717 C 385.499 54.607,385.803 53.819,386.172 52.967 C 386.542 52.114,386.949 51.079,387.075 50.667 C 387.202 50.254,387.612 49.219,387.986 48.367 C 388.360 47.514,388.667 46.719,388.667 46.599 C 388.667 46.479,388.991 45.639,389.388 44.731 C 389.785 43.823,390.166 42.856,390.235 42.582 C 390.303 42.308,390.623 41.483,390.945 40.750 C 391.267 40.017,391.640 39.079,391.774 38.667 C 392.104 37.650,393.012 35.492,393.281 35.088 C 393.402 34.907,393.500 34.645,393.501 34.505 C 393.505 33.395,395.736 31.099,397.008 30.896 L 397.667 30.791 397.667 29.976 L 397.667 29.162 392.042 29.206 L 386.417 29.250 386.367 30.019 L 386.317 30.789 387.480 30.903 C 390.912 31.241,391.016 34.738,387.831 42.667 C 387.444 43.629,386.898 44.998,386.617 45.708 C 385.981 47.317,385.797 47.304,385.404 45.623 C 385.345 45.370,385.230 45.122,385.148 45.072 C 385.067 45.022,385.000 44.870,385.000 44.736 C 385.000 44.601,384.738 43.960,384.417 43.310 C 384.096 42.661,383.833 42.021,383.833 41.888 C 383.833 41.672,383.439 40.716,382.746 39.250 C 382.616 38.975,382.386 38.375,382.234 37.917 C 382.083 37.458,381.737 36.596,381.466 36.000 C 380.864 34.676,380.779 34.469,380.409 33.417 C 380.248 32.958,380.015 32.435,379.891 32.255 C 379.483 31.657,379.605 31.054,380.177 30.855 C 380.651 30.689,380.683 30.628,380.635 29.964 L 380.583 29.250 376.208 29.206 L 371.833 29.161 371.833 29.976 M255.616 31.354 C 260.884 35.270,257.047 44.587,251.103 42.312 C 246.212 40.440,246.850 31.300,251.917 30.659 C 253.599 30.447,254.665 30.647,255.616 31.354 M187.878 31.746 C 192.344 34.024,195.313 40.668,193.918 45.265 C 193.782 45.715,193.669 46.213,193.668 46.372 C 193.667 46.646,192.888 48.030,192.336 48.743 C 188.659 53.488,181.409 51.098,178.645 44.229 C 175.367 36.085,181.124 28.302,187.878 31.746 M228.667 31.297 C 231.470 32.405,233.216 34.108,234.754 37.235 C 235.590 38.934,235.751 39.579,235.940 41.974 C 236.660 51.126,227.730 54.575,222.188 47.286 C 221.418 46.272,221.235 45.945,220.492 44.250 C 217.299 36.967,222.433 28.832,228.667 31.297 M48.484 31.561 C 47.971 31.680,47.238 31.902,46.855 32.055 C 46.473 32.208,46.045 32.333,45.905 32.333 C 45.677 32.333,43.872 33.393,43.667 33.648 C 43.621 33.704,43.260 33.970,42.865 34.238 C 42.470 34.506,42.064 34.881,41.964 35.071 C 41.863 35.261,41.644 35.514,41.477 35.632 C 41.063 35.926,39.911 37.896,39.290 39.371 C 38.557 41.114,38.516 45.759,39.219 47.470 C 39.807 48.903,40.777 50.609,41.401 51.308 C 42.280 52.293,43.241 53.167,43.444 53.167 C 43.551 53.167,43.664 53.232,43.694 53.312 C 43.800 53.588,45.744 54.726,46.329 54.854 C 46.652 54.925,47.329 55.105,47.833 55.255 C 50.626 56.085,54.667 55.488,57.079 53.890 C 58.678 52.831,59.667 52.005,59.667 51.730 C 59.667 51.603,59.742 51.500,59.834 51.500 C 60.255 51.500,61.550 49.305,62.390 47.167 C 62.942 45.761,62.925 41.201,62.362 39.750 C 61.767 38.217,60.828 36.518,60.217 35.871 C 59.915 35.550,59.667 35.222,59.667 35.142 C 59.667 34.963,56.939 32.933,56.252 32.600 C 54.097 31.558,50.549 31.084,48.484 31.561 M333.183 32.169 C 337.449 33.354,338.579 44.718,334.828 48.707 C 334.633 48.914,334.361 49.273,334.223 49.505 C 334.085 49.736,333.466 50.303,332.848 50.764 C 330.205 52.735,327.206 52.319,323.474 49.463 L 322.865 48.997 322.748 47.274 C 322.630 45.551,322.850 42.562,323.149 41.804 C 323.233 41.591,323.507 40.779,323.757 40.000 C 324.269 38.408,324.599 37.698,325.330 36.614 C 325.607 36.204,325.833 35.818,325.833 35.756 C 325.833 35.695,326.095 35.368,326.415 35.031 C 326.735 34.693,326.998 34.362,326.999 34.294 C 327.001 34.053,329.240 32.412,329.822 32.226 C 330.579 31.983,332.403 31.952,333.183 32.169 M53.500 34.305 C 54.856 34.785,56.233 35.560,57.009 36.280 C 57.387 36.630,57.802 36.977,57.931 37.050 C 58.061 37.123,58.167 37.262,58.167 37.359 C 58.167 37.456,58.381 37.809,58.644 38.143 C 59.371 39.068,59.691 39.790,60.022 41.250 C 60.658 44.055,60.131 46.964,58.644 48.857 C 58.381 49.191,58.167 49.544,58.167 49.641 C 58.167 49.738,58.061 49.877,57.931 49.950 C 57.802 50.023,57.373 50.383,56.977 50.750 C 54.214 53.314,50.175 53.810,46.517 52.034 C 39.461 48.610,39.460 38.464,46.516 34.972 C 48.504 33.989,49.193 33.832,51.167 33.919 C 51.993 33.955,52.965 34.116,53.500 34.305 M304.948 40.629 C 304.836 42.583,304.570 43.685,303.820 45.295 C 303.552 45.869,303.333 46.437,303.333 46.555 C 303.333 46.948,301.065 49.242,300.298 49.625 C 295.463 52.039,292.517 46.715,296.610 42.962 C 297.036 42.570,297.481 42.156,297.598 42.042 C 297.714 41.927,297.844 41.833,297.886 41.833 C 297.928 41.833,298.403 41.539,298.941 41.180 C 299.479 40.820,300.219 40.415,300.585 40.279 C 302.531 39.556,304.538 38.891,304.900 38.850 C 304.987 38.841,305.008 39.592,304.948 40.629 M255.797 52.481 C 256.505 52.746,257.496 53.090,258.000 53.246 C 261.103 54.204,263.140 55.464,263.190 56.456 C 263.335 59.322,261.567 61.167,257.341 62.558 C 255.648 63.115,249.384 63.098,247.927 62.532 C 243.791 60.926,242.771 58.252,245.395 55.893 C 246.813 54.618,252.173 52.306,254.380 52.017 C 254.452 52.008,255.090 52.217,255.797 52.481 " stroke="none" fill="#000000" fill-rule="evenodd"></path></g></svg>